<svg xmlns="http://www.w3.org/2000/svg" viewBox="0 0 64 64"><path fill="#00ccb3" d="M61,29v6l-4-1-7.28,1.04a17.812,17.812,0,0,1-3.04,7.35l4.41,5.87,3.54,2.12-4.25,4.25-2.12-3.54-5.87-4.41a17.812,17.812,0,0,1-7.35,3.04L34,57l1,4H29l1-4-1.04-7.28a17.812,17.812,0,0,1-7.35-3.04l-5.87,4.41-2.12,3.54L9.37,50.38l3.54-2.12L15.36,45l1.96-2.61a17.812,17.812,0,0,1-3.04-7.35L7,34,3,35V29l4,1,7.28-1.04a17.812,17.812,0,0,1,3.04-7.35l-4.41-5.87L9.37,13.62l4.25-4.25,2.12,3.54,5.87,4.41a17.812,17.812,0,0,1,7.35-3.04L30,7,29,3h6L34,7l1.04,7.28a17.812,17.812,0,0,1,7.35,3.04L46,14.61l2.26-1.7,2.12-3.54,4.25,4.25-3.54,2.12-4.41,5.87a17.812,17.812,0,0,1,3.04,7.35L57,30Z"/><path fill="#00ddc2" d="M46,14.61v5.2A25.193,25.193,0,0,1,20.81,45H15.36l1.96-2.61a17.812,17.812,0,0,1-3.04-7.35L7,34,3,35V29l4,1,7.28-1.04a17.812,17.812,0,0,1,3.04-7.35l-4.41-5.87L9.37,13.62l4.25-4.25,2.12,3.54,5.87,4.41a17.812,17.812,0,0,1,7.35-3.04L30,7,29,3h6L34,7l1.04,7.28a17.812,17.812,0,0,1,7.35,3.04Z"/><circle cx="29" cy="44" r="2" fill="#ff5023"/><circle cx="28" cy="22" r="2" fill="#d80027"/><circle cx="25" cy="34" r="3" fill="#d80027"/><circle cx="38" cy="39" r="3" fill="#d80027"/><circle cx="39" cy="27" r="4" fill="#ff5023"/><circle cx="21" cy="27" r="2" fill="#ff5023"/></svg>