<svg xmlns="http://www.w3.org/2000/svg" viewBox="0 0 1080 1080"><defs><style>.cls-1{isolation:isolate;}.cls-2{fill:#c7dcf9;}.cls-3{fill:#ffd3b3;}.cls-11,.cls-4{fill:#99adf9;}.cls-5{fill:#1c3177;}.cls-6{fill:#ff8d76;}.cls-10,.cls-12,.cls-15,.cls-16,.cls-17,.cls-7,.cls-9{fill:none;stroke-linecap:round;stroke-miterlimit:10;}.cls-7{stroke:#ff8d76;stroke-width:6px;opacity:0.44;mix-blend-mode:multiply;}.cls-8{fill:#fea691;}.cls-9{stroke:#1c3177;stroke-width:18px;}.cls-10{stroke:#99adf9;}.cls-10,.cls-15{stroke-width:9px;}.cls-11{opacity:0.29;}.cls-12,.cls-17{stroke:#fec272;}.cls-12{stroke-width:21px;}.cls-13{fill:#f774b9;}.cls-14{fill:#ff97c9;}.cls-15{stroke:#f774b9;}.cls-16{stroke:#ff97c9;stroke-width:8px;}.cls-17{stroke-width:11px;}</style></defs><g class="cls-1"><g id="Layer_3" data-name="Layer 3"><path class="cls-2" d="M296.41,881.88s57.08-128.21,237.52-143.57,239,143.57,239,143.57Z"/><path class="cls-3" d="M806.3,815.18s42.85-87.62,148.21-75.77C919.61,799.34,889.89,849.45,806.3,815.18Z"/><ellipse class="cls-2" cx="270.88" cy="336.53" rx="143.56" ry="135.67" transform="matrix(0.84, -0.54, 0.54, 0.84, -138.52, 198.62)"/><ellipse class="cls-4" cx="281.17" cy="340.32" rx="90.76" ry="93.16" transform="translate(-138.94 204.75) rotate(-32.55)"/><ellipse class="cls-2" cx="776.78" cy="321.8" rx="127.66" ry="128.24" transform="translate(87.58 803.41) rotate(-57.45)"/><ellipse class="cls-4" cx="772.88" cy="329.05" rx="87.66" ry="81.08" transform="translate(79.66 803.46) rotate(-57.45)"/><path class="cls-2" d="M863.68,553.53c0,169.75-147.63,263.59-329.75,263.59S204.17,723.28,204.17,553.53,351.81,246.17,533.93,246.17,863.68,383.78,863.68,553.53Z"/><circle class="cls-5" cx="455.91" cy="507.97" r="23.58"/><path class="cls-4" d="M478.05,406.59c-5.95-13.38-21.72-9.9-46.85,1.58-17,7.76-40.38,18.73-35.11,33.76s33.08,10.16,53.76,1.51S484.07,420.13,478.05,406.59Z"/><path class="cls-4" d="M648.74,408.39c4.31-14,20.39-12.42,46.71-4,17.78,5.68,42.31,13.79,38.87,29.35s-31.64,14-53.2,7.88S644.37,422.54,648.74,408.39Z"/><circle class="cls-5" cx="691.32" cy="500.29" r="23.58"/><path class="cls-6" d="M571.49,566.17S541.59,387.47,540,376.25c-.79-5.7,10.79-9.51,16.4-6.2s36.38,92.22,39.83,100.34-1.85,93.14-5.8,98.91C587.13,574.2,574.2,573.31,571.49,566.17Z"/><path class="cls-6" d="M611.37,568S665.8,395.19,668.9,384.29c1.56-5.53-9.37-10.91-15.39-8.41s-48.83,86.27-53.38,93.84-11.1,92.48-8,98.75C594.77,573.78,607.69,574.7,611.37,568Z"/><line class="cls-7" x1="596.44" y1="508.71" x2="592.68" y2="561.49"/><circle class="cls-8" cx="596.44" cy="492.42" r="21.37"/><path class="cls-9" d="M553.23,660.45S587.7,609.53,597,609.53s38.86,47.85,38.86,47.85"/><path class="cls-10" d="M485.63,535.1s-6.14,18.39-36.87,21"/><path class="cls-10" d="M667.74,531.55s7.11,12.33,28.63,12.33"/><path class="cls-11" d="M692.64,789.58c-80.57,9.76-213.15,3.62-332.79-70.4C208.43,625.5,216,474.05,216.31,470.66a288.2,288.2,0,0,0-12.14,82.87c0,169.75,147.64,263.59,329.76,263.59C591.46,817.12,645.55,807.74,692.64,789.58Z"/><path class="cls-12" d="M816.86,727.55s-3.54,80.56-23.73,138.52"/><path class="cls-13" d="M899,590.71c-2,17.5-7.81,117-42.06,148.62s-80.78,24.3-101.56,0-20.43-104.08-20.43-104.08Z"/><path class="cls-14" d="M898.77,587.3c3.67,11.84-26.07,45.76-71.2,59.45s-86.42,9.27-92.23-9.87,25.47-47.93,71.2-59.45C851.66,566.07,895.09,575.47,898.77,587.3Z"/><path class="cls-15" d="M759.47,656.5S746,639,762,620.57c17.48-20.12,66-35.08,87.54-31s12.31,21.12-2.71,30.21c-30.37,18.38-57.78,17.09-61.94,11.22s14.8-18.54,39.44-20.22"/><path class="cls-16" d="M766.2,652.11c8.49,19.32,4.59,53.39,16.39,75.44,12.88,24.08,23.71,27.59,23.71,27.59"/><path class="cls-17" d="M817,810.76S861,783,926.41,755.14"/></g></g></svg>