<svg xmlns="http://www.w3.org/2000/svg" data-name="Layer 1" viewBox="0 0 450 600"><defs><clipPath id="a"><circle cx="225" cy="286.01" r="99.791" fill="none"/></clipPath><clipPath id="b"><path fill="none" d="M168.43737,391.93575s44.19427-74.766,83.881-94.38032c0,0,19.886,6.10456,24.9158,11.68375,0,0-4.01558,58.57546-17.58362,82.69657"/></clipPath></defs><rect width="289.218" height="435.083" x="80.391" y="82.458" fill="#fff" rx="12.858"/><path fill="#f94b58" d="M356.751,522.5415H93.24951a17.87891,17.87891,0,0,1-17.8584-17.85839V95.31689A17.87829,17.87829,0,0,1,93.24951,77.4585H356.751a17.87819,17.87819,0,0,1,17.85791,17.85839V504.68311A17.87881,17.87881,0,0,1,356.751,522.5415ZM93.24951,87.4585a7.86746,7.86746,0,0,0-7.8584,7.85839V504.68311a7.86746,7.86746,0,0,0,7.8584,7.85839H356.751a7.867,7.867,0,0,0,7.85791-7.85839V95.31689A7.867,7.867,0,0,0,356.751,87.4585Z"/><path fill="#f94b58" d="M88.77356,80.68H361.82867a7.97244,7.97244,0,0,1,7.97244,7.97244v64.84315a0,0,0,0,1,0,0h-289a0,0,0,0,1,0,0V88.65249A7.97244,7.97244,0,0,1,88.77356,80.68Z"/><path fill="#2e2b70" d="M183.05437 439.75l-1.167-4.36328h-9.05859l-1.166 4.36328h-7.543l8.98144-30.23975h8.47559L190.55827 439.75zm-8.4375-11.01611h5.48242l-2.76074-10.28125zM197.92155 439.75l-8.78711-30.23975h7.62012l5.28809 20.82227 5.32617-20.82227h7.62012L206.2028 439.75zM240.402 435.84033a13.53194 13.53194 0 01-20.25586 0 17.24542 17.24542 0 010-22.42041 13.53194 13.53194 0 0120.25586 0 17.24538 17.24538 0 010 22.42041zm-15.37695-5.31347a7.11655 7.11655 0 0010.49805 0 9.33029 9.33029 0 000-11.79346 7.11653 7.11653 0 00-10.49805 0 9.33025 9.33025 0 000 11.79346zM249.0573 409.51025h6.959V439.75h-6.959zM272.66081 409.51025a12.01367 12.01367 0 019.42871 4.3418 17.21684 17.21684 0 010 21.55615 12.01367 12.01367 0 01-9.42871 4.3418H261.58073V409.51025zm0 22.76612a5.79976 5.79976 0 004.62695-2.09522 9.51047 9.51047 0 000-11.10205 5.80273 5.80273 0 00-4.62695-2.09521h-3.92676v15.29248zM125.31849 461.101v5.19188h-5.66492v22.339h-4.1369v-22.339H109.882V461.101zM144.20293 485.03322a9.26756 9.26756 0 01-15.45214 0 17.92406 17.92406 0 010-20.3336 9.26833 9.26833 0 0115.45214 0 17.8563 17.8563 0 010 20.3336zm-12.55975-3.69685a5.85852 5.85852 0 009.65173 0 11.74491 11.74491 0 000-12.95918 5.83276 5.83276 0 00-9.65173 0 11.75014 11.75014 0 000 12.95918zM158.08119 489.18262a7.27009 7.27009 0 01-5.75455-2.59594 10.26443 10.26443 0 01-2.24825-6.961V461.101h4.10668v18.092a5.576 5.576 0 00.94432 3.42147 4.09152 4.09152 0 005.90465 0 5.576 5.576 0 00.94432-3.42147V461.101h4.13586v18.52466a10.26927 10.26927 0 01-2.2472 6.961A7.305 7.305 0 01158.08119 489.18262zM179.90285 489.18262a9.39873 9.39873 0 01-7.82353-4.12951 18.38119 18.38119 0 010-20.39266 9.41145 9.41145 0 017.82353-4.10961 8.77486 8.77486 0 015.2605 1.7499 11.60735 11.60735 0 013.76167 4.73932l-3.56676 2.71343a6.6745 6.6745 0 00-2.218-2.89059 5.38775 5.38775 0 00-3.23739-1.04248 5.86 5.86 0 00-4.93114 2.51761 12.24558 12.24558 0 000 13.01761 5.85842 5.85842 0 004.93114 2.51761 5.44916 5.44916 0 003.252-1.04248 6.44232 6.44232 0 002.20343-2.85142l3.56676 2.714a11.648 11.648 0 01-3.74708 4.73871A8.7444 8.7444 0 01179.90285 489.18262zM203.52352 461.101h4.10667v27.53087h-4.10667V477.22614h-7.7933v11.40571h-4.1369V461.101h4.1369v10.9339h7.7933zM211.64618 461.101h4.1369v27.53087h-4.1369zM231.93878 461.101h4.1369v27.53087h-3.14776l-8.992-16.83319v16.83319h-4.1369V461.101h3.14776l8.992 16.794zM260.68445 473.84383V475.968a15.00571 15.00571 0 01-2.8778 9.557 9.034 9.034 0 01-7.4337 3.65769 9.76253 9.76253 0 01-8.04763-4.1494 16.11272 16.11272 0 01-3.19257-10.12764 16.36192 16.36192 0 013.16235-10.18607 9.51439 9.51439 0 017.83812-4.16867 8.97312 8.97312 0 015.36577 1.7499 11.66434 11.66434 0 013.77731 4.66038l-3.53758 2.67426a6.53844 6.53844 0 00-2.26284-2.75259 5.73732 5.73732 0 00-3.37185-1.06237 5.91775 5.91775 0 00-4.93113 2.57667 10.54026 10.54026 0 00-1.93348 6.50849 10.19661 10.19661 0 001.9637 6.43079 6.25226 6.25226 0 005.2 2.53688 5.76594 5.76594 0 003.97222-1.39618 7.13052 7.13052 0 002.143-3.83486h-6.35492v-4.79838zM283.884 466.29286H275.4914v6.52839h8.1529v5.19187h-8.1529v10.61873h-4.1369V461.101H283.884zM299.59257 488.63185l-1.2591-4.95565H289.97l-1.2591 4.95565h-4.46627l7.34407-27.53087h5.126l7.37325 27.53087zm-8.304-10.0288h5.7556l-2.8778-11.24844zM315.44808 489.18262a9.39872 9.39872 0 01-7.82352-4.12951 18.38119 18.38119 0 010-20.39266 9.41144 9.41144 0 017.82352-4.10961 8.77489 8.77489 0 015.26051 1.7499 11.60743 11.60743 0 013.76167 4.73932l-3.56676 2.71343a6.67458 6.67458 0 00-2.218-2.89059 5.38778 5.38778 0 00-3.2374-1.04248A5.86 5.86 0 00310.517 468.338a12.24558 12.24558 0 000 13.01761 5.85841 5.85841 0 004.93113 2.51761 5.44919 5.44919 0 003.252-1.04248 6.44239 6.44239 0 002.20343-2.85142l3.56676 2.714a11.64815 11.64815 0 01-3.74708 4.73871A8.74443 8.74443 0 01315.44808 489.18262zM331.27545 483.4406h8.8429v5.19125h-12.9798V461.101h12.82971v5.19188h-8.69281V472.153h7.94339v5.11231h-7.94339z"/><path fill="#fff" d="M146.94727 134.0415a13.55362 13.55362 0 110-27.10449 13.34338 13.34338 0 016.47851 1.61914 12.266 12.266 0 014.69141 4.41211l-5.1377 2.97852a5.87251 5.87251 0 00-2.458-2.36426 7.59015 7.59015 0 00-3.57421-.83789 7.361 7.361 0 00-5.52832 2.12207 8.68117 8.68117 0 000 11.24414 7.361 7.361 0 005.52832 2.12207 7.55967 7.55967 0 003.59277-.85645 5.7853 5.7853 0 002.43945-2.3457l5.1377 2.97852a11.97855 11.97855 0 01-4.6543 4.41211A13.41369 13.41369 0 01146.94727 134.0415zM181.2002 133.52l-1.30274-4.0957H170.2168l-1.30274 4.0957h-6.51562l8.86133-26.0625h7.59472l8.86133 26.0625zm-9.19629-9.68066h6.10644l-3.05273-9.56836zM210.01855 131.62158a11.99 11.99 0 01-14.44628 0 8.136 8.136 0 01-2.82911-6.51562V107.45752h5.957v17.12695q0 3.64893 4.0957 3.64844 4.09423 0 4.0957-3.64844V107.45752h5.957V125.106A8.1367 8.1367 0 01210.01855 131.62158zM238.35156 107.45752v5.73437h-6.70117V133.52h-5.957V113.19189h-6.70215v-5.73437zM244.68164 107.45752h5.957V133.52h-5.957zM280.87012 130.13232a13.75493 13.75493 0 113.94629-9.64355A13.14192 13.14192 0 01280.87012 130.13232zm-15.02344-4.05859a7.87594 7.87594 0 0010.835 0 8.25037 8.25037 0 000-11.16992 7.87594 7.87594 0 00-10.835 0 8.2504 8.2504 0 000 11.16992zM306.41016 107.45752h5.957V133.52h-4.46778l-10.05175-14.14844V133.52h-5.957v-26.0625h4.46777L306.41016 121.606z"/><circle cx="225" cy="286.01" r="99.791" fill="#fffae6"/><g clip-path="url(#a)"><path d="M200.72439,241.646s2.7395-8.02284,7.4358-10.371,5.87036-3.91357,5.87036-3.91357.39136,4.50061,0,5.67469,2.73951-2.73951,4.10926-5.67469c0,0,9.39259.97839,10.958-10.56666,0,0,14.48024-1.76112,16.82839,4.10925s5.08765,17.02407,4.69629,20.742c0,0,3.13086,2.93518,3.7179-14.28456,0,0,.587-4.6963,2.93518-6.066s-5.479-8.60987-5.479-8.60987-.19568-3.52222-1.17408-5.08765-6.4574-2.34815-7.63148-2.73951-1.56543-4.69629-3.52222-4.69629-4.30493.97839-7.04444-2.54383-6.84876,0-6.84876,0a6.21648,6.21648,0,0,1-5.08765.9784c-3.32654-.587-3.52222-2.54383-6.84876.97839s-2.73951,3.91358-6.65309,3.52222-6.066,1.17407-6.26172,4.10926-1.17408,6.4574-3.32654,8.02283-4.10926,5.08766-1.95679,7.4358,2.7395,12.1321,3.13086,15.06728A5.17758,5.17758,0,0,0,200.72439,241.646Z"/><path d="M208.29063 238.90651a6.95473 6.95473 0 014.97325-4.02248 5.4781 5.4781 0 013.39764.43876 5.63237 5.63237 0 012.39147 2.214 15.9415 15.9415 0 00-2.8209-1.00581 8.10369 8.10369 0 00-1.34974-.15715 6.75327 6.75327 0 00-1.3256.11388A9.88672 9.88672 0 00210.937 237.4C210.06556 237.82721 209.20507 238.34123 208.29063 238.90651zM232.033 237.24485a7.14859 7.14859 0 012.42209-1.78921 8.38945 8.38945 0 012.9653-.77992 6.526 6.526 0 013.09525.524 4.80773 4.80773 0 012.27971 2.04514 12.18871 12.18871 0 00-2.66923-.82355 11.13817 11.13817 0 00-2.59964-.11887 22.36677 22.36677 0 00-2.66955.36617C233.9471 236.84136 233.02735 237.049 232.033 237.24485zM214.55236 245.5922c3.14776 0 3.153-4.892 0-4.892-3.14775 0-3.153 4.892 0 4.892zM237.38157 245.78788c3.14775 0 3.153-4.892 0-4.892-3.14775 0-3.153 4.892 0 4.892zM225.18427 318.8844c.64117 9.09912.78851 18.19812.81481 27.29724-.02294 9.09912-.16973 18.19812-.81481 27.29724-.64509-9.09912-.79194-18.19812-.81489-27.29724C224.39575 337.08252 224.54309 327.98352 225.18427 318.8844z"/><path fill="#ce324d" d="M225.55651,238.82186c2.4873,0,2.49142-3.86554,0-3.86554-2.48729,0-2.49141,3.86554,0,3.86554Z"/><path d="M253.48743,237.20264A18.76206,18.76206,0,0,1,256.359,241.573a10.86016,10.86016,0,0,1,1.15234,5.15234,7.01571,7.01571,0,0,1-.68658,2.62378,7.98712,7.98712,0,0,1-1.63587,2.16895,13.6761,13.6761,0,0,1-4.61224,2.68408l.29584-.36353a50.93461,50.93461,0,0,1-1.29578,6.239A59.53254,59.53254,0,0,1,247.6,266.13208a45.76826,45.76826,0,0,1-2.75074,5.76917,31.12658,31.12658,0,0,1-3.81463,5.17187l.1496-.371q-.08534,5.17437-.24354,10.3479l-.01293-.11524a54.522,54.522,0,0,1,1.07244,11.51868,37.10983,37.10983,0,0,1-1.7323,11.39465,23.324,23.324,0,0,1-2.47021,5.23169,18.22574,18.22574,0,0,1-3.90558,4.2793,22.62665,22.62665,0,0,1-16.57269,4.05017,12.37694,12.37694,0,0,1-5.44733-2.2843,12.06137,12.06137,0,0,1-3.6286-4.708,20.03749,20.03749,0,0,1-1.50751-5.69873,42.91719,42.91719,0,0,1,.35114-11.6272,67.90118,67.90118,0,0,1,2.68786-11.28869l-.03686.21948.02264-11.41992.12488.38293a40.90387,40.90387,0,0,1-3.20917-5.34289,59.17444,59.17444,0,0,1-2.46881-5.68787,70.32122,70.32122,0,0,1-3.3078-11.90649l.20838.2915L199.09723,253.03c-.61554-.51636-1.25061-1.01563-1.8186-1.58472a8.42042,8.42042,0,0,1-2.30665-4.2229,7.33434,7.33434,0,0,1,.84729-4.68554,12.73158,12.73158,0,0,1,2.96778-3.67994l.08258.09912a12.509,12.509,0,0,0-2.75061,3.72828,6.89628,6.89628,0,0,0-.61707,4.43725,7.99539,7.99539,0,0,0,2.26953,3.83423c.55268.52051,1.17487.97852,1.77106,1.45166l1.97186,1.20068.16919.10328.03937.18872c.41174,1.97583.95349,3.94946,1.52954,5.896q.879,2.92091,1.99372,5.7583a57.993,57.993,0,0,0,2.52026,5.52625,46.67408,46.67408,0,0,0,3.1687,5.13806l.12463.17688.00037.2063.02264,11.41992.00019.10449-.03711.11536a77.02652,77.02652,0,0,0-2.66022,11.05054,41.70472,41.70472,0,0,0-.463,11.28027,20.13032,20.13032,0,0,0,1.3363,5.3988,11.01383,11.01383,0,0,0,3.21979,4.3833,11.46155,11.46155,0,0,0,4.99689,2.21705,21.93347,21.93347,0,0,0,16.12726-3.58387,18.71933,18.71933,0,0,0,6.2774-9.26831,34.67015,34.67015,0,0,0,1.5332-11.26587,54.22767,54.22767,0,0,0-1.38159-11.30127l-.01282-.05481-.00018-.06079q-.01712-5.176.055-10.3507l.00257-.20777.14715-.16357a36.16313,36.16313,0,0,0,6.37427-10.58252,59.95382,59.95382,0,0,0,3.38324-12.01441l.04883-.28051.24725-.08326a12.86761,12.86761,0,0,0,4.39966-2.39233,7.26493,7.26493,0,0,0,1.53748-1.92236,6.36543,6.36543,0,0,0,.68615-2.36328,10.37063,10.37063,0,0,0-.89721-4.94581,20.146,20.146,0,0,0-2.61316-4.44311Z"/><path d="M201.31142 253.97374c-12.32791-6.84871-2.48294-15.06732-2.48294-15.06732l7.10071-5.99614c-3.52678-14.31981-7.02252-20.39121-8.98667-16.29441 0 0-41.22009 40.55508 13.24469 59.66954C203.67316 267.13633 201.31142 253.97374 201.31142 253.97374zM257.27551 221.29557c-1.83474-3.377-4.35912 4.70433-6.78655 16.03922l2.94974-.08991s10.29417 11.83687-3.0119 16.53338a55.08723 55.08723 0 01-5.90534 17.54713c-1.06378 7.01526-1.72606 11.88066-1.72606 11.88066C302.75581 261.70444 257.27551 221.29557 257.27551 221.29557z"/><path fill="#f8a037" d="M198.58426 247.73651l-3.479 7.52887 2.57549 1.68979.90349-1.68979zM252.68529 248.5458l3.479 7.52887-2.5755 1.68978-.90349-1.68978z"/><path fill="#ffc74a" d="M312.31817,391.93575s-4.81832-66.39823-24.19053-76.96489-35.80924-17.41543-35.80924-17.41543l-11.83858-11.54505-.927,14.52a14.32494,14.32494,0,0,1-4.4676,9.50892l-9.37916,8.84516h-.52181l-9.37916-8.84516a14.325,14.325,0,0,1-4.4676-9.50892l-.927-14.52-11.83857,11.54505s-16.437,6.84876-35.80924,17.41543S133.692,391.93575,133.692,391.93575"/><polygon points="168.437 339.235 168.437 376.414 165.698 383.85 168.437 339.235"/><polygon points="282.127 339.235 282.127 376.414 279.387 383.85 282.127 339.235"/><path fill="#f94b58" d="M159.834,405.19719s52.79763-88.02745,92.48439-107.64176c0,0,19.886,6.10456,24.9158,11.68375,0,0-8.16,87.14443-21.72807,111.26555"/><g clip-path="url(#b)"><path fill="#956024" d="M149.30467 287.109c3.41605 0 3.42171-5.30894 0-5.30894-3.416 0-3.42171 5.30894 0 5.30894zM165.41108 287.109c3.41605 0 3.42171-5.30894 0-5.30894-3.416 0-3.4217 5.30894 0 5.30894zM181.5175 287.109c3.416 0 3.42171-5.30894 0-5.30894-3.41605 0-3.42171 5.30894 0 5.30894zM197.62392 287.109c3.41605 0 3.42171-5.30894 0-5.30894-3.416 0-3.42171 5.30894 0 5.30894zM149.30467 319.32187c3.41605 0 3.42171-5.30894 0-5.30894-3.416 0-3.42171 5.30894 0 5.30894zM165.41108 319.32187c3.41605 0 3.42171-5.30894 0-5.30894-3.416 0-3.4217 5.30894 0 5.30894zM181.5175 319.32187c3.416 0 3.42171-5.30894 0-5.30894-3.41605 0-3.42171 5.30894 0 5.30894zM197.62392 319.32187c3.41605 0 3.42171-5.30894 0-5.30894-3.416 0-3.42171 5.30894 0 5.30894zM158.00213 303.21545c3.41605 0 3.42171-5.30894 0-5.30894-3.416 0-3.4217 5.30894 0 5.30894zM174.10855 303.21545c3.416 0 3.42171-5.30894 0-5.30894-3.41605 0-3.42171 5.30894 0 5.30894zM190.215 303.21545c3.41605 0 3.4217-5.30894 0-5.30894-3.416 0-3.42171 5.30894 0 5.30894zM206.32138 303.21545c3.416 0 3.42171-5.30894 0-5.30894-3.41605 0-3.42171 5.30894 0 5.30894zM158.00213 335.42828c3.41605 0 3.42171-5.30894 0-5.30894-3.416 0-3.4217 5.30894 0 5.30894zM174.10855 335.42828c3.416 0 3.42171-5.30894 0-5.30894-3.41605 0-3.42171 5.30894 0 5.30894zM190.215 335.42828c3.41605 0 3.4217-5.30894 0-5.30894-3.416 0-3.42171 5.30894 0 5.30894zM206.32138 335.42828c3.416 0 3.42171-5.30894 0-5.30894-3.41605 0-3.42171 5.30894 0 5.30894zM149.30467 351.5347c3.41605 0 3.42171-5.30894 0-5.30894-3.416 0-3.42171 5.30894 0 5.30894zM165.41108 351.5347c3.41605 0 3.42171-5.30894 0-5.30894-3.416 0-3.4217 5.30894 0 5.30894zM181.5175 351.5347c3.416 0 3.42171-5.30894 0-5.30894-3.41605 0-3.42171 5.30894 0 5.30894zM197.62392 351.5347c3.41605 0 3.42171-5.30894 0-5.30894-3.416 0-3.42171 5.30894 0 5.30894zM149.30467 383.74753c3.41605 0 3.42171-5.30894 0-5.30894-3.416 0-3.42171 5.30894 0 5.30894zM165.41108 383.74753c3.41605 0 3.42171-5.30894 0-5.30894-3.416 0-3.4217 5.30894 0 5.30894zM181.5175 383.74753c3.416 0 3.42171-5.30894 0-5.30894-3.41605 0-3.42171 5.30894 0 5.30894zM197.62392 383.74753c3.41605 0 3.42171-5.30894 0-5.30894-3.416 0-3.42171 5.30894 0 5.30894zM158.00213 367.64112c3.41605 0 3.42171-5.30894 0-5.30894-3.416 0-3.4217 5.30894 0 5.30894zM174.10855 367.64112c3.416 0 3.42171-5.30894 0-5.30894-3.41605 0-3.42171 5.30894 0 5.30894zM190.215 367.64112c3.41605 0 3.4217-5.30894 0-5.30894-3.416 0-3.42171 5.30894 0 5.30894zM206.32138 367.64112c3.416 0 3.42171-5.30894 0-5.30894-3.41605 0-3.42171 5.30894 0 5.30894zM158.00213 399.854c3.41605 0 3.42171-5.30894 0-5.30894-3.416 0-3.4217 5.30894 0 5.30894zM174.10855 399.854c3.416 0 3.42171-5.30894 0-5.30894-3.41605 0-3.42171 5.30894 0 5.30894zM190.215 399.854c3.41605 0 3.4217-5.30894 0-5.30894-3.416 0-3.42171 5.30894 0 5.30894zM206.32138 399.854c3.416 0 3.42171-5.30894 0-5.30894-3.41605 0-3.42171 5.30894 0 5.30894zM213.73033 287.109c3.416 0 3.42171-5.30894 0-5.30894-3.41605 0-3.4217 5.30894 0 5.30894zM213.73033 319.32187c3.416 0 3.42171-5.30894 0-5.30894-3.41605 0-3.4217 5.30894 0 5.30894zM222.4278 303.21545c3.41605 0 3.42171-5.30894 0-5.30894-3.416 0-3.42171 5.30894 0 5.30894zM222.4278 335.42828c3.41605 0 3.42171-5.30894 0-5.30894-3.416 0-3.42171 5.30894 0 5.30894zM213.73033 351.5347c3.416 0 3.42171-5.30894 0-5.30894-3.41605 0-3.4217 5.30894 0 5.30894zM213.73033 383.74753c3.416 0 3.42171-5.30894 0-5.30894-3.41605 0-3.4217 5.30894 0 5.30894zM222.4278 367.64112c3.41605 0 3.42171-5.30894 0-5.30894-3.416 0-3.42171 5.30894 0 5.30894zM222.4278 399.854c3.41605 0 3.42171-5.30894 0-5.30894-3.416 0-3.42171 5.30894 0 5.30894zM229.83675 287.109c3.41605 0 3.42171-5.30894 0-5.30894-3.416 0-3.42171 5.30894 0 5.30894zM229.83675 319.32187c3.41605 0 3.42171-5.30894 0-5.30894-3.416 0-3.42171 5.30894 0 5.30894zM238.53421 303.21545c3.416 0 3.42171-5.30894 0-5.30894-3.41605 0-3.4217 5.30894 0 5.30894zM238.53421 335.42828c3.416 0 3.42171-5.30894 0-5.30894-3.41605 0-3.4217 5.30894 0 5.30894zM229.83675 351.5347c3.41605 0 3.42171-5.30894 0-5.30894-3.416 0-3.42171 5.30894 0 5.30894zM229.83675 383.74753c3.41605 0 3.42171-5.30894 0-5.30894-3.416 0-3.42171 5.30894 0 5.30894zM238.53421 367.64112c3.416 0 3.42171-5.30894 0-5.30894-3.41605 0-3.4217 5.30894 0 5.30894zM238.53421 399.854c3.416 0 3.42171-5.30894 0-5.30894-3.41605 0-3.4217 5.30894 0 5.30894zM245.94317 287.109c3.416 0 3.4217-5.30894 0-5.30894-3.41605 0-3.42171 5.30894 0 5.30894zM245.94317 319.32187c3.416 0 3.4217-5.30894 0-5.30894-3.41605 0-3.42171 5.30894 0 5.30894zM254.64063 303.21545c3.416 0 3.42171-5.30894 0-5.30894-3.416 0-3.42171 5.30894 0 5.30894zM254.64063 335.42828c3.416 0 3.42171-5.30894 0-5.30894-3.416 0-3.42171 5.30894 0 5.30894zM245.94317 351.5347c3.416 0 3.4217-5.30894 0-5.30894-3.41605 0-3.42171 5.30894 0 5.30894zM245.94317 383.74753c3.416 0 3.4217-5.30894 0-5.30894-3.41605 0-3.42171 5.30894 0 5.30894zM254.64063 367.64112c3.416 0 3.42171-5.30894 0-5.30894-3.416 0-3.42171 5.30894 0 5.30894zM254.64063 399.854c3.416 0 3.42171-5.30894 0-5.30894-3.416 0-3.42171 5.30894 0 5.30894zM262.04958 287.109c3.416 0 3.42171-5.30894 0-5.30894-3.416 0-3.42171 5.30894 0 5.30894zM262.04958 319.32187c3.416 0 3.42171-5.30894 0-5.30894-3.416 0-3.42171 5.30894 0 5.30894zM270.74705 303.21545c3.416 0 3.42171-5.30894 0-5.30894-3.416 0-3.42171 5.30894 0 5.30894zM270.74705 335.42828c3.416 0 3.42171-5.30894 0-5.30894-3.416 0-3.42171 5.30894 0 5.30894zM262.04958 351.5347c3.416 0 3.42171-5.30894 0-5.30894-3.416 0-3.42171 5.30894 0 5.30894zM262.04958 383.74753c3.416 0 3.42171-5.30894 0-5.30894-3.416 0-3.42171 5.30894 0 5.30894zM270.74705 367.64112c3.416 0 3.42171-5.30894 0-5.30894-3.416 0-3.42171 5.30894 0 5.30894zM270.74705 399.854c3.416 0 3.42171-5.30894 0-5.30894-3.416 0-3.42171 5.30894 0 5.30894zM278.156 287.109c3.416 0 3.42171-5.30894 0-5.30894-3.416 0-3.42171 5.30894 0 5.30894zM278.156 319.32187c3.416 0 3.42171-5.30894 0-5.30894-3.416 0-3.42171 5.30894 0 5.30894zM286.85346 303.21545c3.41605 0 3.42171-5.30894 0-5.30894-3.416 0-3.4217 5.30894 0 5.30894zM286.85346 335.42828c3.41605 0 3.42171-5.30894 0-5.30894-3.416 0-3.4217 5.30894 0 5.30894zM278.156 351.5347c3.416 0 3.42171-5.30894 0-5.30894-3.416 0-3.42171 5.30894 0 5.30894zM278.156 383.74753c3.416 0 3.42171-5.30894 0-5.30894-3.416 0-3.42171 5.30894 0 5.30894zM286.85346 367.64112c3.41605 0 3.42171-5.30894 0-5.30894-3.416 0-3.4217 5.30894 0 5.30894zM286.85346 399.854c3.41605 0 3.42171-5.30894 0-5.30894-3.416 0-3.4217 5.30894 0 5.30894zM294.26242 287.109c3.416 0 3.4217-5.30894 0-5.30894-3.41605 0-3.42171 5.30894 0 5.30894zM294.26242 319.32187c3.416 0 3.4217-5.30894 0-5.30894-3.41605 0-3.42171 5.30894 0 5.30894zM302.95988 303.21545c3.416 0 3.42171-5.30894 0-5.30894-3.416 0-3.42171 5.30894 0 5.30894zM302.95988 335.42828c3.416 0 3.42171-5.30894 0-5.30894-3.416 0-3.42171 5.30894 0 5.30894zM294.26242 351.5347c3.416 0 3.4217-5.30894 0-5.30894-3.41605 0-3.42171 5.30894 0 5.30894zM294.26242 383.74753c3.416 0 3.4217-5.30894 0-5.30894-3.41605 0-3.42171 5.30894 0 5.30894zM302.95988 367.64112c3.416 0 3.42171-5.30894 0-5.30894-3.416 0-3.42171 5.30894 0 5.30894zM302.95988 399.854c3.416 0 3.42171-5.30894 0-5.30894-3.416 0-3.42171 5.30894 0 5.30894zM310.36883 287.109c3.416 0 3.42171-5.30894 0-5.30894-3.416 0-3.42171 5.30894 0 5.30894zM310.36883 319.32187c3.416 0 3.42171-5.30894 0-5.30894-3.416 0-3.42171 5.30894 0 5.30894zM319.0663 303.21545c3.416 0 3.4217-5.30894 0-5.30894-3.416 0-3.42171 5.30894 0 5.30894zM319.0663 335.42828c3.416 0 3.4217-5.30894 0-5.30894-3.416 0-3.42171 5.30894 0 5.30894zM310.36883 351.5347c3.416 0 3.42171-5.30894 0-5.30894-3.416 0-3.42171 5.30894 0 5.30894zM310.36883 383.74753c3.416 0 3.42171-5.30894 0-5.30894-3.416 0-3.42171 5.30894 0 5.30894zM319.0663 367.64112c3.416 0 3.4217-5.30894 0-5.30894-3.416 0-3.42171 5.30894 0 5.30894zM319.0663 399.854c3.416 0 3.4217-5.30894 0-5.30894-3.416 0-3.42171 5.30894 0 5.30894z"/></g><path d="M225.97961 247.17578c-.22229 1.87842-.71075 3.54907-1.01 5.19922a9.18468 9.18468 0 00-.20257 2.35767 2.46866 2.46866 0 001.21258 1.94262 2.15062 2.15062 0 01-1.44964-.33862 2.68252 2.68252 0 01-.977-1.27856 5.45969 5.45969 0 01-.16632-2.97779 9.38715 9.38715 0 01.93823-2.65234A8.175 8.175 0 01225.97961 247.17578zM218.00827 262.90351s8.20411 11.96688 16.20577.434zM240.66583 275.76743c-3.58309 4.06082-7.11105 6.25544-10.42094 7.226 0 0 8.35491.91593 10.42094-1.0555zM210.4472 275.52169a25.05624 25.05624 0 0010.53956 7.15408s-9.194 2.23965-10.53956-.89143z"/><path fill="#fffae6" d="M272.26531,415.70625c-11.37167-12.97374-51.4071-114.8071-51.4071-114.8071-1.22909-7.706,5.82536-16.64694,5.67844-18.73433a61.35711,61.35711,0,0,0-1.85486-7.82373c-4.6451-11.07078-1.16085-9.4233-1.16085-9.4233s9.02081,9.176,7.573,18.27271l2.17467-11.7549s-6.331-8.27424-6.20364-13.81462c0,0,.50889-2.16609,1.77623-2.241,0,0,3.16728,3.6456,3.60232,4.1623,0,0-4.17142-7.16561.90552-7.84155l3.57639,3.40328s-.02888-2.64892,2.80376-.28345c0,0,9.69369,8.24418,10.40046,11.753.79125,3.92817-2.60459,35.1034-3.71131,37.78166,0,0,36.32135,62.30374,48.02048,70.87516"/><path d="M272.22894,415.738a45.44569,45.44569,0,0,1-4.38031-6.54639q-1.97076-3.41253-3.76715-6.92041c-2.4284-4.6582-4.66784-9.40967-6.89691-14.16333-4.42194-9.5249-8.655-19.13477-12.80859-28.77747-4.17743-9.63293-8.168-19.34472-12.10273-29.07775q-5.90688-14.59827-11.64569-29.2627l-.01062-.02722-.00354-.02466a16.4254,16.4254,0,0,1,.70911-6.99329,39.49218,39.49218,0,0,1,2.696-6.46887l1.57532-3.11218a10.63451,10.63451,0,0,0,.6626-1.58057,3.33034,3.33034,0,0,0-.02545-1.64746,67.27953,67.27953,0,0,0-1.695-6.7511l.00543.01526c-.33038-.83508-.69525-1.65576-.99731-2.50305-.32306-.83874-.60742-1.69287-.874-2.55395a14.43687,14.43687,0,0,1-.55554-2.66248,3.13991,3.13991,0,0,1,.13715-1.40942.96706.96706,0,0,1,.55279-.57349,1.14649,1.14649,0,0,1,.7959.052l.02808.01123.02527.02661a34.17591,34.17591,0,0,1,3.22314,3.99244,32.34814,32.34814,0,0,1,2.5979,4.42553,23.79439,23.79439,0,0,1,1.68469,4.86243,16.12712,16.12712,0,0,1,.18189,5.162l-.49384-.085,2.12763-11.76331.0564.23535a45.80151,45.80151,0,0,1-4.10767-6.54748,24.75459,24.75459,0,0,1-1.52216-3.57691,12.36912,12.36912,0,0,1-.7041-3.87988l.00031-.0398.0094-.03588a5.2444,5.2444,0,0,1,.631-1.5105,1.99621,1.99621,0,0,1,1.48022-1.02686l.183-.01513.12738.14575,3.62494,4.15063-.66108.46558a13.09061,13.09061,0,0,1-1.65088-4.625,3.70985,3.70985,0,0,1,.51276-2.58008,3.45459,3.45459,0,0,1,2.33606-1.27783l.20056-.03565.162.15332,3.58325,3.39576-.76251.33178a2.26386,2.26386,0,0,1,.282-1.105,1.25783,1.25783,0,0,1,1.16657-.61206,3.62894,3.62894,0,0,1,1.85333.88428c.97363.78711,1.8385,1.59033,2.741,2.4082a70.84728,70.84728,0,0,1,5.12658,5.154,22.94851,22.94851,0,0,1,2.23529,2.94043l.44861.85206a5.93876,5.93876,0,0,1,.298.96923l.09637.965.01178.92c-.00269,2.44178-.14978,4.84644-.322,7.25415-.35114,4.81226-.83686,9.60682-1.37555,14.39673-.27167,2.39478-.56067,4.78761-.88452,7.1781-.16272,1.19568-.33063,2.38977-.52326,3.585-.10363.59827-.18164,1.19312-.31,1.79468l-.17792.90027-.26789.949-.0296-.43481q5.42605,9.2439,10.973,18.42664,5.553,9.17467,11.2909,18.23535c3.83673,6.03186,7.74566,12.01953,11.83545,17.88086,2.04651,2.92895,4.11486,5.84448,6.30792,8.66467a47.80194,47.80194,0,0,0,7.21741,7.876l-.05713.078a47.945,47.945,0,0,1-7.38379-7.77747c-2.24127-2.792-4.38349-5.66162-6.45728-8.578-4.15075-5.8313-8.11944-11.78772-12.01605-17.78857q-5.84362-9.00275-11.47034-18.14258-5.64908-9.12635-11.08874-18.38013l-.10132-.17309.07172-.262.21606-.79016.17029-.87121c.12262-.57605.20074-1.17591.30163-1.76355.18854-1.18164.35407-2.37183.514-3.56165.31861-2.38074.60315-4.76843.87036-7.15784.53241-4.77868,1.00129-9.56762,1.3548-14.35864.1817-2.39258.33685-4.79736.34931-7.16968l-.00708-.88513-.07752-.83215a5.06893,5.06893,0,0,0-.22717-.75147l-.39-.74633a22.07484,22.07484,0,0,0-2.121-2.8086,69.9524,69.9524,0,0,0-5.03375-5.10156c-.87683-.80249-1.777-1.64014-2.67236-2.36963a2.94118,2.94118,0,0,0-1.33338-.69922.328.328,0,0,0-.34649.17139,1.42315,1.42315,0,0,0-.15534.62695l-.01343,1.04785-.74926-.71606-3.56922-3.41065.36225.11768a2.59558,2.59558,0,0,0-1.73786.90381,2.89853,2.89853,0,0,0-.3775,1.99267,12.33625,12.33625,0,0,0,1.50232,4.30371l1.81781,3.35572-2.47888-2.89038-3.57947-4.17359.31.13037c-.6861.042-1.2165,1.09107-1.441,1.94458l.00964-.07519a11.69484,11.69484,0,0,0,.6355,3.64648,24.08879,24.08879,0,0,0,1.451,3.49439,45.222,45.222,0,0,0,3.98675,6.48376l.08026.11-.0238.12573-2.22162,11.746-.49383-.085a15.65118,15.65118,0,0,0-.14649-4.98938,23.34662,23.34662,0,0,0-1.62018-4.7699,31.92276,31.92276,0,0,0-2.53576-4.382,33.81432,33.81432,0,0,0-3.15583-3.96141l.053.03758a.79728.79728,0,0,0-.51739-.04029.607.607,0,0,0-.33868.37061,2.83961,2.83961,0,0,0-.11634,1.23779,14.13508,14.13508,0,0,0,.52613,2.59424c.25811.85254.53442,1.70068.8504,2.53674.29449.84314.65326,1.66382.97674,2.49707l.00428.01111.00128.00452c.63067,2.24475,1.28448,4.479,1.72577,6.78113a3.65551,3.65551,0,0,1,.03161,1.79724,10.904,10.904,0,0,1-.67041,1.64087l-1.55267,3.12964a39.10121,39.10121,0,0,0-2.61786,6.423A15.972,15.972,0,0,0,221.103,300.86l-.014-.0514q5.84344,14.61768,11.86365,29.16614L245.09033,359.026c4.08148,9.66821,8.24231,19.30347,12.59137,28.85278q3.26376,7.16107,6.74829,14.21546,1.7352,3.53026,3.63062,6.97693a45.32677,45.32677,0,0,0,4.241,6.60327Z"/><path fill="#fffae6" d="M159.22805,383.84983s38.18169-70.15377,44.72267-91.84235c0,0,1.66717-11.44064-4.15112-17.06775a1.312,1.312,0,0,1-.43659-.96041c.01767-.65707.6164-1.40452,3.83073-.43881,0,0,2.52279,1.221,2.73544,3.426,0,0-.39646-8.45667,1.534-11.66449,1.571-2.61052,4.80273-7.71474,5.95176-9.52507a1.951,1.951,0,0,1,1.703-.90237c.84651.03069,1.66376.58124.86881,2.98334l-2.49975,6.25864,9.702-8.6271a1.63069,1.63069,0,0,1,1.93928-.18123c.67283.44444,1.05,1.50355-.44651,4.004,0,0,3.81977.27783,1.99355,3.96482a26.17527,26.17527,0,0,1-4.33712,6.20583l-.71921,8.01848,6.97224-6.39646a2.13578,2.13578,0,0,1,3.0482.11959,1.44328,1.44328,0,0,1,.28454,1.42425,2.09264,2.09264,0,0,1-.34343.6386l-7.34385,9.8074s-.4675,7.73978-.37765,11.79577c.04009,1.80941-1.25517,8.26917-5.26934,12.01933,0,0-23.51367,103.25542-45.27055,96.57981"/><path d="M159.18561,383.82678c3.99951-7.52282,7.88482-15.10559,11.83209-22.65442q5.88639-11.34172,11.61438-22.76294,5.70492-11.43219,11.14221-22.9895c1.79224-3.86035,3.59088-7.7185,5.2666-11.62842,1.69867-3.90039,3.25971-7.856,4.59369-11.87927l-.01062.04749a30.86,30.86,0,0,0,.16059-5.81568,23.35147,23.35147,0,0,0-1.03986-5.71069,13.1176,13.1176,0,0,0-2.83105-4.97632c-.153-.1842-.32111-.3396-.50861-.57886a1.50526,1.50526,0,0,1-.29645-.82446,1.08818,1.08818,0,0,1,.34833-.8595,1.57556,1.57556,0,0,1,.8045-.333,7.98843,7.98843,0,0,1,3.00037.45251l.02.00562.01526.008a6.60169,6.60169,0,0,1,1.85894,1.45423,3.937,3.937,0,0,1,.99024,2.16381l-.43482.03113a39.835,39.835,0,0,1,.5998-8.90576,12.09494,12.09494,0,0,1,.65155-2.15893,17.96363,17.96363,0,0,1,1.13684-1.93628l2.37317-3.76368,2.34546-3.78051c.20709-.31812.365-.62354.61242-.95215a2.14822,2.14822,0,0,1,.982-.6709,1.98437,1.98437,0,0,1,1.199-.02075,1.2097,1.2097,0,0,1,.814.91553,4.49409,4.49409,0,0,1-.294,2.27978l-.81878,2.06934-1.63776,4.13916-.32245-.22632,7.26141-6.499,1.81537-1.62475a6.19566,6.19566,0,0,1,.9914-.8042,1.908,1.908,0,0,1,1.361-.15405,1.55674,1.55674,0,0,1,1.05926.91089,2.33832,2.33832,0,0,1,.06293,1.34765,8.15575,8.15575,0,0,1-.99408,2.30689l-.20868-.40137a3.8846,3.8846,0,0,1,1.66937.5459,2.18173,2.18173,0,0,1,1.042,1.48218,5.41714,5.41714,0,0,1-.96393,3.26635,26.65319,26.65319,0,0,1-3.87946,5.37134l.09375-.20081-.68231,8.02161-.60693-.29993,5.01935-4.64746,1.25482-1.16186.62738-.58093a2.71043,2.71043,0,0,1,.83856-.5398,2.3877,2.3877,0,0,1,3.29089,1.59,2.41723,2.41723,0,0,1-.6455,1.8789l-1.02167,1.37134-2.04425,2.74219-4.08844,5.48413.09082-.24768q-.176,3.13824-.28424,6.28479l-.074,3.14038-.00537,1.56616.01147.78125a8.03726,8.03726,0,0,1-.0437.84473,21.85534,21.85534,0,0,1-1.7257,6.19946,16.56864,16.56864,0,0,1-3.63392,5.34546l.15-.26086c-2.12116,9.0393-4.49134,18.00366-7.04016,26.92407q-3.81474,13.3808-8.47809,26.50439A210.53077,210.53077,0,0,1,192.7251,386.079a65.4503,65.4503,0,0,1-7.53192,11.70789,21.54859,21.54859,0,0,1-5.18268,4.65087,8.119,8.119,0,0,1-6.70551,1.09815l.02832-.09241a7.95883,7.95883,0,0,0,6.56183-1.1947,21.28137,21.28137,0,0,0,5.03217-4.68347,68.81041,68.81041,0,0,0,7.3341-11.72608,209.88851,209.88851,0,0,0,10.56641-25.64953c3.03809-8.74585,5.72272-17.61145,8.27832-26.51136,2.52942-8.90625,4.88324-17.87219,6.98315-26.88232l.03565-.15283.1145-.1084a15.57185,15.57185,0,0,0,3.4212-5.00159,20.9244,20.9244,0,0,0,1.67115-5.89135,7.20416,7.20416,0,0,0,.04229-.72791l-.00836-.79431.01215-1.58533.08789-3.16028q.12066-3.15691.312-6.30688l.00836-.13818.08264-.10987,4.1117-5.4668,2.05585-2.73339,1.02838-1.36634a1.583,1.583,0,0,0,.49762-1.23205,1.32918,1.32918,0,0,0-.79871-.939,1.76607,1.76607,0,0,0-1.34631-.01562,1.87472,1.87472,0,0,0-.59278.37634l-.63275.57507-1.26544,1.15027-5.06183,4.6012-.69488.63159.08783-.93152.7561-8.015.01074-.114.08313-.08715a26.08606,26.08606,0,0,0,3.82324-5.19727,4.96538,4.96538,0,0,0,.92884-2.88306c-.13373-.95776-1.21851-1.4895-2.1969-1.59521l-.41876-.04517.21-.3562A7.65307,7.65307,0,0,0,225.4,257.0354a1.84746,1.84746,0,0,0-.02874-1.05054,1.05192,1.05192,0,0,0-.72126-.62036,1.41564,1.41564,0,0,0-1.00543.11011,6.17607,6.17607,0,0,0-.89392.728l-1.8258,1.613-7.30323,6.45215-.64276.56763.32019-.79419,1.66175-4.12158c.49633-1.36548,1.34259-2.75855,1.12707-4.135-.102-.69287-.93506-.875-1.57269-.65943a1.81748,1.81748,0,0,0-.8335.56177c-.20154.26123-.39581.61255-.59411.91455l-2.36829,3.76319-2.34058,3.78a17.94406,17.94406,0,0,0-1.09942,1.90332,11.75437,11.75437,0,0,0-.613,2.09777,39.47542,39.47542,0,0,0-.51929,8.81031l-.43481.03112a3.493,3.493,0,0,0-.89856-1.90637,6.16831,6.16831,0,0,0-1.723-1.32727l.03485.01355a7.63855,7.63855,0,0,0-2.79138-.41357c-.45069.06457-.74488.28662-.716.68213.00727.40478.31684.666.67377,1.0614a13.66112,13.66112,0,0,1,2.99414,5.15625,23.81837,23.81837,0,0,1,1.11365,5.84814,31.43964,31.43964,0,0,1-.12219,5.95337l-.00281.02368-.00788.0243c-1.317,4.07556-2.857,8.06115-4.53094,11.98461-1.65167,3.93433-3.42438,7.81189-5.19116,11.69263-3.62177,7.719-7.44214,15.33923-11.28858,22.94385q-5.81011,11.38678-11.788,22.68445c-3.96112,7.54455-8.08215,15.0039-12.19763,22.46447Z"/><path d="M205.92919,276.96639l-2.47238,4.89128a29.139,29.139,0,0,1,.66838,8.17519l.053.248Z"/><polygon points="213.487 264.117 211.291 266.788 210.718 276.887 209.974 266.288 213.487 264.117"/><polygon points="216.085 275.277 216.465 267.609 224.682 259.312 214.715 267.527 216.085 275.277"/><path d="M199.599 273.405s4.68654 2.28428 1.47278 3.00994c0 0-2.67329-1.47167-2.5389-3.131C198.53284 273.284 198.65007 272.87743 199.599 273.405zM212.60038 257.06226s2.04418 1.44 3.6628-1.30591a1.42465 1.42465 0 00-.29332-1.29925 1.31321 1.31321 0 00-1.78869.01553A5.72809 5.72809 0 00212.60038 257.06226zM227.60265 271.95213s1.4236 2.22083 4.25414.073a1.55384 1.55384 0 00.27463-1.41693 1.39122 1.39122 0 00-1.80475-.6611A6.73594 6.73594 0 00227.60265 271.95213zM221.916 256.62143l1.838-1.70156a1.413 1.413 0 012.13574.26981 1.25321 1.25321 0 01-.22846 1.85691S222.62408 259.38758 221.916 256.62143zM224.59317 259.24637s-1.89644 1.198-1.88557 2.05164.561 1.34305 2.17557.6533 2.11314-2.23032 1.61614-2.754C225.75113 258.40882 224.59317 259.24637 224.59317 259.24637z"/><polygon points="232.443 259.542 240.214 269.303 238.806 280.009 241.248 268.136 232.443 259.542"/><polygon points="236.925 255.104 245.545 266.053 244.455 274.341 246.638 265.398 236.925 255.104"/><path d="M232.62222 250.807l2.82926 2.63159s-1.40371 3.35334-3.86942-.8929c0 0-.49046-1.55346.30457-1.89116A.70366.70366 0 01232.62222 250.807zM228.7154 254.81945l1.96089 2.38657s-.74791 3.301-2.94252-.334c0 0-.7237-2.00366.24727-2.29555A.71.71 0 01228.7154 254.81945zM238.22711 253.09054l2.05146 2.058s-.38051 3.13167-2.7685-.06824c0 0-.8643-1.80383.01087-2.15529A.6698.6698 0 01238.22711 253.09054z"/></g><path fill="#f94b58" d="M225,388.30127a102.29053,102.29053,0,1,1,102.29053-102.291A102.40663,102.40663,0,0,1,225,388.30127Zm0-199.58106a97.29053,97.29053,0,1,0,97.29053,97.29A97.40085,97.40085,0,0,0,225,188.72021Z"/></svg>