<svg xmlns="http://www.w3.org/2000/svg" data-name="Layer 1" viewBox="0 0 450 600"><defs><clipPath id="a"><circle cx="233.443" cy="252.928" r="88.567" fill="none"/></clipPath></defs><rect width="289.218" height="435.083" x="80.203" y="82.458" fill="#f9c746" rx="12.858"/><path fill="#5a2f10" d="M140.29492 390.62891a14.117 14.117 0 110-28.23047 13.78321 13.78321 0 016.80469 1.74023 12.98687 12.98687 0 014.91211 4.67969l-5.99414 3.44141a5.57269 5.57269 0 00-2.30078-2.26172 7.65087 7.65087 0 00-8.66211 1.19922 8.09244 8.09244 0 000 10.63476 7.65726 7.65726 0 008.66211 1.19824 5.50184 5.50184 0 002.30078-2.30078l5.99414 3.48047a12.77984 12.77984 0 01-4.89258 4.69824A13.87455 13.87455 0 01140.29492 390.62891zM161.5625 383.35938h9.32031v6.68945H154.64063V362.97852h6.92187zM180.47266 383.55273h10.48047v6.4961H173.55078V362.97852h17.209v6.459H180.47266v3.751H189.793v6.38086h-9.32031zM211.293 390.04883l-1.16016-3.90528h-9.00976l-1.16016 3.90528h-7.50195l8.93359-27.07031h8.42969l8.93359 27.07031zm-8.39063-9.86133h5.45118l-2.74414-9.20312zM235.81055 362.97852h6.88476v27.07031h-5.33789l-9.55078-13.61133v13.61133h-6.92187V362.97852h5.375l9.55078 13.61328zM271.541 390.04883l-1.43555-4.30371h-9.53125l-1.43359 4.30371h-5.08985l8.36914-23.91211h5.8418l8.4043 23.91211zm-9.46289-8.71094h6.55859l-3.2793-9.76953zM292.959 366.13672h4.71485v23.91211h-3.58594l-10.25-14.6211v14.6211H279.125V366.13672h3.58594l10.248 14.58594zM311.75 366.13672a10.89534 10.89534 0 018.21484 3.44922 12.6234 12.6234 0 010 17.01367 10.89538 10.89538 0 01-8.21484 3.44922h-9.498V366.13672zm0 19.40332a6.623 6.623 0 005.05469-2.06738 8.4054 8.4054 0 000-10.75977 6.623 6.623 0 00-5.05469-2.06738h-4.7832V385.54zM143.82422 411.31836a12.53758 12.53758 0 019.37695 3.88672 14.22733 14.22733 0 010 19.29687 12.534 12.534 0 01-9.37695 3.88672H132.80273V411.31836zm0 20.38086a6.0531 6.0531 0 004.60156-1.877 7.82734 7.82734 0 000-9.9375 6.05934 6.05934 0 00-4.60156-1.876H139.918v13.69043zM160.33594 411.31836h6.92187v27.07031h-6.92187zM180.9082 438.96875a12.90417 12.90417 0 01-7.11523-1.81738 9.59477 9.59477 0 01-3.94336-4.91114l5.916-3.4414a5.37537 5.37537 0 005.33593 3.5957q3.17286 0 3.17188-1.81738 0-1.19824-1.81836-1.9336-.77345-.30908-3.40235-1.04394a14.88228 14.88228 0 01-5.8789-3.03613 6.94092 6.94092 0 01-2.16406-5.43262 7.63394 7.63394 0 012.6875-6.07227 9.89981 9.89981 0 016.709-2.32031 11.463 11.463 0 016.0332 1.58594 10.201 10.201 0 014.02149 4.60156l-5.80078 3.40332a4.35087 4.35087 0 00-4.21485-3.0166 2.9791 2.9791 0 00-1.875.50293 1.55718 1.55718 0 00-.63867 1.27637 1.78111 1.78111 0 00.94727 1.50781 15.95708 15.95708 0 003.69336 1.43164 31.67067 31.67067 0 013.16992 1.082 16.32955 16.32955 0 012.63086 1.4502A5.87772 5.87772 0 01190.5 427a8.21074 8.21074 0 01.69531 3.5 7.50993 7.50993 0 01-2.82226 6.22559A11.65626 11.65626 0 01180.9082 438.96875zM193.86328 411.31836h6.92188v27.07031h-6.92188zM220.12109 411.31836h6.88477v27.07031H221.668l-9.55078-13.6123v13.6123h-6.92188V411.31836h5.375l9.55078 13.61328zM248.08008 418.00879h-9.707V422.418h9.51367v6.68945h-9.51367v9.28125h-6.92188V411.31836h16.62891zM258.56055 431.89258H269.041v6.49609H251.63867V411.31836h17.209v6.459H258.56055v3.75h9.32031v6.38086h-9.32031zM285.35938 438.96875a14.117 14.117 0 110-28.23047 13.78514 13.78514 0 016.80664 1.74024 12.99523 12.99523 0 014.91015 4.67968l-5.99414 3.44141a5.56119 5.56119 0 00-2.30078-2.26172 7.65254 7.65254 0 00-8.66211 1.19824 8.09846 8.09846 0 000 10.63477 7.65254 7.65254 0 008.66211 1.19824 5.47973 5.47973 0 002.30078-2.30078l5.99414 3.48047a12.78348 12.78348 0 01-4.89062 4.69922A13.88745 13.88745 0 01285.35938 438.96875zM318.42383 411.31836v6.69043h-6.68945v20.37988H304.8125V418.00879h-6.69141v-6.69043zM131.08984 482.21875H141.168v4.50977H126.375V462.81445h14.62109v4.50977h-9.90625v5.08984h9.05274v4.44141h-9.05274zM150.52734 486.72852L142.5 462.81445h5.12305l5.84179 18.37891 5.8086-18.37891h5.1582l-8.0625 23.91407zM171.57031 482.21875h10.07813v4.50977h-14.791V462.81445h14.6211v4.50977h-9.90821v5.08984h9.05274v4.44141h-9.05274zM198.2168 486.72852l-4.81641-8.30176H189.8125v8.30176h-4.71289V462.81445h9.56445a7.93049 7.93049 0 017.959 7.92578 7.26983 7.26983 0 01-1.26367 4.11719 7.90462 7.90462 0 01-3.34766 2.85156l5.29492 9.01954zm-8.4043-19.50684V474.293h4.85156a3.00052 3.00052 0 002.28907-1.042 3.58536 3.58536 0 00.957-2.51075 3.52863 3.52863 0 00-.957-2.49414 3.02626 3.02626 0 00-2.28907-1.02441zM224.45313 462.81445l-8.19922 14.58789v9.32618h-4.67969v-9.32618l-8.16406-14.58789h5.32812l5.19336 9.97559 5.19336-9.97559zM242.69531 462.81445v4.50977h-6.45508v19.4043h-4.71484v-19.4043h-6.42187v-4.50977zM259.05859 462.81445h4.67969v23.91407h-4.67969v-9.90723h-8.88281v9.90723h-4.71289V462.81445h4.71289v9.49707h8.88281zM268.31641 462.81445h4.71484v23.91407h-4.71484zM291.44336 462.81445h4.71484v23.91407h-3.58593l-10.25-14.6211v14.6211h-4.71289V462.81445h3.58593l10.248 14.58789zM324.20508 473.88281v1.84571a11.03992 11.03992 0 01-3.2793 8.30078 11.671 11.671 0 01-8.47265 3.17675 12.49062 12.49062 0 01-9.17188-3.60449 11.908 11.908 0 01-3.63867-8.7959 12.33718 12.33718 0 0112.53711-12.46972 12.499 12.499 0 016.11523 1.52051 11.28453 11.28453 0 014.30469 4.04785l-4.03125 2.32422a6.35412 6.35412 0 00-2.58008-2.39258 8.02849 8.02849 0 00-3.8418-.92188 7.54867 7.54867 0 00-5.62109 2.23828 7.72533 7.72533 0 00-2.20312 5.65332 7.50482 7.50482 0 002.23828 5.585 8.07891 8.07891 0 005.92773 2.20312 7.90746 7.90746 0 004.52539-1.21191 6.03609 6.03609 0 002.44336-3.33106h-7.24219v-4.168z"/><circle cx="233.443" cy="252.928" r="88.567" fill="#fffae6"/><rect width="1.66" height="2.076" x="204.517" y="194.014" transform="rotate(-82.079 205.347 195.052)"/><path d="M200.083,195.1582l-4.1211-.57324.22852-1.64453,4.12109.57324Zm-8.24121-1.14648-4.1211-.57324.22852-1.64453,4.12109.57324Zm-8.24121-1.14746-4.1211-.57324.22852-1.64454,4.12109.57325Zm-8.24121-1.14649-4.1211-.57324L171.4668,189.5l4.12109.57324Zm-8.24122-1.14648-4.12109-.57324.22852-1.64453,4.12109.57324ZM158.877,189.4248l-4.12109-.57324.22852-1.64453,4.12109.57324Zm-8.24121-1.14746-4.12109-.57324.22851-1.64453,4.1211.57324Zm-8.24121-1.14648-4.12109-.57324.22851-1.64453,4.1211.57324Zm-8.24121-1.14648-4.12109-.57325.22851-1.64453,4.1211.57324Zm-8.24121-1.14649-4.12109-.57422.22851-1.64453,4.1211.57422Z"/><rect width="1.66" height="2.076" x="115.927" y="181.687" transform="rotate(-82.079 116.757 182.725)"/><rect width="2.076" height="1.662" x="204.31" y="201.3" transform="rotate(-8.244 205.348 202.131)"/><path d="M149.957,211.00879l-.23828-1.64453,3.8916-.56446.23828,1.64454Zm7.7832-1.12988-.23828-1.64453,3.8916-.56446.23829,1.64453Zm7.78321-1.12891-.23828-1.64453,3.8916-.56445.23828,1.64453Zm7.7832-1.12891-.23828-1.64453,3.8916-.56543.23828,1.64453Zm7.7832-1.12988-.23828-1.64453,3.8916-.56445.23829,1.64453Zm7.78321-1.12891-.23828-1.64453,3.8916-.56543.23828,1.64454Zm7.7832-1.12988-.23828-1.64453,3.8916-.56445.23828,1.64453Z"/><rect width="2.076" height="1.662" x="143.881" y="210.07" transform="rotate(-8.244 144.919 210.9)"/><rect width="1.661" height="2.076" x="142.087" y="196.385" transform="rotate(-88.733 142.917 197.422)"/><path d="M182.52832,199.13672l-3.85937-.08594.0371-1.66015,3.85938.08593Zm-7.71875-.17285-3.85937-.08594.0371-1.66016,3.85938.08594Zm-7.71777-.17188-3.85938-.08594.03711-1.66015,3.85938.08594Zm-7.71875-.17187-3.85938-.08692.03711-1.66015,3.85938.08691Zm-7.71778-.17285-3.85937-.08594.03711-1.66016,3.85937.08594Z"/><rect width="1.661" height="2.076" x="186.614" y="197.378" transform="rotate(-88.733 187.444 198.416)"/><rect width="1.661" height="2.077" x="111.572" y="188.616" transform="rotate(-83.981 112.403 189.655)"/><path d="M128.81934,192.2207l-3.86817-.4082.17383-1.65234,3.86816.4082Zm-7.73536-.81543-3.86816-.4082.17383-1.65234,3.86816.4082Z"/><rect width="1.661" height="2.076" x="132.976" y="190.873" transform="rotate(-83.978 133.807 191.91)"/><rect width="2.077" height="1.661" x="107.597" y="208.979" transform="rotate(-9.817 108.636 209.81)"/><path d="M113.74512,209.77051l-.28321-1.63672,3.94434-.68066.2832,1.63671Zm7.88965-1.36133-.28321-1.63672,3.94434-.68164.2832,1.63672Zm7.88964-1.3623-.2832-1.63672,3.94434-.68067.2832,1.63672Zm7.88965-1.36133-.2832-1.63672,3.94434-.68067.2832,1.63672Z"/><rect width="2.076" height="1.661" x="145.147" y="202.498" transform="rotate(-9.817 146.185 203.328)"/><g clip-path="url(#a)"><path fill="#ff5d5c" d="M227.73164,215.618a27.566,27.566,0,0,0-18.404-1.08414c-10.15394,2.96156-9.41355,8.99046-9.41355,8.99046s0,7.50969,10.94722,2.43272l7.03371-.31731s7.86993,2.85579,10.86291,2.64425"/><rect width="20.062" height="17.602" x="228.049" y="214.655" fill="#fac848"/><rect width="12.498" height="5.985" x="232.059" y="202.861" fill="#fff"/><path d="M244.667,208.95605H231.94922V202.751H244.667Zm-12.49707-.2207h12.27637v-5.76367H232.16992Z"/><path fill="#fff" d="M215.9862,202.86113h33.62046a2.20029,2.20029,0,0,0,2.20029-2.20029v-4.44459a2.20029,2.20029,0,0,0-2.20029-2.20029H215.522C214.30677,194.016,214.771,202.86113,215.9862,202.86113Z"/><path d="M215.98621,202.8061c7.36868.03955,14.73736-.54516,22.10606-.42309,3.68434.00024,7.36868.14013,11.053.22241a2.73038,2.73038,0,0,0,1.26518-.13623,1.99036,1.99036,0,0,0,.92131-.81079,2.15881,2.15881,0,0,0,.2834-1.22583l.01407-1.3816c.01543-.92114.0114-1.842.00112-2.76318a2.02049,2.02049,0,0,0-1.34316-1.95288,3.39678,3.39678,0,0,0-1.29867-.10376l-1.38163.03613-2.76326.07544q-2.76326.09192-5.52652.13819-5.52651.09045-11.053.12182-5.52651.02161-11.053-.17261l-1.38162-.06176c-.09175-.00489-.28262-.0105-.293-.01514.05252-.02319.00594-.01953-.0364.04614a1.89845,1.89845,0,0,0-.21711.54395,12.7314,12.7314,0,0,0-.29231,2.68652,18.62345,18.62345,0,0,0,.12576,2.74365,9.79,9.79,0,0,0,.24575,1.34937,4.207,4.207,0,0,0,.2175.64355C215.67039,202.55781,215.7975,202.79316,215.98621,202.8061Zm0,.11011c-.30091-.03272-.41027-.304-.518-.49805a4.32939,4.32939,0,0,1-.237-.65942c-.12521-.44824-.20956-.904-.29019-1.35987-.14915-.91406-.24162-1.83569-.30357-2.76269a13.42744,13.42744,0,0,1,.07739-2.81665,2.44829,2.44829,0,0,1,.23616-.75513.7119.7119,0,0,1,.48108-.37719c.219-.02173.25905-.0149.39735-.02369l1.38162-.06176q5.52654-.19666,11.053-.17237,5.52653.02271,11.053.12183,2.76327.04467,5.52652.13794l2.76326.07544,1.38163.03613a4.22271,4.22271,0,0,1,1.4331.1626,2.3978,2.3978,0,0,1,1.56186,2.32446c-.01027.92114-.01431,1.842.00111,2.76318l.01407,1.3816a2.56552,2.56552,0,0,1-.31073,1.43213,2.42331,2.42331,0,0,1-1.09831,1.00683,3.1894,3.1894,0,0,1-1.44435.24536c-3.68436.08228-7.3687.22193-11.053.22241C230.72357,203.46113,223.35489,202.87666,215.98621,202.91621Z"/><rect width="19.605" height="5.809" x="228.506" y="208.846" fill="#fff" rx="2.2"/><path d="M230.70615,208.791c1.96023.01734,3.92047-.15942,5.8807-.29028a52.64972,52.64972,0,0,1,5.88071-.11255l2.94035.15161a3.26282,3.26282,0,0,1,1.535.313,2.45026,2.45026,0,0,1,1.0943,1.13306,3.11435,3.11435,0,0,1,.243,1.51343,7.95723,7.95723,0,0,1-.04337,1.50976,2.50193,2.50193,0,0,1-2.32669,1.94678c-3.92047.20874-7.84094.283-11.76141.28564-.98012-.02026-1.96024-.01928-2.94036-.05688-.25337-.012-.46261-.00757-.78738-.04077a2.7166,2.7166,0,0,1-.84885-.28125,2.52349,2.52349,0,0,1-1.15741-1.26563,3.07841,3.07841,0,0,1-.16243-1.59546,8.37446,8.37446,0,0,1,.16666-1.50048A2.3936,2.3936,0,0,1,230.70615,208.791Zm0,.10987a2.033,2.033,0,0,0-1.9898,1.67065,8.35346,8.35346,0,0,0,.043,1.42993,2.39016,2.39016,0,0,0,.30315,1.272,1.85035,1.85035,0,0,0,.90492.75073,2.80913,2.80913,0,0,0,1.24095.10083c.98012-.0376,1.96024-.03662,2.94036-.05689,3.92047.00245,7.84094.07666,11.76141.2854a1.91928,1.91928,0,0,0,1.95027-1.43383,7.91912,7.91912,0,0,0,.08026-1.42041,2.50438,2.50438,0,0,0-.22259-1.354,1.92984,1.92984,0,0,0-.968-.8833,2.76028,2.76028,0,0,0-1.34217-.10986l-2.94035.15161a52.64972,52.64972,0,0,1-5.88071-.11255C234.62662,209.06025,232.66638,208.88349,230.70615,208.90083Z"/><path fill="#f94b58" d="M255.5492,274.18827s5.87025,1.74521,20.62519,0c0,0,30.77912,3.41109,46.724,15.7862l9.51931-42.05136s-42.91625-3.24472-50.5317-5.99475-14.06744-13.96166-14.06744-13.96166-1.90386-3.27888-6.98083-10.1659-8.56536-11.25885-9.81019-12.62758c-.83372-.91671-1.66588-3.1731-7.29814-4.44234-4.616-1.04023-7.79335-4.638-8.78968-5.90253a3.24962,3.24962,0,0,0-1.77448-1.17208c-1.14031-.27384-2.75549.02-4.08016,2.886a3.31579,3.31579,0,0,0-.29188,1.05782c-.14434,1.436-.02846,5.20239,4.01543,9.74145,0,0,4.54812,5.71159,8.46161,5.18274l6.84024,10.93162V232.257"/><path d="M241.74619 242.13984a46.70818 46.70818 0 003.13078 3.677 46.07964 46.07964 0 003.44029 3.37427 25.05616 25.05616 0 008.061 5.08228 10.96 10.96 0 004.66066.65722 10.28727 10.28727 0 002.31731-.50586c.771-.22338 1.52739-.48584 2.28049-.76074a19.87 19.87 0 004.2747-2.15747 9.165 9.165 0 001.81-1.563 4.40394 4.40394 0 001.12125-2.092 4.45653 4.45653 0 01-1.03847 2.16138 9.3177 9.3177 0 01-1.76672 1.66846 19.97448 19.97448 0 01-4.27763 2.29858c-.75341.2998-1.51375.58179-2.29149.80884a10.65823 10.65823 0 01-2.39107.541 11.3518 11.3518 0 01-4.84337-.64062 24.72751 24.72751 0 01-8.14256-5.24732A44.86528 44.86528 0 01241.74619 242.13984zM267.61606 274.892a5.05439 5.05439 0 001.42918-1.69531 12.81247 12.81247 0 00.95894-2.0138 27.747 27.747 0 001.26753-4.29016 25.75636 25.75636 0 011.32817-4.33887 10.02836 10.02836 0 011.12088-1.98754 4.78069 4.78069 0 01.79554-.82374 1.89436 1.89436 0 011.02346-.468 3.03 3.03 0 00-1.64289 1.417 9.91181 9.91181 0 00-.98369 1.99194 29.34551 29.34551 0 00-1.21231 4.30738 24.55792 24.55792 0 01-1.38539 4.32226 12.75413 12.75413 0 01-1.08928 1.99915A4.7816 4.7816 0 01267.61606 274.892z"/><rect width="59.826" height="93.38" x="207.79" y="252.324" fill="#fac848" rx="4.075"/><path fill="#fff" d="M223.08214,243.52253v-9.0652a2.2003,2.2003,0,0,1,2.20029-2.2003h26.05146a2.20029,2.20029,0,0,1,2.20029,2.2003v9.0652Z"/><path d="M223.04324,243.56147c-.0944-2.0437-.21359-4.17334-.27914-6.35278l-.05354-1.637a8.55938,8.55938,0,0,1,.02983-1.72,2.60766,2.60766,0,0,1,1.03143-1.55054,2.82778,2.82778,0,0,1,1.7632-.49707c4.25769-.103,8.5154-.00244,12.77309.14868,4.2577.16333,8.51539.15845,12.7731.06519a2.62366,2.62366,0,0,1,1.6746.40942,2.50089,2.50089,0,0,1,1.03061,1.44556,9.57114,9.57114,0,0,1,.117,1.66626l.04489,1.59668.10469,6.38647.00838.51172-.52728.00732c-5.13365.06983-10.31777.08667-15.42835-.03027l-7.61229-.19189Zm.07779-.07788,7.77576-.25781,7.61369-.1919c5.04006-.11694,10.00661-.10009,15.02361-.03027l-.51871.5188.10469-6.38647.04489-1.59668a9.81723,9.81723,0,0,0-.00651-1.51709,1.95076,1.95076,0,0,0-2.07724-1.52613c-4.25771-.09326-8.5154-.09814-12.7731.06519-4.25769.15112-8.5154.25171-12.77309.14868a1.92189,1.92189,0,0,0-1.26492.30127,1.75946,1.75946,0,0,0-.72275,1.03223,9.96884,9.96884,0,0,0-.09361,1.46338l-.05355,1.55639Z"/><path fill="#fff" d="M219.56167,252.3237v-6.60088a2.20029,2.20029,0,0,1,2.2003-2.20029h33.09239a2.20029,2.20029,0,0,1,2.20029,2.20029v6.60088Z"/><path d="M219.52278,252.3625c-.08911-2.13819-.23233-4.38965-.27286-6.69629a2.561,2.561,0,0,1,2.41735-2.54126l3.33967-.04566c4.43373-.06079,8.86745-.07031,13.30117.08838,4.43373.13257,8.86744.23609,13.30117.15943l3.33429-.05323a2.50063,2.50063,0,0,1,2.44121,2.39185c.07054,2.23145.1086,4.43774.144,6.658l.00749.46948-.48172.00464-9.48105.09107c-3.16722.01831-6.33038-.00782-9.47777-.0525l-9.37715-.19433Zm.07779-.07764,9.55063-.27954,9.36929-.19434c3.10143-.04467,6.18708-.0708,9.26866-.05249l9.2654.09107-.474.47412.139-6.64307a1.90253,1.90253,0,0,0-1.79415-1.90136c-1.09-.033-2.21176-.05713-3.31607-.06153-4.43373-.07641-8.86744.0271-13.30117.15967-4.43372.15869-8.86744.14917-13.30117.08814l-3.31068-.03736a1.84181,1.84181,0,0,0-1.81783,1.75195C219.82788,247.80683,219.69193,249.98945,219.60057,252.28486Z"/><polygon fill="#5b2d07" points="256.527 296.263 241.058 296.263 241.058 280.796 235.558 280.796 235.558 296.263 220.09 296.263 220.09 301.764 235.558 301.764 235.558 317.232 241.058 317.232 241.058 301.764 256.527 301.764 256.527 296.263"/><polygon fill="#fac848" points="218.093 202.861 204.862 228.295 208.748 228.295 223.479 202.861 218.093 202.861"/><path fill="#fac848" d="M214.74477,204.78387l-7.65071-1.43272a.88141.88141,0,0,1-.71918-.86635V194.155a.88141.88141,0,0,1,.73889-.86982l7.65071-1.25363a.88142.88142,0,0,1,1.02394.86982v11.0161A.88141.88141,0,0,1,214.74477,204.78387Z"/><path fill="#ff5d5c" d="M228.049,229.78647s-12.69242-1.714-13.59147,6.53607a6.69915,6.69915,0,0,0,3.64907,5.81736s-4.86542,4.54812.10577,9.30778c0,0-5.53728,0-5.25413,4.558a5.663,5.663,0,0,0,1.32206,3.25016,6.76548,6.76548,0,0,0,6.60277,2.61781c3.10278-.60268,4.10814-2.60621,3.56889-4.86484a5.68374,5.68374,0,0,0-.7219-1.66988l-1.49842-2.41051s7.40391,3.49042,11.21164,1.26925,3.06734-7.827,0-9.73086c0,0,3.27888.42308,3.49042-5.60582s-7.827-5.81736-9.9424-5.92313Z"/><path d="M226.99125 232.9379s-2.96157.42308-3.9135 1.375c0 0 2.8558-4.50475 4.9712-4.52644zM218.10655 242.13984a13.56431 13.56431 0 003.66736 1.31177 11.38239 11.38239 0 003.84541.15356 17.93883 17.93883 0 017.82392.86158 26.00947 26.00947 0 00-3.88291-.52442 20.409 20.409 0 00-3.88786.09986 10.93127 10.93127 0 01-3.97424-.26172A10.66149 10.66149 0 01218.10655 242.13984zM218.21233 251.4477a9.93594 9.93594 0 012.08511.53369 9.83391 9.83391 0 011.93416.947 9.87882 9.87882 0 01-2.08512-.5337A10.04661 10.04661 0 01218.21233 251.4477zM276.17439 274.18827a13.36209 13.36209 0 004.20436-3.01445s.54052 3.41367-.642 3.6107z"/></g><path fill="#f94b58" d="M233.44336,343.57227a90.64356,90.64356,0,1,1,90.64355-90.64356A90.74568,90.74568,0,0,1,233.44336,343.57227Zm0-177.13477a86.49121,86.49121,0,1,0,86.49121,86.49121A86.58917,86.58917,0,0,0,233.44336,166.4375Z"/><path fill="#f94b58" d="M88.45007,82.45838H361.9268a7.87053,7.87053,0,0,1,7.87053,7.87053V153.3708a0,0,0,0,1,0,0H80.57954a0,0,0,0,1,0,0V90.32891A7.87053,7.87053,0,0,1,88.45007,82.45838Z"/><path fill="#fffae6" d="M128.40039 130.918l-1.30273-4.0957H117.418l-1.30274 4.0957h-6.51562l8.86133-26.0625h7.59375L134.916 130.918zm-9.19531-9.67969h6.10547l-3.05274-9.56836zM156.51172 104.85547v5.73437h-6.70117V130.918h-5.957V110.58984h-6.70313v-5.73437zM180.33984 104.85547v5.73437h-6.70117V130.918h-5.957V110.58984h-6.70312v-5.73437zM192.627 125.18555h10.42383V130.918H186.66992v-26.0625h16.19531v5.73437H192.627v4.31836h9.30664v5.66016H192.627zM224.64453 104.85547h5.957V130.918h-4.46679L216.082 116.76953V130.918h-5.957v-26.0625h4.46875l10.05078 14.14844zM256.291 104.85547v5.73437h-6.70118V130.918h-5.957V110.58984h-6.70117v-5.73437zM262.62109 104.85547h5.957V130.918h-5.957zM298.81055 127.53125a13.75857 13.75857 0 113.94531-9.64453A13.14484 13.14484 0 01298.81055 127.53125zm-15.02344-4.05859a7.87731 7.87731 0 0010.834 0 8.25038 8.25038 0 000-11.16993 7.87214 7.87214 0 00-10.834 0 8.25041 8.25041 0 000 11.16993zM324.35156 104.85547h5.957V130.918h-4.46875l-10.05078-14.14844V130.918h-5.957v-26.0625h4.4668l10.05273 14.14844z"/></svg>