<svg xmlns="http://www.w3.org/2000/svg" data-name="Layer 1" viewBox="0 0 450 600"><defs><clipPath id="a"><circle cx="233.443" cy="259.928" r="88.567" fill="none"/></clipPath></defs><rect width="289.218" height="435.083" x="80.203" y="82.458" fill="#f9c746" rx="12.858"/><circle cx="233.443" cy="259.928" r="88.567" fill="#fffae6"/><rect width="1.661" height="2.077" x="204.516" y="201.014" transform="rotate(-82.053 205.347 202.052)"/><path d="M200.0839,202.15886l-4.12109-.57324.22852-1.64454,4.12109.57325Zm-8.24121-1.14649-4.12109-.57422.22851-1.64453,4.1211.57422Zm-8.24121-1.14746-4.12109-.57324.22851-1.64453,4.1211.57324Zm-8.24121-1.14648-4.12109-.57324.22851-1.64454,4.1211.57325Zm-8.24121-1.14649-4.12109-.57422.22851-1.64453,4.1211.57422Zm-8.24121-1.14746-4.12109-.57324.22851-1.64453,4.12109.57324Zm-8.24121-1.14648-4.1211-.57324.22852-1.64454,4.12109.57325Zm-8.24121-1.14649-4.1211-.57422.22852-1.64453,4.12109.57422Zm-8.24121-1.14746-4.1211-.57324.22852-1.64453,4.12109.57324Zm-8.24121-1.14648-4.1211-.57324.22852-1.64454,4.12109.57325Z"/><rect width="1.66" height="2.075" x="115.927" y="188.688" transform="rotate(-82.076 116.757 189.726)"/><rect width="2.076" height="1.662" x="204.309" y="208.301" transform="rotate(-8.244 205.348 209.132)"/><path d="M149.957,218.00944l-.23828-1.64453,3.8916-.56543.23828,1.64453Zm7.7832-1.12988-.23828-1.64453,3.8916-.56445.23829,1.64453Zm7.78321-1.12891-.23828-1.64453,3.8916-.56543.23828,1.64453Zm7.7832-1.12988-.23828-1.64453,3.8916-.56445.23828,1.64453Zm7.7832-1.12988-.23828-1.64453,3.8916-.56446.23828,1.64454ZM188.873,212.362l-.23828-1.64453,3.8916-.56445.23828,1.64453Zm7.7832-1.12988-.23828-1.64453,3.8916-.56445.23828,1.64453Z"/><rect width="2.076" height="1.662" x="143.881" y="217.07" transform="rotate(-8.244 144.919 217.9)"/><rect width="1.661" height="2.077" x="142.088" y="203.384" transform="rotate(-88.707 142.918 204.423)"/><path d="M182.52824,206.1364l-3.85938-.08594.03711-1.66016,3.85938.08594Zm-7.71875-.17188-3.85938-.08594.03711-1.66015,3.85938.08594Zm-7.71777-.17187-3.85938-.08692.03711-1.66015,3.85938.08691Zm-7.71875-.17286-3.85938-.08593.03711-1.66016,3.85938.08594Zm-7.71778-.17187-3.85937-.08594.03711-1.66015,3.85937.08593Z"/><rect width="1.661" height="2.076" x="186.613" y="204.377" transform="rotate(-88.733 187.444 205.415)"/><rect width="1.661" height="2.077" x="111.572" y="195.616" transform="rotate(-83.981 112.403 196.654)"/><path d="M128.81926,199.22038l-3.86817-.4082.17383-1.65235,3.86816.40821Zm-7.73536-.81543-3.86816-.4082.17383-1.65235,3.86816.40821Z"/><rect width="1.661" height="2.076" x="132.976" y="197.873" transform="rotate(-83.978 133.807 198.911)"/><rect width="2.077" height="1.661" x="107.597" y="215.979" transform="rotate(-9.75 108.636 216.81)"/><path d="M113.745,216.77019l-.28321-1.63672,3.94434-.68067.2832,1.63672Zm7.88965-1.36133-.28321-1.63672,3.94434-.68164.2832,1.63672Zm7.88964-1.36231-.2832-1.63672,3.94434-.68066.2832,1.63672Zm7.88965-1.36133-.2832-1.63671,3.94433-.68067.28321,1.63672Z"/><rect width="2.076" height="1.661" x="145.147" y="209.498" transform="rotate(-9.75 146.185 210.328)"/><g clip-path="url(#a)"><path fill="#ff5d5c" d="M227.73164,222.618a27.566,27.566,0,0,0-18.404-1.08414c-10.15394,2.96156-9.41355,8.99046-9.41355,8.99046s0,7.50969,10.94722,2.43272l7.03371-.31731s7.86993,2.85579,10.86291,2.64425"/><rect width="20.062" height="17.602" x="228.049" y="221.655" fill="#fac848"/><rect width="12.498" height="5.985" x="232.059" y="209.861" fill="#fff"/><path d="M244.66691,215.95671H231.94914v-6.20606h12.71777Zm-12.49707-.2207h12.27637v-5.76465H232.16984Z"/><path fill="#fff" d="M215.9862,209.86113h33.62046a2.20029,2.20029,0,0,0,2.20029-2.20029v-4.44459a2.20029,2.20029,0,0,0-2.20029-2.20029H215.522C214.30677,201.016,214.771,209.86113,215.9862,209.86113Z"/><path d="M215.98625,209.80607c7.36865.03956,14.7373-.54516,22.10608-.42309,3.68432.00024,7.36865.14014,11.053.22241a2.73025,2.73025,0,0,0,1.26513-.13623,1.99,1.99,0,0,0,.92139-.81079,2.15876,2.15876,0,0,0,.28332-1.22583l.01416-1.38159c.01538-.92115.01136-1.842.0011-2.76319a2.02047,2.02047,0,0,0-1.34314-1.95288,3.39205,3.39205,0,0,0-1.2987-.10351l-1.38159.03589-2.76331.07544q-2.76324.0919-5.52649.13818-5.5265.09045-11.0531.12183-5.5265.022-11.053-.17261l-1.38159-.06177c-.0918-.00488-.28272-.0105-.293-.01514.05249-.02319.00586-.01953-.0365.04615a1.89714,1.89714,0,0,0-.217.54394,12.727,12.727,0,0,0-.29236,2.68652,18.62343,18.62343,0,0,0,.12573,2.74366,9.79607,9.79607,0,0,0,.24585,1.34936,4.20506,4.20506,0,0,0,.21741.64356C215.67033,209.55778,215.79753,209.79313,215.98625,209.80607Zm0,.11011c-.30091-.03271-.41028-.30395-.518-.49805a4.32812,4.32812,0,0,1-.23706-.65942c-.12524-.44824-.20959-.90405-.29016-1.35986-.14917-.91406-.2417-1.8357-.30359-2.76245a13.42533,13.42533,0,0,1,.0774-2.8169,2.4499,2.4499,0,0,1,.23608-.75512.71191.71191,0,0,1,.48108-.377c.219-.022.25915-.01513.39746-.02392l1.38159-.06177q5.5265-.19665,11.053-.17236,5.52649.02269,11.0531.12182,2.76324.045,5.52649.13794l2.76331.07544,1.38159.03613a4.223,4.223,0,0,1,1.4331.1626,2.39805,2.39805,0,0,1,1.56189,2.32446c-.01037.92115-.0144,1.842.0011,2.76319l.014,1.38159a2.56511,2.56511,0,0,1-.31067,1.43213,2.422,2.422,0,0,1-1.09839,1.00683,3.18925,3.18925,0,0,1-1.44433.24537c-3.68433.08227-7.36866.22216-11.053.22241C230.72355,210.46135,223.3549,209.87663,215.98625,209.91618Z"/><rect width="19.605" height="5.809" x="228.506" y="215.846" fill="#fff" rx="2.2"/><path d="M230.7061,215.79094c1.96032.01733,3.92053-.15943,5.88073-.29029a52.6527,52.6527,0,0,1,5.88074-.11254l2.94031.15161a3.2624,3.2624,0,0,1,1.535.313,2.44994,2.44994,0,0,1,1.09436,1.133,3.11408,3.11408,0,0,1,.24292,1.51343,7.95364,7.95364,0,0,1-.04333,1.51,2.50217,2.50217,0,0,1-2.32666,1.94678c-3.92053.20874-7.84094.28271-11.76148.2854-.9801-.02027-1.9602-.01929-2.9403-.05689-.25342-.012-.46265-.00757-.78736-.04077a2.71621,2.71621,0,0,1-.84887-.28125,2.52374,2.52374,0,0,1-1.15748-1.26562,3.07823,3.07823,0,0,1-.16235-1.59546,8.37034,8.37034,0,0,1,.16663-1.50049A2.39355,2.39355,0,0,1,230.7061,215.79094Zm0,.1101a2.03262,2.03262,0,0,0-1.98975,1.67042,8.35173,8.35173,0,0,0,.04309,1.42993,2.38886,2.38886,0,0,0,.3031,1.272,1.85006,1.85006,0,0,0,.90491.75073,2.80929,2.80929,0,0,0,1.241.10083c.9801-.0376,1.9602-.03662,2.9403-.05688,3.92054.00268,7.84095.07666,11.76148.2854a1.91917,1.91917,0,0,0,1.95019-1.43384,7.90927,7.90927,0,0,0,.08033-1.42041,2.50326,2.50326,0,0,0-.22266-1.354,1.92948,1.92948,0,0,0-.968-.88331,2.75722,2.75722,0,0,0-1.34216-.10961l-2.94031.15161a52.65043,52.65043,0,0,1-5.88074-.1128C234.62663,216.06022,232.66642,215.88371,230.7061,215.901Z"/><path fill="#f94b58" d="M255.5492,281.18827s5.87025,1.74521,20.62519,0c0,0,30.77912,3.41109,46.724,15.7862l9.51931-42.05136s-42.91625-3.24472-50.5317-5.99475-14.06744-13.96166-14.06744-13.96166-1.90386-3.27888-6.98083-10.1659-8.56536-11.25885-9.81019-12.62758c-.83372-.91671-1.66588-3.1731-7.29814-4.44234-4.616-1.04023-7.79335-4.638-8.78968-5.90253a3.24962,3.24962,0,0,0-1.77448-1.17208c-1.14031-.27384-2.75549.02-4.08016,2.886a3.31579,3.31579,0,0,0-.29188,1.05782c-.14434,1.436-.02846,5.20239,4.01543,9.74145,0,0,4.54812,5.71159,8.46161,5.18274l6.84024,10.93162V239.257"/><path d="M241.74614 249.13981a46.69121 46.69121 0 003.13085 3.677 46.07981 46.07981 0 003.44031 3.37426 25.05476 25.05476 0 008.06092 5.08228 10.96021 10.96021 0 004.66064.65723 10.27657 10.27657 0 002.31738-.50586c.77088-.22339 1.52735-.48584 2.2804-.76075a19.87017 19.87017 0 004.27478-2.15747 9.17235 9.17235 0 001.80994-1.56274 4.40539 4.40539 0 001.12121-2.09229 4.45588 4.45588 0 01-1.03845 2.16138 9.32712 9.32712 0 01-1.76672 1.6687 19.98343 19.98343 0 01-4.27759 2.29834c-.75342.29981-1.5138.58179-2.29151.80884a10.6571 10.6571 0 01-2.39111.541 11.35136 11.35136 0 01-4.84326-.64063 24.72587 24.72587 0 01-8.14258-5.24731A44.86777 44.86777 0 01241.74614 249.13981zM267.616 281.892a5.05308 5.05308 0 001.4292-1.69531 12.82012 12.82012 0 00.959-2.01367 27.7658 27.7658 0 001.26758-4.29029 25.75336 25.75336 0 011.32813-4.33886 10.02748 10.02748 0 011.12084-1.98755 4.78547 4.78547 0 01.79554-.82373 1.89445 1.89445 0 011.02343-.468 3.031 3.031 0 00-1.64282 1.417 9.91321 9.91321 0 00-.98376 1.99195 29.35855 29.35855 0 00-1.21228 4.30737 24.55609 24.55609 0 01-1.38538 4.32226 12.76326 12.76326 0 01-1.08923 1.99927A4.78169 4.78169 0 01267.616 281.892z"/><rect width="59.826" height="93.38" x="207.79" y="259.324" fill="#fac848" rx="4.075"/><path fill="#fff" d="M223.08214,250.52253v-9.0652a2.2003,2.2003,0,0,1,2.20029-2.2003h26.05146a2.20029,2.20029,0,0,1,2.20029,2.2003v9.0652Z"/><path d="M223.04325,250.56145c-.09436-2.04371-.21362-4.17334-.27917-6.35279l-.05347-1.63672a8.561,8.561,0,0,1,.02979-1.72,2.60763,2.60763,0,0,1,1.03137-1.55078,2.82812,2.82812,0,0,1,1.76331-.49707c4.25769-.103,8.51538-.00244,12.77307.14868,4.25769.16333,8.51538.15845,12.77307.06519a2.62359,2.62359,0,0,1,1.67456.40942,2.50067,2.50067,0,0,1,1.03064,1.44556,9.564,9.564,0,0,1,.11694,1.66626l.04492,1.59668.10474,6.38647.0083.51172-.52722.00733c-5.13367.06982-10.31775.08667-15.42835-.03028l-7.6123-.19189Zm.07776-.07789,7.77576-.25781,7.61377-.19189c5.04-.117,10.00659-.1001,15.02356-.03l-.51868.51855.10462-6.38647.04492-1.59668a9.82637,9.82637,0,0,0-.00647-1.51709,1.95039,1.95039,0,0,0-2.07727-1.52588c-4.25769-.09351-8.51538-.09839-12.77307.06494-4.25769.15112-8.51538.25171-12.77307.14868a1.92211,1.92211,0,0,0-1.265.30152,1.75784,1.75784,0,0,0-.72266,1.032,9.96045,9.96045,0,0,0-.09362,1.46338l-.05359,1.55639Z"/><path fill="#fff" d="M219.56167,259.3237v-6.60088a2.20029,2.20029,0,0,1,2.2003-2.20029h33.09239a2.20029,2.20029,0,0,1,2.20029,2.20029v6.60088Z"/><path d="M219.52275,259.36271c-.08911-2.13842-.2323-4.38989-.27283-6.69653a2.561,2.561,0,0,1,2.41736-2.54126l3.33972-.04541c4.43372-.061,8.86743-.07031,13.30115.08814,4.43371.13256,8.86743.23608,13.30114.15966l3.33423-.05346a2.50069,2.50069,0,0,1,2.44129,2.39184c.07055,2.23145.10852,4.43775.14392,6.658l.00757.46948-.48169.00464-9.48108.09131c-3.16724.01807-6.33045-.008-9.47779-.05273l-9.37719-.19434Zm.07788-.07788,9.55053-.27929,9.36939-.19458c3.10132-.04468,6.187-.0708,9.26855-.05249l9.26551.09106-.47412.47412.139-6.64306a1.90215,1.90215,0,0,0-1.79419-1.90113c-1.09-.0332-2.21179-.05737-3.316-.06152-4.43371-.07666-8.86743.02685-13.30114.15942-4.43372.15869-8.86743.14917-13.30115.08838l-3.31079-.0376a1.84177,1.84177,0,0,0-1.81775,1.752C219.82792,254.80681,219.69194,256.98942,219.60063,259.28483Z"/><polygon fill="#5b2d07" points="256.527 303.263 241.058 303.263 241.058 287.796 235.558 287.796 235.558 303.263 220.09 303.263 220.09 308.764 235.558 308.764 235.558 324.232 241.058 324.232 241.058 308.764 256.527 308.764 256.527 303.263"/><polygon fill="#fac848" points="218.093 209.861 204.862 235.295 208.748 235.295 223.479 209.861 218.093 209.861"/><path fill="#fac848" d="M214.74477,211.78387l-7.65071-1.43272a.88141.88141,0,0,1-.71918-.86635V201.155a.88141.88141,0,0,1,.73889-.86982l7.65071-1.25363a.88142.88142,0,0,1,1.02394.86982v11.0161A.88141.88141,0,0,1,214.74477,211.78387Z"/><path fill="#ff5d5c" d="M228.049,236.78647s-12.69242-1.714-13.59147,6.53607a6.69915,6.69915,0,0,0,3.64907,5.81736s-4.86542,4.54812.10577,9.30778c0,0-5.53728,0-5.25413,4.558a5.663,5.663,0,0,0,1.32206,3.25016,6.76548,6.76548,0,0,0,6.60277,2.61781c3.10278-.60268,4.10814-2.60621,3.56889-4.86484a5.68374,5.68374,0,0,0-.7219-1.66988l-1.49842-2.41051s7.40391,3.49042,11.21164,1.26925,3.06734-7.827,0-9.73086c0,0,3.27888.42308,3.49042-5.60582s-7.827-5.81736-9.9424-5.92313Z"/><path d="M226.99125 239.9379s-2.96157.42308-3.9135 1.375c0 0 2.8558-4.50475 4.9712-4.52644zM218.10661 249.13981a13.5542 13.5542 0 003.66736 1.31177 11.38221 11.38221 0 003.84533.15357 17.93552 17.93552 0 017.824.86181 26.01274 26.01274 0 00-3.88294-.52466 20.43057 20.43057 0 00-3.88794.09986 10.93138 10.93138 0 01-3.97424-.26172A10.661 10.661 0 01218.10661 249.13981zM218.21232 258.44768a10.5345 10.5345 0 014.01929 1.48071 9.89276 9.89276 0 01-2.08508-.53345A10.03456 10.03456 0 01218.21232 258.44768zM276.17439 281.18827a13.36209 13.36209 0 004.20436-3.01445s.54052 3.41367-.642 3.6107z"/></g><path fill="#f94b58" d="M233.44328 350.57194a90.64356 90.64356 0 1190.64355-90.64355A90.74568 90.74568 0 01233.44328 350.57194zm0-177.13476a86.49121 86.49121 0 1086.49121 86.49121A86.58917 86.58917 0 00233.44328 173.43718zM88.45007 82.45838H361.9268a7.87053 7.87053 0 017.87053 7.87053V153.3708a0 0 0 010 0H80.57954a0 0 0 010 0V90.32891A7.87053 7.87053 0 0188.45007 82.45838z"/><path fill="#fffae6" d="M171.70793,131.31315q0,1.20119-1.09278,1.20118h-4.10839a1.23642,1.23642,0,0,1-1.0918-.74414l-5.92774-10.582-1.50781-2.17382v-4.11817a1.65658,1.65658,0,0,1,.44141-1.20117,1.4922,1.4922,0,0,1,1.11914-.458h3.84765q1.81935,0,1.82032-2.05859v-7.55078q0-.79982-.625-.80078h-8.47559q-1.248,0-1.24805-1.42969V98.194q0-1.31543,1.24805-1.3164h31.97949q1.248,0,1.24805,1.3164v3.25977q0,1.374-1.24805,1.37305h-2.80761q-.624,0-.624.80078v27.57031q0,1.31689-1.248,1.31641h-3.58789q-1.24806,0-1.24805-1.31641V119.987q0-.7998-.624-.80078H164.99894l6.39649,11.09668A2.20169,2.20169,0,0,1,171.70793,131.31315ZM170.51066,113.237h7.43653c.416,0,.624-.26562.624-.80078v-8.80859q0-.79982-.624-.80078H171.915q-.624,0-.62305.80078v5.66308q0,2.80226-.78125,3.71778Z"/><path fill="#fffae6" d="M195.93937,132.51433h-3.58789q-1.248,0-1.248-1.31641V103.62761q0-.79982-.624-.80078h-2.80859q-1.248,0-1.248-1.37305V98.194q0-1.31543,1.248-1.3164H200.62q1.24658,0,1.24707,1.3164v3.25977q0,1.374-1.24707,1.37305h-2.8086q-.624,0-.624.80078v27.57031Q197.18742,132.51482,195.93937,132.51433Z"/><path fill="#fffae6" d="M224.07121,103.62761v27.51367q0,1.37256-1.24805,1.37305h-3.64062q-1.19532,0-1.19532-1.37305v-4.91992h-.208a3.86818,3.86818,0,0,1-1.82032,1.60156,6.7119,6.7119,0,0,1-2.96386.62988h-1.56055a8.45056,8.45056,0,0,1-6.55078-2.5459q-2.34082-2.543-2.34082-7.17773v-2.68945a10.65867,10.65867,0,0,1,2.31347-7.14942,8.228,8.228,0,0,1,6.52735-2.57422h2.85937q1.248,0,1.24805,1.37305v3.26074q0,1.31544-1.24805,1.31446h-1.76757q-3.79687,0-3.79688,4.11914v2.00195a4.74146,4.74146,0,0,0,.8584,3.08887,3.49641,3.49641,0,0,0,2.834,1.03027h1.55957a3.60946,3.60946,0,0,0,3.09375-1.28711,5.24888,5.24888,0,0,0,.96289-3.23242V103.62761q0-.79982-.624-.80078H200.203q-1.248,0-1.248-1.37305V98.194q0-1.31543,1.248-1.3164h27.29981q1.248,0,1.24805,1.3164v3.25977q0,1.374-1.24805,1.37305h-2.80762Q224.07122,102.82683,224.07121,103.62761Z"/><path fill="#fffae6" d="M238.11027,102.82683h-.88379q-1.61279,0-1.6123,2.05957v2.46q0,2.00244,1.87207,2.00195h3.32812q1.248,0,1.24805,1.37305v3.25976q0,1.31544-1.24805,1.31543h-3.32812a1.74521,1.74521,0,0,0-1.35254.57227,2.30021,2.30021,0,0,0-.51953,1.60156v1.31543a4.16509,4.16509,0,0,0,.59765,2.63086,2.93021,2.93021,0,0,0,2.2627.6875h2.86035q5.14746-.05714,5.14746-5.0918V103.62761q0-.79982-.624-.80078h-1.87207q-1.248,0-1.24805-1.37305V98.194q0-1.31543,1.24805-1.3164h12.01269q1.248,0,1.248,1.3164v3.25977q0,1.374-1.248,1.37305h-2.80859q-.624,0-.624.80078v27.57031q0,1.31689-1.24805,1.31641h-3.58789q-1.248,0-1.24805-1.31641v-5.60547h-.208q-1.144,2.5752-4.47265,2.57422h-4.31543a7.41373,7.41373,0,0,1-5.82324-2.25977q-2.02881-2.25879-2.0293-6.49218v-1.77344q0-3.8877,2.80859-4.97656v-.22852q-2.8081-1.02833-2.80859-4.63281v-2.3457a2.584,2.584,0,0,1,1.24805-2.40235v-.22851h-3.79493q-1.248,0-1.248-1.42969V98.194q0-1.31543,1.248-1.3164h11.02344q1.19532,0,1.19629,1.3164v3.25977Q239.30656,102.8278,238.11027,102.82683Z"/><path fill="#fffae6" d="M263.85051,132.51433h-3.5879q-1.248,0-1.248-1.31641V103.62761q0-.79982-.625-.80078H255.582q-1.248,0-1.24805-1.37305V98.194q0-1.31543,1.24805-1.3164h12.94824q1.248,0,1.248,1.3164v3.25977q0,1.374-1.248,1.37305H265.7216q-.624,0-.62305.80078v27.57031Q265.09855,132.51482,263.85051,132.51433Z"/><path fill="#fffae6" d="M272.48136,122.10417q-2.80663,0-2.80761-5.835a6.65143,6.65143,0,0,1,1.79394-4.86231,6.22973,6.22973,0,0,1,4.6543-1.83007h8.00781q.624,0,.624-.80079v-5.14843q0-.74268-.52051-.80078H268.11418q-1.248,0-1.248-1.37305V98.194q0-1.31543,1.248-1.3164h26.15625q1.24658,0,1.24707,1.3164v3.25977q0,1.374-1.24707,1.37305h-2.8086q-.624,0-.624.80078v27.57031q0,1.31689-1.248,1.31641h-3.58789q-1.248,0-1.248-1.31641V116.38347q0-.79981-.624-.80078h-5.61621a7.57247,7.57247,0,0,0-1.50781.11425q-1.30078.28712-1.29981,2.002l.46778,3.08886q0,1.31689-1.14356,1.31641Z"/><path fill="#5b2d07" d="M182.50187,389.19792q0,.67091-.64453.66992h-2.11328a.7596.7596,0,0,1-.68066-.47265l-4.333-7.918L173.6923,379.901v-2.24511c0-.57715.27344-.86621.82324-.86621h2.47071q1.86182,0,1.8623-2.20606v-5.63379c0-.31445-.13086-.47265-.39355-.47265h-6.08789c-.45313,0-.68067-.26172-.68067-.78809v-1.6543q0-.709.68067-.709H193.9257a.62957.62957,0,0,1,.71582.709v1.69434q0,.74853-.71582.748h-2.32812c-.2627,0-.39356.1582-.39356.47265v20.169q0,.74853-.7168.749H188.6259q-.68117,0-.68067-.749v-8.666q0-.47315-.39453-.47265H177.45207l4.835,8.58789A2.04546,2.04546,0,0,1,182.50187,389.19792Zm-1.2539-12.4082h6.30273q.394,0,.39453-.47364v-7.36621c0-.31445-.13183-.47265-.39453-.47265h-5.04883c-.26367,0-.39453.1582-.39453.47265v4.72754a3.947,3.947,0,0,1-.85937,2.9541Z"/><path fill="#5b2d07" d="M193.746 365.32585h18.62207a.62957.62957 0 01.71582.709v1.69434q0 .74853-.71582.748H210.04c-.2627 0-.39356.1582-.39356.47265v20.12989q0 .78808-.68066.78808h-1.93359q-.64453 0-.64454-.78808v-3.89942h-.14355q-.85986 1.65381-3.40234 1.6543h-1.46778a5.43383 5.43383 0 01-4.208-1.6543 6.55516 6.55516 0 01-1.52247-4.60937v-2.99414a6.78125 6.78125 0 011.52247-4.6084 5.36154 5.36154 0 014.208-1.6543h2.21973q.68115 0 .68066.74805v1.61523q0 .709-.68066.709h-1.89746a3.23076 3.23076 0 00-1.57617.35449l6.19531 6.46a7.02426 7.02426 0 00.07226-.78711V368.94987c0-.31445-.13183-.47265-.39453-.47265H193.746q-.67968 0-.68066-.748v-1.69434Q193.06535 365.32586 193.746 365.32585zm7.91407 18.47559h1.64746a3.09429 3.09429 0 002.07715-.66993l-6.48145-6.77539a4.919 4.919 0 00-.14355 1.29981v2.876Q198.75969 383.80144 201.66008 383.80144zM235.68058 368.94987v4.09668h.14258q.78808-1.65381 3.22363-1.65429h.89551a5.41254 5.41254 0 014.18946 1.63476 6.58943 6.58943 0 011.5039 4.62891v2.59961a6.7854 6.7854 0 01-1.52148 4.60937 5.32146 5.32146 0 01-4.17188 1.6543h-1.50488q-.71631 0-.71582-.748v-1.7334a.62957.62957 0 01.71582-.709h1.03906q2.93555 0 2.93653-3.26953v-2.2461q0-3.22851-3.044-3.22949h-.9668q-2.72315 0-2.72168 2.915v11.58106q0 .78808-.71679.78808h-1.82618q-.64452 0-.64453-.78808v-4.21485h-.14355a3.29326 3.29326 0 01-3.22266 1.6543h-.89551a5.43528 5.43528 0 01-4.208-1.6543 6.5548 6.5548 0 01-1.52149-4.60937v-2.59961a6.78538 6.78538 0 011.52149-4.60938 5.36484 5.36484 0 014.208-1.65429h1.46875q.71486 0 .71583.749v1.69336q0 .74853-.71583.749h-1.03906q-2.937 0-2.93652 3.22949v2.2461a3.42539 3.42539 0 00.78808 2.42187 2.92457 2.92457 0 002.25586.84766h1.00293a2.59858 2.59858 0 002.02344-.76856 3.13632 3.13632 0 00.69824-2.18652V368.94987c0-.31445-.13183-.47265-.39355-.47265H220.85441q-.67968 0-.68066-.748v-1.69434q0-.709.68066-.709h26.42871a.62957.62957 0 01.71582.709v1.69434q0 .74853-.71582.748h-11.209C235.81144 368.47722 235.68058 368.63542 235.68058 368.94987zM241.44523 391.32487v-1.457q0-.78809.7168-.78808h1.68262a4.85424 4.85424 0 013.65332 1.20117 5.6274 5.6274 0 011.1455 3.959 6.318 6.318 0 01-1.19921 4.17578 4.776 4.776 0 01-3.84961 1.418H242.162a5.85571 5.85571 0 01-4.06445-1.28027 18.03971 18.03971 0 01-3.24122-4.7461 2.39434 2.39434 0 01-.32226-.98535.79079.79079 0 01.3584-.62988l1.21679-.749a1.08561 1.08561 0 01.59082-.15723q.34131 0 .66309.61035.32226.61084.75195 1.458.42921.84667.64454 1.2207.21533.37354.59082.90625a2.62633 2.62633 0 00.69824.72852 4.19818 4.19818 0 002.11328.55176h1.39648q1.28907 0 1.665-.61036a3.55678 3.55678 0 00.376-1.832 3.473 3.473 0 00-.30371-1.71386q-.30469-.49219-1.52246-.49219H242.162Q241.44572 392.113 241.44523 391.32487z"/><path fill="#5b2d07" d="M247.247 365.32585h20.51953a.63027.63027 0 01.7168.709v1.6543c0 .52637-.23926.78809-.7168.78809H265.582c-.31055 0-.46484.14453-.46484.43359v2.876a3.30239 3.30239 0 01-1.00293 2.5205q1.53954 1.22169 1.54 4.17579v3.97851a6.401 6.401 0 01-1.37891 4.17578 4.80654 4.80654 0 01-3.957 1.69434h-5.12109a5.64712 5.64712 0 01-4.10059-1.43848 5.51565 5.51565 0 01-1.48633-4.15527V381.319q0-3.03222 2.07715-3.82031v-.1582q-2.07716-.55079-2.07715-3.15137v-3.1123a2.47967 2.47967 0 011.14649-2.44141v-.1582H247.247c-.45313 0-.68066-.26172-.68066-.78809v-1.6543Q246.56633 365.32586 247.247 365.32585zm12.35449 8.07519h1.46875a2.94319 2.94319 0 01.57324.04 3.44672 3.44672 0 00.14258-1.06347v-3.42774a.42294.42294 0 00-.42969-.47265H255.0175q-2.14746 0-2.14844 2.52148v2.67871q0 2.127 1.93359 2.127h1.25391q.71631 0 .71582.748v1.69434q0 .67089-.71582.66992h-1.00293q-2.18408 0-2.18457 2.44238v1.02442a2.23271 2.23271 0 002.65039 2.67871h4.1543a2.814 2.814 0 002.14844-.72949 3.36374 3.36374 0 00.68066-2.34375V378.444q0-1.85156-1.68359-1.85156h-1.21778q-.67968 0-.67969-.78808V374.111Q258.92179 373.40055 259.60148 373.401zM153.59269 440.53972h-4.5039a6.5497 6.5497 0 01-5.042-1.90918 7.78157 7.78157 0 01-1.77636-5.5V418.72233a7.78321 7.78321 0 011.77636-5.5 6.5497 6.5497 0 015.042-1.90918h4.5039a6.52261 6.52261 0 015.02051 1.93164 7.74189 7.74189 0 011.79688 5.47754v2.13575q0 1.00049-.90918 1h-3.47071q-.86718 0-.86816-1v-1.86329a3.0541 3.0541 0 00-.55762-2.06835 2.44613 2.44613 0 00-1.87988-.61329H149.915a2.38333 2.38333 0 00-1.83887.61329 3.0541 3.0541 0 00-.55762 2.06835v13.86329a3.05413 3.05413 0 00.55762 2.06836 2.387 2.387 0 001.83887.61328h2.80957a2.44987 2.44987 0 001.87988-.61328 3.05413 3.05413 0 00.55762-2.06836v-1.86329q0-1.00048.86816-1h3.47071q.90819 0 .90918 1v2.13575a7.74351 7.74351 0 01-1.79688 5.47754A6.51912 6.51912 0 01153.59269 440.53972zM179.54094 440.53972H165.94719q-.86867 0-.86817-.95508V412.26726q0-.95363.86817-.95411h3.51171q.86867 0 .86817.95411v22.72656a.43984.43984 0 00.49609.5h8.71778q.82617 0 .82714 1v3.09082Q180.36808 440.53972 179.54094 440.53972zM198.17668 440.53972H184.665q-.8672 0-.86719-.95508V412.26726q0-.95363.86719-.95411h13.51172q.82617 0 .82715.95411v3.09082q0 .95507-.82715.95507h-8.63574a.44062.44062 0 00-.4961.5v5.90918a.44062.44062 0 00.4961.5h7.06542q.86867 0 .86817.95411v3.09082q0 .95506-.86817.9541h-7.06542a.44062.44062 0 00-.4961.5v6.31836a.44023.44023 0 00.4961.5h8.63574q.82617 0 .82715.9541v3.09082Q199.00383 440.53972 198.17668 440.53972zM206.52336 440.53972h-3.9668q-.74413 0-.49609-.95508l6.52929-27.31738a1.19945 1.19945 0 011.23926-.95411h5.49609a1.12862 1.12862 0 011.23926.95411l6.52832 27.31738q.249.95508-.49511.95508h-3.9668a.76314.76314 0 01-.62012-.20508 1.6346 1.6346 0 01-.24805-.75l-1.15722-5h-8.05762l-1.15625 5a1.48459 1.48459 0 01-.26855.75A.77462.77462 0 01206.52336 440.53972zm5.99121-23.72657L209.54 429.9489h6.11523l-2.97461-13.13575zM231.23332 440.53972h-3.42969q-.86865 0-.86816-.95508V412.26726q0-.95363.86816-.95411h3.09863a1.14255 1.14255 0 011.15723.63672l8.34668 17.22657h.165V412.26726q0-.95363.86816-.95411h3.42969q.8672 0 .86719.95411v27.31738q0 .95508-.86719.95508h-3.0166a1.37664 1.37664 0 01-1.32227-.90918l-8.26465-16.90821h-.165v16.86231Q232.10051 440.53972 231.23332 440.53972zM285.704 415.99772h2.36328a.62957.62957 0 01.71582.709V418.401q0 .74854-.71582.748h-2.32812c-.2627 0-.39356.1582-.39356.47266v20.16894q0 .74854-.68066.749H282.7675q-.68115 0-.68067-.749V419.62175c0-.31446-.13183-.47266-.39355-.47266h-4.36914c-.26367 0-.39453.1582-.39453.47266v20.16894q0 .74854-.67969.749h-1.89844q-.68115 0-.68066-.749v-7.32715c0-.31445-.13086-.47265-.39356-.47265h-3.54492v.82715a6.538 6.538 0 01-1.52246 4.6289 5.55919 5.55919 0 01-4.2793 1.63477h-4.083q-.71631 0-.71582-.748v-1.69433q0-.74707.71582-.748h3.86816q2.82861 0 2.8291-2.99414V431.7946a3.09219 3.09219 0 00-.68066-2.20606 2.863 2.863 0 00-2.14844-.709h-1.8623q-.68116 0-.68067-.78809v-1.65429q0-.78809.68067-.78809h1.8623q2.82861 0 2.8291-2.9541v-.55176a3.23476 3.23476 0 00-.68066-2.26562 2.81747 2.81747 0 00-2.14844-.72852h-2.75781q-.68115 0-.68067-.748v-1.69433q0-.709.68067-.709h3.15136q5.62208 0 5.62305 6.26368v.62988q0 3.19189-2.14941 4.29394v.15821a2.992 2.992 0 011.64746 1.53613h4.04687c.2627 0 .39356-.1582.39356-.47266V417.49479a1.64566 1.64566 0 01.34082-1.083 1.15691 1.15691 0 01.94824-.41407H281.872v-.15722a24.61053 24.61053 0 01-4.584-5.71192l-2.041-3.26953a1.19923 1.19923 0 01-.17969-.59082.51446.51446 0 01.57324-.59082h1.791a1.28668 1.28668 0 011.21777.62988l4.834 9.02051.14355-.03906a20.14135 20.14135 0 01-1.43261-7.76074v-1.10254q0-.74853.71582-.748H284.665q.67968 0 .68066.748v9.09961Q285.34562 415.99822 285.704 415.99772z"/><path fill="#5b2d07" d="M294.65715 425.17644v-5.55469c0-.28809-.12012-.44629-.3584-.47266h-6.41016q-.67968 0-.68066-.748v-1.69433q0-.709.68066-.709h12.46192q.68115 0 .68066.709V418.401q0 .74854-.68066.748h-2.041c-.2627 0-.39355.1582-.39355.47266v5.75195a5.68241 5.68241 0 01-1.16407 3.78125 3.8488 3.8488 0 01-3.09765 1.37891h-.68067l5.15723 8.78418a.9588.9588 0 01.17871.51269q0 .709-.6084.709h-2.11328a.75961.75961 0 01-.68066-.47266l-4.79883-8.2334-.89453-1.2998v-2.24512c0-.57812.27343-.86719.82324-.86719h2.72168Q294.65714 427.42155 294.65715 425.17644zM117.2714 490.25651V462.93913q0-.95508.86817-.9541h10.206a6.51909 6.51909 0 015.02051 1.93164 7.74092 7.74092 0 011.79688 5.47656v14.40918a7.73928 7.73928 0 01-1.79688 5.47656 6.51909 6.51909 0 01-5.02051 1.93165h-10.206Q117.27092 491.21062 117.2714 490.25651zm5.70215-4.04589h4.50391a2.44714 2.44714 0 001.88086-.61329 3.05766 3.05766 0 00.55762-2.06836V469.66569a3.05818 3.05818 0 00-.55762-2.06738 2.44724 2.44724 0 00-1.88086-.61426h-4.50391c-.30371 0-.4541.167-.4541.5v18.22657C122.51945 486.0446 122.66984 486.21062 122.97355 486.21062zM145.74113 462.93913v27.31738q0 .95363-.86719.95411h-3.51269q-.8672 0-.86719-.95411V462.93913q0-.95508.86719-.9541h3.51269Q145.74113 461.985 145.74113 462.93913zM150.82414 483.75651v-.90918q0-.95361.86719-.9541H155.204q.86719 0 .86719.9541v.36426a3.40791 3.40791 0 00.62012 2.36328 3.14492 3.14492 0 002.27246.63575h1.94238a3.01359 3.01359 0 002.25195-.68165 3.77383 3.77383 0 00.64063-2.54492v-.5459a2.34913 2.34913 0 00-.97168-2.02246 4.8015 4.8015 0 00-2.417-.84082 23.86432 23.86432 0 01-3.12012-.52246 18.814 18.814 0 01-3.11914-1 5.08044 5.08044 0 01-2.417-2.40918 9.6356 9.6356 0 01-.97168-4.61328v-1.59082a7.76559 7.76559 0 011.81836-5.5 6.54672 6.54672 0 015.041-1.9541h4.13184a6.603 6.603 0 015.083 1.9541 7.77006 7.77006 0 011.81836 5.5v.86328q0 .95508-.86816.9541h-3.5127q-.86718 0-.86718-.9541V470.03a3.49609 3.49609 0 00-.62012-2.40918 3.1492 3.1492 0 00-2.27246-.63672h-1.61133a2.93618 2.93618 0 00-2.29394.70508 4.46546 4.46546 0 00-.59864 2.75v.86328q0 2.13721 3.38867 2.4541a19.40692 19.40692 0 016.23926 1.5459 5.5116 5.5116 0 012.417 2.43164 9.16344 9.16344 0 01.97071 4.47754v1.54492a7.77137 7.77137 0 01-1.81738 5.5 6.54817 6.54817 0 01-5.041 1.95411h-4.50488a6.54673 6.54673 0 01-5.041-1.95411A7.77137 7.77137 0 01150.82414 483.75651zM179.3759 462.93913v27.31738q0 .95363-.86817.95411H174.996q-.86865 0-.86816-.95411V462.93913q0-.95508.86816-.9541h3.51172Q179.37638 461.985 179.3759 462.93913zM189.41691 491.21062h-3.42969q-.86718 0-.86718-.95411V462.93913q0-.95508.86718-.9541h3.09961a1.141 1.141 0 011.15625.63574l8.34668 17.22656h.166v-16.9082q0-.95508.86719-.9541h3.42968q.86867 0 .86817.9541v27.31738q0 .95363-.86817.95411h-3.0166a1.3775 1.3775 0 01-1.32226-.90918l-8.26368-16.90821h-.165v16.86328Q190.28508 491.21014 189.41691 491.21062zM213.83683 491.21062h-3.51172q-.86865 0-.86816-.95411V462.93913q0-.95508.86816-.9541h13.18067q.82617 0 .82715.9541V466.03q0 .95508-.82715.9541h-8.30469a.44022.44022 0 00-.49609.5V474.53q0 .54492.49609.54492h7.06543q.86719 0 .86817.95508v3.04492q0 1.0005-.86817 1h-7.06543a.44023.44023 0 00-.49609.5v9.68164Q214.705 491.21014 213.83683 491.21062zM242.5966 491.21062H229.08488q-.86865 0-.86816-.95411V462.93913q0-.95508.86816-.9541H242.5966q.82617 0 .82617.9541V466.03q0 .95508-.82617.9541h-8.63574a.44022.44022 0 00-.4961.5v5.90918a.43984.43984 0 00.4961.5h7.06543q.86718 0 .86816.9541v3.09082q0 .95508-.86816.95508h-7.06543a.44022.44022 0 00-.4961.5v6.31739a.43984.43984 0 00.4961.5h8.63574q.82617 0 .82617.95507v3.09082Q243.42277 491.21014 242.5966 491.21062zM259.08293 491.21062H254.579a6.54252 6.54252 0 01-5.041-1.90918 7.7809 7.7809 0 01-1.77735-5.499V469.39323a7.78512 7.78512 0 011.77735-5.5 6.54547 6.54547 0 015.041-1.9082h4.50391a6.51912 6.51912 0 015.02051 1.93164 7.74124 7.74124 0 011.79785 5.47656V471.53q0 1.00049-.90918 1H261.5214q-.86865 0-.86816-1v-1.86426a3.0529 3.0529 0 00-.55762-2.06738 2.44623 2.44623 0 00-1.87988-.61426h-2.81055a2.38491 2.38491 0 00-1.83886.61426 3.05812 3.05812 0 00-.55762 2.06738V483.529a3.0576 3.0576 0 00.55762 2.06836 2.38475 2.38475 0 001.83886.61329h2.81055a2.44613 2.44613 0 001.87988-.61329 3.05238 3.05238 0 00.55762-2.06836v-1.86328q0-.999.86816-1h3.47071q.9082 0 .90918 1v2.13672a7.73959 7.73959 0 01-1.79785 5.47656A6.51912 6.51912 0 01259.08293 491.21062zM278.79289 491.21062h-3.4707q-.90967 0-.90918-.95411V467.48405c0-.333-.15235-.5-.45508-.5h-4.71q-.86867 0-.86817-.9541v-3.09082q0-.95508.86817-.9541h15.61914q.86718 0 .86718.9541V466.03q0 .95508-.86718.9541h-4.71094a.44061.44061 0 00-.49609.5v22.77246Q279.66008 491.21014 278.79289 491.21062zM310.25676 470.29362v4.09668h.14257q.78808-1.65527 3.22364-1.65429h.8955a5.40915 5.40915 0 014.18946 1.63476 6.58683 6.58683 0 011.5039 4.62793v2.60059a6.78092 6.78092 0 01-1.52148 4.6084 5.31878 5.31878 0 01-4.17188 1.65527h-1.50488q-.71631 0-.71582-.749v-1.7334a.62957.62957 0 01.71582-.709h1.03906q2.93556 0 2.93653-3.26953V479.1569q0-3.23-3.04395-3.23046h-.96679q-2.72314 0-2.72168 2.915v11.58106c0 .52637-.23926.78809-.7168.78809h-1.82617c-.42969 0-.64453-.26172-.64453-.78809v-4.21484h-.14356A3.29224 3.29224 0 01303.703 487.863h-.8955a5.43251 5.43251 0 01-4.208-1.65527 6.55062 6.55062 0 01-1.52149-4.6084V478.9987a6.78269 6.78269 0 011.52149-4.6084 5.36157 5.36157 0 014.208-1.65429h1.46875q.71484 0 .71582.748v1.69434q0 .74853-.71582.74805h-1.03907q-2.937 0-2.93652 3.23046V481.402a3.42636 3.42636 0 00.78809 2.42285 2.92752 2.92752 0 002.25586.84668h1.00293a2.59807 2.59807 0 002.02343-.76758 3.138 3.138 0 00.69825-2.18652V470.29362c0-.31543-.13184-.47265-.39356-.47265H295.43058q-.67968 0-.68066-.749v-1.69336q0-.709.68066-.709h26.42871a.62957.62957 0 01.71582.709v1.69336q0 .74854-.71582.749h-11.209Q310.25626 469.821 310.25676 470.29362z"/><path fill="#5b2d07" d="M328.44816,475.84733v-5.55371q0-.43359-.3584-.47265h-6.41015q-.6797,0-.67969-.749v-1.69336q0-.709.67969-.709H334.1425q.67968,0,.68066.709v1.69336q0,.74854-.68066.749h-2.041c-.26367,0-.39453.15722-.39453.47265v5.751a5.67819,5.67819,0,0,1-1.16406,3.78223,3.84831,3.84831,0,0,1-3.09766,1.37793h-.67969l5.15625,8.78515a.95791.95791,0,0,1,.17969.51172q0,.709-.60937.709H329.3798a.757.757,0,0,1-.68066-.47266l-4.79883-8.23242-.89551-1.30078v-2.24512q0-.86572.82422-.86621h2.72168Q328.44768,478.09343,328.44816,475.84733Z"/><path fill="#5b2d07" d="M331.56437,466.6696h.17871v1.49609h-2.07714a41.336,41.336,0,0,1-5.65821-7.36621L322.00187,457.53a1.2686,1.2686,0,0,1-.14258-.59082q0-.59033.53711-.59082H324.581a.966.966,0,0,1,.93067.59082l5.12109,9.06055A1.115,1.115,0,0,0,331.56437,466.6696Z"/><path fill="#5b2d07" d="M331.67082,459.61784v2.32422q0,.74853-.64453.748h-2.25586q-.60792,0-.6084-.748v-2.32422q0-.709.6084-.709h2.25586Q331.67081,458.90886,331.67082,459.61784Z"/></svg>