<svg xmlns="http://www.w3.org/2000/svg" data-name="Layer 1" viewBox="0 0 450 600"><defs><clipPath id="a"><circle cx="225" cy="337.35" r="80.31" fill="none"/></clipPath></defs><rect width="289.22" height="435.09" x="80.39" y="82.455" fill="#f9c746" rx="12.86"/><rect width="289.218" height="435.083" x="80.393" y="82.459" fill="none" rx="12.858"/><path fill="#817abf" d="M369.60939,444.30493v60.38013a12.863,12.863,0,0,1-12.85987,12.85986h-263.5a12.863,12.863,0,0,1-12.85986-12.85986V444.30493Z"/><path fill="#fff" d="M146.64551 493.24316a13.55362 13.55362 0 110-27.10449 13.34333 13.34333 0 016.47851 1.61914 12.2659 12.2659 0 014.69141 4.41211l-5.1377 2.97852a5.87248 5.87248 0 00-2.458-2.36426 7.59021 7.59021 0 00-3.57422-.83789 7.361 7.361 0 00-5.52832 2.12207 8.68117 8.68117 0 000 11.24414 7.361 7.361 0 005.52832 2.12207 7.55978 7.55978 0 003.59277-.85644 5.78538 5.78538 0 002.43945-2.34571l5.1377 2.97852a11.97855 11.97855 0 01-4.6543 4.41211A13.41355 13.41355 0 01146.64551 493.24316zM180.89844 492.72168l-1.30274-4.0957H169.915l-1.30274 4.0957h-6.51562l8.86133-26.0625h7.59472l8.86133 26.0625zm-9.19629-9.68066h6.10644l-3.05273-9.56836zM209.7168 490.82324a11.99 11.99 0 01-14.44629 0 8.136 8.136 0 01-2.8291-6.51562V466.65918h5.957v17.127q0 3.64893 4.0957 3.64844 4.09424 0 4.0957-3.64844v-17.127h5.957v17.64844A8.13673 8.13673 0 01209.7168 490.82324zM238.0498 466.65918v5.73437h-6.70117v20.32813h-5.957V472.39355h-6.70215v-5.73437zM244.37988 466.65918h5.957v26.0625h-5.957zM280.56836 489.334a13.75493 13.75493 0 113.94629-9.64355A13.14192 13.14192 0 01280.56836 489.334zm-15.02344-4.05859a7.87594 7.87594 0 0010.835 0 8.25037 8.25037 0 000-11.16992 7.87594 7.87594 0 00-10.835 0 8.2504 8.2504 0 000 11.16992zM306.1084 466.65918h5.957v26.0625h-4.46777L297.5459 478.57324v14.14844h-5.957v-26.0625h4.46777l10.05176 14.14844z"/><circle cx="225" cy="337.35" r="80.31" fill="#fff"/><path d="M148.9873 319.77618a39.04 39.04 0 015.55225-.37378c1.84229-.01177 3.67969.04505 5.51148.18116 1.832.12915 3.65795.34326 5.479.62274a38.59587 38.59587 0 015.43774 1.18365 38.60584 38.60584 0 01-5.55249.37677c-1.84228.0105-3.67968-.04431-5.51123-.18414-1.83178-.13281-3.65771-.345-5.47876-.62573A39.03 39.03 0 01148.9873 319.77618zM151.5752 295.118c2.52246 1.34314 4.92749 2.84558 7.2915 4.404 2.37109 1.5484 4.67285 3.19123 6.96094 4.85224 2.26611 1.69128 4.51709 3.40277 6.699 5.20825 2.18921 1.79541 4.33618 3.64813 6.365 5.66131-2.52392-1.34118-4.92969-2.84271-7.29321-4.40161-2.37085-1.54883-4.67261-3.19159-6.95923-4.85467-2.26465-1.69324-4.51562-3.40473-6.697-5.21063C155.75317 298.981 153.60547 297.12909 151.5752 295.118zM183.66064 308.77069a33.445 33.445 0 01-3.06689-4.13428q-1.38392-2.14646-2.5752-4.39434c-.7976-1.497-1.51953-3.03382-2.18383-4.60126a33.11194 33.11194 0 01-1.68653-4.86414 33.1084 33.1084 0 013.06983 4.13288c.92114 1.43158 1.78442 2.89373 2.57251 4.39575q1.19129 2.24808 2.18115 4.60266A33.44486 33.44486 0 01183.66064 308.77069z"/><g clip-path="url(#a)"><path fill="#817abf" d="M292.064,423.1306c-.891-16.50055-3.7288-42.63475-7.79591-53.12027-5.123-13.20835-32.11789-22.41513-32.11789-22.41513,4.7951-9.93082-.40216-17.08863-.40216-17.08863s-48.33463-6.555-59.69435-7.23312-36.97487,1.58225-33.85651,17.40471,35.63918,38.03243,35.63918,38.03243l-.89093,46.51293ZM239.949,351.758c-10.24191,11.082-19.3949.44792-19.3949.44792Z"/><path d="M181.36206 353.11005q8.18152-.36 16.36548-.61609l16.36938-.45026 16.37256-.306 8.1875-.10156 8.189-.03632-8.18189.34125-8.18359.27594-16.36914.44916-16.3728.30493Q189.55188 353.09751 181.36206 353.11005zM243.95215 332.54089a9.69153 9.69153 0 011.50708 3.83954 16.05217 16.05217 0 01.15332 4.15705 20.42773 20.42773 0 01-.87671 4.05627c-.21948.65485-.49268 1.29022-.738 1.932-.30981.61676-.60791 1.23614-.93676 1.83758.20019-.66.44018-1.29846.65112-1.94616.18481-.65625.40381-1.29993.56372-1.95862a24.33807 24.33807 0 00.717-3.98139 18.10179 18.10179 0 00-.00562-4.02545A12.88425 12.88425 0 00243.95215 332.54089zM252.12476 347.67328c1.82348.1972 3.6145.5379 5.4082.87366 1.793.33673 3.583.68566 5.36792 1.05883l5.34985 1.08423c1.74683.44055 3.47168-.32483 5.32666-.484a5.36863 5.36863 0 002.53491-.71191 4.88472 4.88472 0 001.76612-1.958 20.99294 20.99294 0 001.30981-2.381 5.9372 5.9372 0 00.30713-1.307 9.99176 9.99176 0 01.15088-1.37274 6.46244 6.46244 0 01.60278-1.24292 4.79658 4.79658 0 00.42212-2.59479 6.47938 6.47938 0 01-.03491-1.39386c.04639-.93475.33447-1.82727.37329-2.702a4.88959 4.88959 0 00-.43432-2.51233l-.02076-.03845-.00708-.02271a4.43407 4.43407 0 00-2.24853-2.63672 7.125 7.125 0 00-3.50513-.68756l-.24194.01136-.085-.21973a12.61355 12.61355 0 00-.7356-1.60187 3.76147 3.76147 0 00-.47583-.68652 1.44251 1.44251 0 00-.273-.24408c-.06836-.07062-.23022-.06342-.13354-.08515l.02221-.00982-9.5769 4.6643-2.37012 1.20722a16.39583 16.39583 0 01-2.42065 1.16083 13.31354 13.31354 0 01-5.2854.71392l.00488-.06213a13.71454 13.71454 0 005.17358-.93707 15.55718 15.55718 0 002.34571-1.20716l2.34131-1.28393c3.13183-1.68787 6.30517-3.28839 9.50366-4.84131l.01855-.00909.00415-.00092a.84751.84751 0 01.72193.13873 2.06955 2.06955 0 01.40747.35376 4.40742 4.40742 0 01.56445.79975 11.59932 11.59932 0 01.76587 1.70556l-.32666-.20819a8.171 8.171 0 011.96631.1568 6.84044 6.84044 0 011.86328.64661 5.01613 5.01613 0 011.55347 1.24786 4.92592 4.92592 0 01.918 1.76239l-.02784-.06085a5.26645 5.26645 0 01.43189 2.81873c-.07544.95-.38623 1.80969-.45337 2.701a6.21345 6.21345 0 00-.0061 1.3357 5.42023 5.42023 0 01-.0752 1.40008 5.35757 5.35757 0 01-.45386 1.32276 6.37759 6.37759 0 00-.604 1.20184 10.10371 10.10371 0 00-.15967 1.33856 6.22732 6.22732 0 01-.33154 1.34638 20.99417 20.99417 0 01-1.28516 2.42663 5.507 5.507 0 01-1.802 2.104 5.70689 5.70689 0 01-2.644.86108c-.897.13434-1.76343.34839-2.66162.5622a6.77024 6.77024 0 01-2.812.053c-1.814-.31884-3.57641-.75213-5.36279-1.13189-3.56616-.74982-7.10449-1.67621-10.67407-2.35987z"/><polygon points="275.009 328.237 275.608 330.666 274.527 328.41 275.009 328.237"/><path d="M276.8042 330.2594a2.03406 2.03406 0 01-1.0625.70172 3.806 3.806 0 01-1.26978.18427 5.31607 5.31607 0 01-2.42627-.62964c.84473.01861 1.63868.12219 2.43091.11822a8.22145 8.22145 0 001.17627-.05444A3.5682 3.5682 0 00276.8042 330.2594zM194.92456 312.39868c.87061 1.89478 1.59766 3.82977 2.32153 5.76483l1.06592 2.90668c.37134.96228.7002 1.93774 1.15674 2.87329a13.04644 13.04644 0 01-1.605-2.68475c-.446-.94184-.8335-1.90735-1.20166-2.8786A40.6549 40.6549 0 01194.92456 312.39868z"/><path d="M242.95715,279.94593c-1.29435-.70227-1.85662-5.6522-4.17738-5.6522s-5.10567,1.17757-8.35467-3.0616-8.12265,0-8.12265,0-2.08869,1.88408-6.034,1.17757-4.17739-3.0616-8.12265,1.17752-3.2491,4.71018-7.89058,4.23918-7.19436,1.413-7.42643,4.94568-1.39243,7.77173-3.94527,9.65582-4.87359,6.1232-2.32076,8.9493a8.40014,8.40014,0,0,1,1.46337,3.08495c-1.12551,5.89154,2.5118,3.75882,4.03348,6.20026.1063,1.05259.19622,1.94208.27875,2.57016.46414,3.53261,2.55284,4.71018,2.55284,4.71018a35.44188,35.44188,0,0,1,3.93066-7.80908,21.97483,21.97483,0,0,0,12.05492-5.27511,10.641,10.641,0,0,1-.20443,2.72181c-.46414,1.41308,3.249-3.2971,4.87355-6.82972a104.63892,104.63892,0,0,0,10.95312,1.19776,20.58918,20.58918,0,0,0,5.44983,3.619,13.09922,13.09922,0,0,0,6.83067,8.84047,21.55577,21.55577,0,0,1-1.48493-6.0276c1.38594-9.74462,6.93551-4.01839,6.93551-4.01839,4.85658,8.5391-2.97569,13.80915-2.97569,13.80915l.693,8.493c11.28549-10.54832,8.46252-20.34314,8.18362-27.40047C250.13107,299.26354,249.07514,283.26532,242.95715,279.94593Z"/><path d="M208.98193 318.92859c.147 1.14874.16089 2.26318.25049 3.36157a10.83842 10.83842 0 00.20508 1.61c.13379.49756.27417 1.04022.82959 1.27179a1.11929 1.11929 0 01-.82788-.33527 2.33618 2.33618 0 01-.49707-.77338 5.55492 5.55492 0 01-.37573-1.723A8.79087 8.79087 0 01208.98193 318.92859zM199.46875 316.97607c1.06128-.18029 1.90625-.19531 2.72217-.30328a10.1739 10.1739 0 001.19458-.213c.41284-.09241.80615-.26019 1.3396-.43408a2.21736 2.21736 0 01-.85449 1.35742 3.16443 3.16443 0 01-1.51685.61554 3.72457 3.72457 0 01-1.57275-.16895A2.83513 2.83513 0 01199.46875 316.97607zM215.6145 313.81561c1.48364-.08783 2.79248-.06817 4.07007-.22735a11.57372 11.57372 0 001.86231-.38782 13.94986 13.94986 0 001.88842-.80176 3.653 3.653 0 01-1.4292 1.73828 5.27633 5.27633 0 01-2.15771.7771 6.46053 6.46053 0 01-2.23682-.15A5.00406 5.00406 0 01215.6145 313.81561z"/><rect width=".208" height="2.723" x="241.843" y="326.664"/><polygon points="268.988 427.145 265.882 388.371 272.284 423.302 268.988 427.145"/><polygon points="193.836 378.711 196.732 380.971 193.578 390.388 193.836 378.711"/></g><path fill="#fff" d="M225,419.665a82.31494,82.31494,0,1,1,82.31543-82.31445A82.40778,82.40778,0,0,1,225,419.665Zm0-160.62012a78.30518,78.30518,0,1,0,78.30566,78.30567A78.39455,78.39455,0,0,0,225,259.04492Z"/><path fill="#2d2d70" d="M122.35889 139.14258a11.19331 11.19331 0 01-8.34473-3.35742 12.07664 12.07664 0 010-16.57618 11.22163 11.22163 0 018.34473-3.34179 11.399 11.399 0 015.61035 1.42383 10.40994 10.40994 0 014.01269 3.85156l-3.80468 2.20605A5.91717 5.91717 0 00125.811 120.999a7.66094 7.66094 0 00-8.71192 1.19825 8.00451 8.00451 0 000 10.582 7.01745 7.01745 0 005.25977 2.04687 7.11017 7.11017 0 003.46875-.84765 5.72878 5.72878 0 002.34961-2.31739l3.80468 2.20606a10.4459 10.4459 0 01-3.99609 3.85156A11.37633 11.37633 0 01122.35889 139.14258zM153.30518 135.76953a11.77269 11.77269 0 113.38867-8.26465A11.25489 11.25489 0 01153.30518 135.76953zm-13.39551-3.00586a7.45461 7.45461 0 0010.29492 0 7.71389 7.71389 0 000-10.53418 7.41663 7.41663 0 00-10.29492 0 7.71386 7.71386 0 000 10.53418zM164.33643 138.69434l-7.51368-22.37891h4.7959l5.4668 17.2002 5.43457-17.2002h4.82812l-7.54492 22.37891zM183.90088 134.47461h9.43066v4.21973H179.48877V116.31543h13.68359v4.21973h-9.27148v4.76367h8.47168v4.15625h-8.47168zM208.70947 138.69434l-4.50781-7.76856h-3.35645v7.76856h-4.4121V116.31543h8.95117a7.422 7.422 0 017.44922 7.417 6.80559 6.80559 0 01-1.18262 3.85156 7.39845 7.39845 0 01-3.13281 2.66993l4.95507 8.44043zm-7.86426-18.25489v6.61719h4.53907a2.80717 2.80717 0 002.14258-.97461 3.35273 3.35273 0 00.89453-2.34961 3.29679 3.29679 0 00-.89453-2.334 2.83155 2.83155 0 00-2.14258-.959zM235.92334 122.92188l-5.40723 9.62109v6.15137H227.4292V132.543l-5.38477-9.62109h3.51465l3.42481 6.58007 3.4248-6.58007zM249.55518 136.63281a8.29483 8.29483 0 112.38867-5.82422A7.93159 7.93159 0 01249.55518 136.63281zm-9.44043-2.11816a5.25161 5.25161 0 007.25488 0 5.43542 5.43542 0 000-7.42383 5.2263 5.2263 0 00-7.25488 0 5.43539 5.43539 0 000 7.42383zM259.897 139.00977a6.31035 6.31035 0 01-4.32519-1.48633 5.04742 5.04742 0 01-1.69043-3.98828V122.92188h3.08691v10.36523a2.66993 2.66993 0 00.71 1.96 3.773 3.773 0 004.43848 0 2.66993 2.66993 0 00.71-1.96V122.92188H265.936v10.61328a5.04745 5.04745 0 01-1.69043 3.98828A6.34448 6.34448 0 01259.897 139.00977zM277.38037 138.69434l-3.17676-5.47559h-2.36523v5.47559H268.729V122.92188h6.3086a5.23307 5.23307 0 015.25 5.22851 4.79909 4.79909 0 01-.834 2.71484 5.21882 5.21882 0 01-2.208 1.88086l3.49218 5.94825zm-5.542-12.86524v4.66406h3.19922a1.981 1.981 0 001.50976-.6875 2.36377 2.36377 0 00.63086-1.65527 2.32527 2.32527 0 00-.63086-1.64551 1.996 1.996 0 00-1.50976-.67578zM297.61377 125.89648h-6.30859v3.74024h6.12793v2.97461h-6.12793v6.083H288.1958V122.92188h9.418zM309.33057 138.69434l-.94629-2.83887h-6.28614l-.94628 2.83887h-3.35743l5.52051-15.77246h3.85254l5.543 15.77246zm-6.24121-5.74512h4.32617l-2.16309-6.44434zM321.15967 139.00977a7.8914 7.8914 0 01-5.88086-2.36524 8.51142 8.51142 0 010-11.68359 7.91173 7.91173 0 015.88086-2.35352 8.04552 8.04552 0 013.9541 1.002 7.34963 7.34963 0 012.82715 2.71484l-2.68067 1.55469a4.17553 4.17553 0 00-1.668-1.65625 5.40158 5.40158 0 00-6.13965.8457 5.64006 5.64006 0 000 7.457 4.94671 4.94671 0 003.707 1.44336 5.011 5.011 0 002.44433-.59766 4.03979 4.03979 0 001.65625-1.63379l2.68067 1.55469a7.3631 7.3631 0 01-2.81641 2.71582A8.02473 8.02473 0 01321.15967 139.00977zM332.96631 135.7207h6.64648v2.97364h-9.75586V122.92188h9.64258v2.9746h-6.5332v3.35743h5.9707v2.92871h-5.9707zM120.67725 186.69434l-4.416-15.77246h3.2666l3.01953 11.69433 3.29-11.69433h2.65821l3.3125 11.69433 3.01855-11.69433h3.26758l-4.416 15.77246h-3.53808l-2.97364-10.40918-2.95214 10.40918zM148.86377 170.92188h3.08691v15.77246h-3.08691v-6.53418h-5.85742v6.53418H139.897V170.92188h3.10938v6.26367h5.85742zM154.87939 170.92188h3.10938v15.77246h-3.10938zM164.02686 183.7207h6.01562v2.97364h-9.125V170.92188h3.10938zM174.90967 183.7207h6.64648v2.97364h-9.75586V170.92188h9.64258v2.9746h-6.5332v3.35743h5.9707v2.92871h-5.9707zM197.62842 187.14258a9.99636 9.99636 0 01-5.59473-1.48731 7.95 7.95 0 01-3.19726-4.04394l3.77246-2.20606a5.02748 5.02748 0 005.14746 3.4209 4.43209 4.43209 0 002.71777-.67187 2.112 2.112 0 00-.19238-3.53223 16.29538 16.29538 0 00-3.77246-1.42285 23.60676 23.60676 0 01-2.541-.89453 11.00431 11.00431 0 01-2.07812-1.19922 4.88346 4.88346 0 01-1.583-1.90234 6.22763 6.22763 0 01-.543-2.68555 5.99164 5.99164 0 012.1582-4.84375 7.8327 7.8327 0 015.19434-1.80664 8.64749 8.64749 0 014.78027 1.32715 8.92991 8.92991 0 013.21289 3.69238l-3.709 2.14258a4.46706 4.46706 0 00-4.28418-2.877 3.37216 3.37216 0 00-2.15723.623 1.96648 1.96648 0 00-.7832 1.61426 2.0329 2.0329 0 00.87891 1.71 12.23654 12.23654 0 003.373 1.42285q1.02246.32081 1.54981.49512.52734.17724 1.43945.54394a8.71443 8.71443 0 011.40625.6875 11.29469 11.29469 0 011.13477.86328 4.42344 4.42344 0 01.97558 1.11817 6.32557 6.32557 0 01.5752 1.3916 6.25715 6.25715 0 01.23926 1.77441 6.0009 6.0009 0 01-2.25293 4.92383A9.04282 9.04282 0 01197.62842 187.14258zM221.41455 164.31543h4.41113v22.37891h-3.35644l-9.59082-13.68262v13.68262h-4.41211V164.31543h3.35644l9.5918 13.65137zM234.394 182.47461h9.43067v4.21973H229.98193V164.31543h13.6836v4.21973H234.394v4.76367h8.47168v4.15625H234.394zM251.33838 182.47461H260.769v4.21973H246.92627V164.31543h13.68359v4.21973h-9.27148v4.76367h8.47168v4.15625h-8.47168zM268.56885 182.47461H278.064v4.21973H262.94287v-3.51661l9.30274-14.64257H263.1665v-4.21973h14.70606v3.48437zM280.97412 164.31543h4.41211v22.37891h-4.41211zM302.48975 164.31543h4.41113v22.37891h-3.35645l-9.59082-13.68262v13.68262H289.5415V164.31543H292.898l9.5918 13.65137zM333.021 174.67383v1.72656a10.32646 10.32646 0 01-3.06934 7.76758 10.91924 10.91924 0 01-7.92871 2.97461 11.6967 11.6967 0 01-8.584-3.37305 11.14886 11.14886 0 01-3.40527-8.23242 11.54671 11.54671 0 0111.7334-11.66992 11.67948 11.67948 0 015.72266 1.42383 10.53729 10.53729 0 014.02832 3.78711l-3.77246 2.1748a5.93676 5.93676 0 00-2.41407-2.23828 7.50885 7.50885 0 00-3.59668-.86231 7.06391 7.06391 0 00-5.25879 2.09375 7.23138 7.23138 0 00-2.0625 5.291 7.02515 7.02515 0 002.09473 5.22656 7.56126 7.56126 0 005.54688 2.0625 7.40556 7.40556 0 004.23535-1.13476 5.64726 5.64726 0 002.28613-3.11719h-6.77734v-3.90039zM134.28467 231.76953a11.77269 11.77269 0 113.38867-8.26465A11.25489 11.25489 0 01134.28467 231.76953zm-13.39551-3.00586a7.45461 7.45461 0 0010.29492 0 7.71386 7.71386 0 000-10.53418 7.41663 7.41663 0 00-10.29492 0 7.71389 7.71389 0 000 10.53418zM153.05127 234.69434l-4.50781-7.76856H145.187v7.76856H140.7749V212.31543h8.95117a7.422 7.422 0 017.44922 7.417 6.80558 6.80558 0 01-1.18261 3.85156 7.39847 7.39847 0 01-3.13282 2.66993l4.95508 8.44043zM145.187 216.43945v6.61719h4.53906a2.80716 2.80716 0 002.14258-.97461 3.35273 3.35273 0 00.89453-2.34961 3.29679 3.29679 0 00-.89453-2.334 2.83153 2.83153 0 00-2.14258-.959zM179.01123 235.14258a11.19334 11.19334 0 01-8.34473-3.35742 12.07667 12.07667 0 010-16.57618 11.22166 11.22166 0 018.34473-3.34179 11.399 11.399 0 015.61035 1.42383 10.41 10.41 0 014.0127 3.85156l-3.80469 2.20605a5.91711 5.91711 0 00-2.36621-2.34961 7.66094 7.66094 0 00-8.71192 1.19825 8.00454 8.00454 0 000 10.582 7.01746 7.01746 0 005.25977 2.04687 7.11017 7.11017 0 003.46875-.84765 5.72872 5.72872 0 002.34961-2.31739l3.80469 2.20606a10.44593 10.44593 0 01-3.9961 3.85156A11.37633 11.37633 0 01179.01123 235.14258zM209.95752 231.76953a11.77269 11.77269 0 113.38867-8.26465A11.25489 11.25489 0 01209.95752 231.76953zM196.562 228.76367a7.45461 7.45461 0 0010.29492 0 7.71386 7.71386 0 000-10.53418 7.41663 7.41663 0 00-10.29492 0 7.71389 7.71389 0 000 10.53418zM224.63232 235.14258a8.94738 8.94738 0 01-6.13769-2.11133 7.15856 7.15856 0 01-2.39746-5.6582V212.31543h4.37988v14.70605a3.78978 3.78978 0 001.00684 2.78125 5.356 5.356 0 006.29785 0 3.78981 3.78981 0 001.00683-2.78125V212.31543h4.41211v15.05762a7.15853 7.15853 0 01-2.39746 5.6582A8.99677 8.99677 0 01224.63232 235.14258zM259.12842 222.67383v1.72656a10.32646 10.32646 0 01-3.06934 7.76758 10.91924 10.91924 0 01-7.92871 2.97461 11.69667 11.69667 0 01-8.584-3.37305 11.14887 11.14887 0 01-3.40528-8.23242 11.54671 11.54671 0 0111.7334-11.66992 11.67945 11.67945 0 015.72266 1.42383 10.53729 10.53729 0 014.02832 3.78711l-3.77246 2.1748a5.9367 5.9367 0 00-2.41407-2.23828 7.50884 7.50884 0 00-3.59667-.86231 7.06391 7.06391 0 00-5.25879 2.09375 7.23138 7.23138 0 00-2.0625 5.291 7.02514 7.02514 0 002.09472 5.22656 7.56126 7.56126 0 005.54688 2.0625 7.40554 7.40554 0 004.23535-1.13476 5.64726 5.64726 0 002.28613-3.11719h-6.77734v-3.90039zM274.98486 212.31543h4.37989v22.37891h-4.37989v-9.27149h-8.31152v9.27149h-4.41211V212.31543h4.41211v8.8877h8.31152zM283.521 212.31543h4.41211v22.37891H283.521zM305.03662 212.31543h4.41113v22.37891h-3.35644l-9.59082-13.68262v13.68262h-4.41211V212.31543h3.35644l9.5918 13.65137zM335.56787 222.67383v1.72656a10.32649 10.32649 0 01-3.06933 7.76758 10.91926 10.91926 0 01-7.92872 2.97461 11.69667 11.69667 0 01-8.584-3.37305 11.14886 11.14886 0 01-3.40527-8.23242A11.54669 11.54669 0 01324.314 211.86719a11.67945 11.67945 0 015.72266 1.42383 10.53722 10.53722 0 014.02832 3.78711l-3.77246 2.1748a5.93667 5.93667 0 00-2.41406-2.23828 7.50885 7.50885 0 00-3.59668-.86231 7.06391 7.06391 0 00-5.25879 2.09375 7.23138 7.23138 0 00-2.0625 5.291 7.02511 7.02511 0 002.09473 5.22656 7.56122 7.56122 0 005.54687 2.0625 7.40554 7.40554 0 004.23535-1.13476 5.64732 5.64732 0 002.28614-3.11719h-6.77735v-3.90039z"/></svg>