<svg xmlns="http://www.w3.org/2000/svg" data-name="Layer 1" viewBox="0 0 450 600"><defs><clipPath id="a"><circle cx="225" cy="226.152" r="106.831" fill="none"/></clipPath></defs><rect width="289.218" height="435.083" x="80.391" y="82.458" fill="#817abf" rx="12.858"/><path fill="#2d2d70" d="M356.751,522.57422H93.249a17.91038,17.91038,0,0,1-17.89013-17.89063V95.31641A17.91038,17.91038,0,0,1,93.249,77.42578H356.751a17.91038,17.91038,0,0,1,17.89013,17.89063V504.68359A17.91038,17.91038,0,0,1,356.751,522.57422ZM93.249,87.49023a7.83485,7.83485,0,0,0-7.82568,7.82618V504.68359a7.83485,7.83485,0,0,0,7.82568,7.82618H356.751a7.83485,7.83485,0,0,0,7.82568-7.82618V95.31641a7.83485,7.83485,0,0,0-7.82568-7.82618Z"/><path fill="#2e2b70" d="M175.124 390.666l-1.35058-4.998H163.28906l-1.35058 4.998H153.209l10.39454-34.65039h9.81054L183.80859 390.666zm-9.76562-12.6211h6.34473l-3.19434-11.78125zM205.499 365.916h8.2793l-8.415 24.75h-8.09961l-8.415-24.75h8.28028l4.18457 14.207zM231.957 391.35938a11.169 11.169 0 01-8.50488-3.78711 14.02657 14.02657 0 010-18.5625 11.46868 11.46868 0 0117.03223 0 14.09143 14.09143 0 010 18.5625A11.14952 11.14952 0 01231.957 391.35938zm0-7.91993a4.18129 4.18129 0 003.2627-1.43554 6.01677 6.01677 0 000-7.42578 4.18764 4.18764 0 00-3.2627-1.43555 4.13729 4.13729 0 00-3.2168 1.43555 6.01315 6.01315 0 000 7.42578A4.13094 4.13094 0 00231.957 383.43945zM260.15039 362.47656a3.97669 3.97669 0 01-6.07519 0 4.80644 4.80644 0 01-1.28223-3.34179 4.715 4.715 0 011.28223-3.31641 4.02027 4.02027 0 016.07519 0 4.715 4.715 0 011.28223 3.31641A4.80648 4.80648 0 01260.15039 362.47656zM253.37793 390.666v-24.75h7.46973v24.75zM287.12793 356.01563h7.46973V390.666h-7.46973v-2.27735a7.61846 7.61846 0 01-6.38965 2.97071 9.34593 9.34593 0 01-7.53808-3.73633 15.85267 15.85267 0 010-18.66211 9.34785 9.34785 0 017.53808-3.73828 7.61845 7.61845 0 016.38965 2.9707zm-8.14453 26.18554a4.67764 4.67764 0 006.83984 0 6.51171 6.51171 0 000-7.82031 4.68183 4.68183 0 00-6.83984 0 6.5078 6.5078 0 000 7.82031zM146.209 410.20117v5.17969h-7.415V437.666h-5.415V415.38086h-7.377v-5.17969zM170.92871 434.07617a14.44643 14.44643 0 114.15918-10.14258A13.81342 13.81342 0 01170.92871 434.07617zm-16.44043-3.6875a9.15406 9.15406 0 0012.63477 0 9.47047 9.47047 0 000-12.92969 9.09836 9.09836 0 00-12.63477 0 9.46782 9.46782 0 000 12.92969zM189.09473 438.2168a10.98257 10.98257 0 01-7.53321-2.58985 8.78972 8.78972 0 01-2.94238-6.94531V410.20117h5.375V428.25a4.65479 4.65479 0 001.23633 3.41406 6.58283 6.58283 0 007.72949 0 4.65426 4.65426 0 001.23535-3.41406V410.20117h5.415v18.48047A8.78972 8.78972 0 01196.668 435.627 11.04134 11.04134 0 01189.09473 438.2168zM217.66016 438.2168a13.74089 13.74089 0 01-10.24121-4.1211 14.8226 14.8226 0 010-20.34375 13.76983 13.76983 0 0110.24121-4.10156 14.01991 14.01991 0 016.88574 1.74609 12.81847 12.81847 0 014.9248 4.72852l-4.66992 2.707a7.24885 7.24885 0 00-2.90332-2.88281 9.392 9.392 0 00-10.69141 1.4707 9.82246 9.82246 0 000 12.98828 8.613 8.613 0 006.45411 2.50977 8.72747 8.72747 0 004.25683-1.03906 7.02563 7.02563 0 002.88379-2.84375l4.66992 2.707a12.8251 12.8251 0 01-4.90527 4.72851A13.96578 13.96578 0 01217.66016 438.2168zM248.5791 410.20117h5.375V437.666h-5.375V426.28711H238.377V437.666h-5.41406V410.20117H238.377v10.90821H248.5791zM259.21191 410.20117H264.626V437.666h-5.41407zM285.77441 410.20117h5.415V437.666h-4.12011l-11.77149-16.793v16.793h-5.41406V410.20117h4.11914l11.77148 16.75391zM323.40234 422.91406v2.11719a12.675 12.675 0 01-3.7666 9.53516 13.39718 13.39718 0 01-9.73047 3.65039 14.35548 14.35548 0 01-10.53515-4.14063 13.67887 13.67887 0 01-4.17871-10.10351 14.1731 14.1731 0 0114.39941-14.32227 14.36282 14.36282 0 017.02344 1.74609 12.95453 12.95453 0 014.94433 4.6504l-4.62988 2.668a7.27776 7.27776 0 00-2.96289-2.74609 9.20413 9.20413 0 00-4.41406-1.06055 8.67222 8.67222 0 00-6.4541 2.57032 8.87771 8.87771 0 00-2.53125 6.49414 8.62329 8.62329 0 002.57031 6.416 9.27857 9.27857 0 006.80762 2.5293 9.078 9.078 0 005.19921-1.39258 6.93041 6.93041 0 002.80567-3.82422h-8.31836v-4.78711zM162.94434 484.666l-1.64746-4.94336H150.34961l-1.64844 4.94336h-5.8457l9.6123-27.46485h6.71l9.65235 27.46485zm-10.86817-10.00586h7.53321l-3.76661-11.22071zM187.5459 457.20117h5.415V484.666h-4.12012l-11.77148-16.793v16.793h-5.41407V457.20117h4.11914l11.77149 16.75391zM219.95605 457.20117l-9.417 16.75391V484.666h-5.376V473.95508l-9.377-16.75391h6.12012l5.96484 11.457 5.96387-11.457zM243.85059 481.07617a14.44643 14.44643 0 114.15918-10.14258A13.81342 13.81342 0 01243.85059 481.07617zm-16.44043-3.6875a9.154 9.154 0 0012.63476 0 9.47045 9.47045 0 000-12.92969 9.09835 9.09835 0 00-12.63476 0 9.46782 9.46782 0 000 12.92969zM267.86328 457.20117h5.415V484.666H269.1582l-11.77148-16.793v16.793h-5.41406V457.20117h4.11914l11.77148 16.75391zM283.94922 479.48633h11.57519V484.666H278.53516V457.20117h16.793v5.17969H283.94922v5.8457h10.39844v5.09961H283.94922zM304.54883 484.19531a3.31726 3.31726 0 11.98047-2.35351A3.21089 3.21089 0 01304.54883 484.19531z"/><circle cx="225" cy="226.152" r="106.831" fill="#fffae6"/><path d="M181.46045 119.09613a65.19744 65.19744 0 018.01807 6.40222c2.53076 2.27472 4.687 4.92237 7.00293 7.41126l6.91064 7.503c2.272 2.53271 4.57031 5.03888 6.81885 7.59466l-.18457.18347c-2.54346-2.26275-5.03662-4.57513-7.55664-6.8609l-7.46436-6.95257c-2.47558-2.32965-5.11133-4.50055-7.37158-7.04437a65.14289 65.14289 0 01-6.35742-8.05335zM231.127 143.71851c-.20752-3.35834-.34521-6.71674-.52-10.07508l-.39062-10.07513c-.11279-3.35834-.45068-6.71674-.25977-10.07507a63.68268 63.68268 0 011.17041-10.07508h.26026a63.74109 63.74109 0 011.1709 10.07508c.19091 3.35833-.14747 6.71673-.26026 10.07507l-.39014 10.07513c-.17529 3.35834-.3125 6.71674-.5205 10.07508zM250.93994 148.00531c2.35547-2.55884 4.75928-5.067 7.13721-7.60242l7.228-7.50872c2.42089-2.49061 4.686-5.14325 7.31787-7.41511a68.00654 68.00654 0 018.311-6.38488l.18067.18731a68.00986 68.00986 0 01-6.686 8.07074c-2.36719 2.54663-5.10156 4.71253-7.6792 7.04047L258.98 141.33948c-2.62109 2.2832-5.21582 4.5935-7.85937 6.85315z"/><g clip-path="url(#a)"><path fill="#f94b58" d="M309.5681,337.17524l-57.844-77.66726a31.20365,31.20365,0,0,0,10.3777-25.11513L275.21541,210.167s-3.66785-6.86637-20.185,11.744l12.48069-51.13438s-5.34842-.7266-8.54933,9.05192L245.494,212.55418l8.93114-50.70471a6.25223,6.25223,0,0,0-5.58938,3.553c-1.62894,3.6371-14.47253,43.8806-14.47253,43.8806l5.619-45.53731s-5.50948,1.29419-7.59255,8.274-8.37393,35.744-8.37393,35.744l-2.7279-26.69843s-2.81716-2.65237-5.14961,12.01039-2.663,22.10767-4.83265,28.05442c-.452,1.23891-.94751,2.58027-1.44874,3.92762a39.53628,39.53628,0,0,0-.37941,26.70621,60.03209,60.03209,0,0,0,9.44386,17.58364c12.056,15.2557,53.076,78.62344,53.076,78.62344"/><path fill="#ffc74a" d="M140.4319,313.27589l49.25271-43.85515s-5.9598-4.61041-6.522-17.65451L173.94174,209.148s6.94373-4.02,13.18466,17.65451l-6.32527-60.38517s5.39756,0,7.253,10.12042l8.9397,34.24076-2.02408-51.44547a6.25225,6.25225,0,0,1,5.06021,4.27307c1.12449,3.82327,8.43368,45.42943,8.43368,45.42943l.56225-45.87923s5.28511,2.02408,6.4096,9.22083,3.48592,36.546,3.48592,36.546l6.29715-26.08819s3.14858-2.249,3.48592,12.5943-.33734,22.26493,1.012,28.44963S233.09,238.72214,233.09,238.72214s8.771,21.47778-5.22889,34.97167S160.729,342.51266,160.729,342.51266"/><path d="M181.60378 174.08s5.23519.64211 3.95923-4.35361c0 0-2.794-5.38929-4.76188-3.309zM194.96972 159.33307l.30545 7.76356a4.272 4.272 0 002.36828.33665 3.0377 3.0377 0 002.37076-3.95009C199.37518 161.45867 197.95181 158.75821 194.96972 159.33307zM209.02586 163.15634l-.14056 7.10574a1.93341 1.93341 0 002.94295.9693 4.27531 4.27531 0 001.5784-5.54664C212.62552 164.04313 211.26857 162.4658 209.02586 163.15634zM225.49965 181.71044l-1.7851 7.35525s3.5142 1.61258 4.1396-2.67455C227.85415 186.39114 227.80486 181.42932 225.49965 181.71044zM189.66357 269.35364a3.55348 3.55348 0 011.82471-.08087l.458.08221.43848.143a3.9487 3.9487 0 01.854.35339 11.0171 11.0171 0 012.9375 2.1842 23.04652 23.04652 0 014.03906 5.958c.46192 1.10193.91406 2.20563 1.32715 3.31781q.54931 1.69694 1.14648 3.3634c.35694 1.12616.7334 2.24451 1.13819 3.35486l1.13525 3.35834a32.13377 32.13377 0 011.76367 6.92786 25.39008 25.39008 0 01.0625 7.24121 8.01583 8.01583 0 01-1.40234 3.57348 3.43942 3.43942 0 01-1.72168 1.218 3.827 3.827 0 01-1.04492.17175 7.71672 7.71672 0 01-1.00049-.11261 7.63958 7.63958 0 01-5.17529-4.90564l.12646-.06109a9.5909 9.5909 0 002.27 2.575 6.70544 6.70544 0 002.98145 1.3114 2.35083 2.35083 0 002.48388-1.01331 7.30427 7.30427 0 001.00293-2.99652 30.25871 30.25871 0 00.104-6.85015 48.51666 48.51666 0 00-1.19141-6.87153c-.28613-1.13781-.49951-2.30108-.84912-3.42211-.34521-1.12244-.71924-2.23688-1.11182-3.34351-.43847-1.08923-.94384-2.15118-1.438-3.21253-.52881-1.04492-1.1001-2.06512-1.64747-3.08972a39.07416 39.07416 0 00-3.79736-5.75164 12.64706 12.64706 0 00-2.50537-2.27253 5.19647 5.19647 0 00-3.1665-1.01587z"/><polygon points="187.351 226.76 185.763 235.405 183.441 216.812 187.351 226.76"/><polygon points="197.226 210.8 194.97 219.55 194.76 202.223 197.226 210.8"/><polygon points="208.703 209.05 206.608 217.357 206.608 198.563 208.703 209.05"/><polygon points="219.164 208.944 217.994 197.847 217.066 214.63 219.164 208.944"/><path d="M251.61056 259.35548s-3.28374 1.85648-4.18333 2.25l8.06475 2.96155zM233.08984 238.72217a15.95856 15.95856 0 012.75489-6.8288 21.017 21.017 0 015.26806-5.223l1.57813-.993c.53369-.31653 1.10693-.56195 1.6582-.846a26.596 26.596 0 013.44141-1.399c1.17627-.38391 2.39062-.64154 3.58105-.96472l3.65869-.55664-3.60742.78009c-1.17187.36743-2.36621.661-3.51514 1.08209a32.84045 32.84045 0 00-3.3706 1.441c-.53955.28607-1.10059.53333-1.62158.85047l-1.5376.99127A21.54323 21.54323 0 00236.13818 232.1 17.41278 17.41278 0 00233.08984 238.72217zM274.79661 210.94073s-2.72862-.65365-4.49594 2.89491a3.00092 3.00092 0 00-.312 1.70692 1.28553 1.28553 0 001.64456 1.24215zM228.8252 212.18488q2.45361.47552 4.91308.85534c1.6416.24689 3.28418.47833 4.93506.63031 1.648.18384 3.30273.26984 4.959.326 1.65723.03675 3.313-.01672 4.97559-.14367a29.46059 29.46059 0 01-4.977.50408 50.06223 50.06223 0 01-5.0044-.22082A52.4415 52.4415 0 01228.8252 212.18488z"/></g><path fill="#2d2d70" d="M225,338.01563A111.86329,111.86329,0,1,1,336.86328,226.15234,111.99,111.99,0,0,1,225,338.01563Zm0-213.66211A101.79883,101.79883,0,1,0,326.79883,226.15234,101.91441,101.91441,0,0,0,225,124.35352Z"/><rect width="10.065" height="212.602" x="211.514" y="126.311" fill="#2d2d70" transform="rotate(-37.341 216.546 232.612)"/></svg>