<svg xmlns="http://www.w3.org/2000/svg" data-name="Layer 1" viewBox="0 0 450 600"><defs><clipPath id="a"><circle cx="225" cy="286.011" r="99.791" fill="none"/></clipPath><clipPath id="b"><path fill="none" d="M168.43729,391.93607s44.19428-74.766,83.881-94.38032c0,0,19.886,6.10456,24.9158,11.68375,0,0-4.01557,58.57546-17.58362,82.69657"/></clipPath></defs><rect width="289.218" height="435.083" x="80.391" y="82.459" fill="#fff" rx="12.858"/><path fill="#f94b58" d="M356.751,522.5415H93.24951a17.87808,17.87808,0,0,1-17.8584-17.85742V95.31689A17.87891,17.87891,0,0,1,93.24951,77.4585H356.751a17.87881,17.87881,0,0,1,17.85791,17.85839V504.68408A17.878,17.878,0,0,1,356.751,522.5415ZM93.24951,87.4585a7.86746,7.86746,0,0,0-7.8584,7.85839V504.68408a7.86662,7.86662,0,0,0,7.8584,7.85742H356.751a7.86621,7.86621,0,0,0,7.85791-7.85742V95.31689A7.867,7.867,0,0,0,356.751,87.4585Z"/><path fill="#f94b58" d="M88.77348,80.68037H361.82859a7.97244,7.97244,0,0,1,7.97244,7.97244V153.496a0,0,0,0,1,0,0h-289a0,0,0,0,1,0,0V88.65281A7.97244,7.97244,0,0,1,88.77348,80.68037Z"/><path fill="#fff" d="M146.94727 134.0415a13.55362 13.55362 0 110-27.10449 13.34338 13.34338 0 016.47851 1.61914 12.266 12.266 0 014.69141 4.41211l-5.1377 2.97852a5.87251 5.87251 0 00-2.458-2.36426 7.59015 7.59015 0 00-3.57421-.83789 7.361 7.361 0 00-5.52832 2.12207 8.68117 8.68117 0 000 11.24414 7.361 7.361 0 005.52832 2.12207 7.55967 7.55967 0 003.59277-.85645 5.7853 5.7853 0 002.43945-2.3457l5.1377 2.97852a11.97855 11.97855 0 01-4.6543 4.41211A13.41369 13.41369 0 01146.94727 134.0415zM181.2002 133.52l-1.30274-4.0957H170.2168l-1.30274 4.0957h-6.51562l8.86133-26.0625h7.59472l8.86133 26.0625zm-9.19629-9.68066h6.10644l-3.05273-9.56836zM210.01855 131.62158a11.99 11.99 0 01-14.44628 0 8.136 8.136 0 01-2.82911-6.51562V107.45752h5.957v17.12695q0 3.64893 4.0957 3.64844 4.09423 0 4.0957-3.64844V107.45752h5.957V125.106A8.1367 8.1367 0 01210.01855 131.62158zM238.35156 107.45752v5.73437h-6.70117V133.52h-5.957V113.19189h-6.70215v-5.73437zM244.68164 107.45752h5.957V133.52h-5.957zM280.87012 130.13232a13.75493 13.75493 0 113.94629-9.64355A13.14192 13.14192 0 01280.87012 130.13232zm-15.02344-4.05859a7.87594 7.87594 0 0010.835 0 8.25037 8.25037 0 000-11.16992 7.87594 7.87594 0 00-10.835 0 8.2504 8.2504 0 000 11.16992zM306.41016 107.45752h5.957V133.52h-4.46778l-10.05175-14.14844V133.52h-5.957v-26.0625h4.46777L306.41016 121.606z"/><circle cx="225" cy="286.011" r="99.791" fill="#fffae6"/><g clip-path="url(#a)"><path d="M200.72431,241.64633s2.73951-8.02284,7.4358-10.371,5.87037-3.91358,5.87037-3.91358.39136,4.50061,0,5.67469,2.7395-2.73951,4.10926-5.67469c0,0,9.39258.97839,10.958-10.56666,0,0,14.48024-1.76111,16.82839,4.10925s5.08765,17.02407,4.6963,20.742c0,0,3.13086,2.93518,3.7179-14.28456,0,0,.587-4.6963,2.93518-6.06605s-5.479-8.60987-5.479-8.60987-.19568-3.52222-1.17407-5.08765S244.165,205.25,242.991,204.85869s-1.56543-4.69629-3.52222-4.69629-4.30494.97839-7.04444-2.54383-6.84877,0-6.84877,0a6.21648,6.21648,0,0,1-5.08765.9784c-3.32654-.587-3.52222-2.54383-6.84876.97839s-2.7395,3.91358-6.65308,3.52222-6.066,1.17408-6.26173,4.10926-1.17407,6.4574-3.32654,8.02284-4.10926,5.08765-1.95679,7.43579,2.73951,12.1321,3.13086,15.06728A5.17755,5.17755,0,0,0,200.72431,241.64633Z"/><path d="M208.29056 238.90683a6.95464 6.95464 0 014.97324-4.02247 5.478 5.478 0 013.39765.43875 5.63235 5.63235 0 012.39146 2.214 15.94229 15.94229 0 00-2.8209-1.00581 8.1045 8.1045 0 00-1.34974-.15715 6.7531 6.7531 0 00-1.32559.11388 9.88615 9.88615 0 00-2.61977.91232C210.06549 237.82753 209.205 238.34155 208.29056 238.90683zM232.03293 237.24517a7.14847 7.14847 0 012.4221-1.7892 8.38934 8.38934 0 012.96529-.77992 6.52583 6.52583 0 013.09526.524 4.80771 4.80771 0 012.27971 2.04513 12.189 12.189 0 00-2.66924-.82355 11.13812 11.13812 0 00-2.59964-.11887 22.367 22.367 0 00-2.66955.36617C233.947 236.84168 233.02727 237.04932 232.03293 237.24517zM214.55229 245.59252c3.14775 0 3.153-4.892 0-4.892-3.14775 0-3.153 4.892 0 4.892zM237.3815 245.7882c3.14775 0 3.153-4.892 0-4.892-3.14776 0-3.153 4.892 0 4.892zM225.1842 318.88477c.64118 9.09912.78852 18.19824.81482 27.29711-.023 9.09913-.1698 18.19825-.81482 27.29737-.64508-9.09912-.79193-18.19824-.81488-27.29737C224.39569 337.083 224.543 327.98389 225.1842 318.88477z"/><path fill="#ce324d" d="M225.55644,238.82218c2.48729,0,2.49141-3.86554,0-3.86554-2.48729,0-2.49141,3.86554,0,3.86554Z"/><path d="M253.48734,237.20288a18.76336,18.76336,0,0,1,2.87152,4.37061,10.85956,10.85956,0,0,1,1.15237,5.1521,7.014,7.014,0,0,1-.68661,2.62378,7.97949,7.97949,0,0,1-1.63584,2.16894,13.67225,13.67225,0,0,1-4.61224,2.68408l.29577-.36352a50.93537,50.93537,0,0,1-1.29577,6.23926A59.53024,59.53024,0,0,1,247.6,266.13232a45.76914,45.76914,0,0,1-2.75074,5.76929,31.13515,31.13515,0,0,1-3.81463,5.17188l.14959-.3711q-.08532,5.17457-.24353,10.3479l-.013-.11523a54.52787,54.52787,0,0,1,1.07251,11.5188,37.10917,37.10917,0,0,1-1.7323,11.39453,23.32176,23.32176,0,0,1-2.47027,5.23169,18.21989,18.21989,0,0,1-3.90552,4.2793,22.628,22.628,0,0,1-16.57269,4.05029,12.37856,12.37856,0,0,1-5.44733-2.28443,12.059,12.059,0,0,1-3.6286-4.708,20.03549,20.03549,0,0,1-1.50751-5.69873,42.913,42.913,0,0,1,.35114-11.627,67.88719,67.88719,0,0,1,2.68786-11.28882l-.03686.21949.02264-11.41993.12488.38282a40.88743,40.88743,0,0,1-3.20917-5.34278,59.14583,59.14583,0,0,1-2.46881-5.688,70.30954,70.30954,0,0,1-3.3078-11.9065l.20838.29175-2.01111-1.30933c-.61554-.51635-1.25061-1.01538-1.81855-1.58471a8.42008,8.42008,0,0,1-2.3067-4.2229,7.33507,7.33507,0,0,1,.84735-4.68555,12.73053,12.73053,0,0,1,2.96778-3.67969l.08258.09888a12.50989,12.50989,0,0,0-2.75061,3.72851,6.896,6.896,0,0,0-.61713,4.437,7.99665,7.99665,0,0,0,2.26959,3.83447c.55262.52051,1.17487.97827,1.771,1.45141l1.97186,1.20093.16925.103.03937.18872c.41174,1.97607.95349,3.94946,1.52954,5.896q.879,2.92127,1.99371,5.7583a58.02167,58.02167,0,0,0,2.52021,5.52636,46.67961,46.67961,0,0,0,3.16876,5.13794l.12457.177.00043.20629.02264,11.41993.00019.10449-.03711.11523a77.01852,77.01852,0,0,0-2.66022,11.05054,41.70513,41.70513,0,0,0-.463,11.28027,20.12889,20.12889,0,0,0,1.3363,5.39893,11.01326,11.01326,0,0,0,3.21979,4.3833,11.46142,11.46142,0,0,0,4.99689,2.217,21.93114,21.93114,0,0,0,16.12725-3.584,18.71923,18.71923,0,0,0,6.27741-9.26831,34.66974,34.66974,0,0,0,1.5332-11.26587,54.22827,54.22827,0,0,0-1.38159-11.301l-.01282-.05493-.00018-.06079q-.01711-5.176.05505-10.35059l.00257-.208.14715-.16358a36.15949,36.15949,0,0,0,6.37427-10.58252,59.95218,59.95218,0,0,0,3.38324-12.01416l.04877-.28076.24725-.08325a12.86762,12.86762,0,0,0,4.39972-2.39234,7.26477,7.26477,0,0,0,1.53748-1.92236,6.36584,6.36584,0,0,0,.68612-2.36328,10.37021,10.37021,0,0,0-.89721-4.9458,20.14378,20.14378,0,0,0-2.61316-4.44312Z"/><path d="M201.31134 253.97406c-12.32791-6.84871-2.48294-15.06731-2.48294-15.06731l7.10072-5.99614c-3.52679-14.31982-7.02253-20.39121-8.98668-16.29442 0 0-41.22009 40.55508 13.2447 59.66954C203.67309 267.13666 201.31134 253.97406 201.31134 253.97406zM257.27543 221.29589c-1.83474-3.37705-4.35912 4.70434-6.78654 16.03923l2.94973-.08992s10.29418 11.83687-3.0119 16.53339a55.08685 55.08685 0 01-5.90534 17.54712c-1.06378 7.01526-1.726 11.88067-1.726 11.88067C302.75574 261.70476 257.27543 221.29589 257.27543 221.29589z"/><path fill="#f8a037" d="M198.58419 247.73684l-3.479 7.52887 2.57549 1.68978.9035-1.68978zM252.68522 248.54612l3.479 7.52887-2.57549 1.68978-.90349-1.68978z"/><path fill="#ffc74a" d="M312.3181,391.93607s-4.81833-66.39823-24.19054-76.96489-35.80924-17.41543-35.80924-17.41543L240.47975,286.0107l-.927,14.52a14.325,14.325,0,0,1-4.4676,9.50892l-9.37916,8.84516h-.52181L215.805,310.0396a14.325,14.325,0,0,1-4.4676-9.50892l-.927-14.52-11.83858,11.54505s-16.437,6.84877-35.80924,17.41543-29.07072,76.96489-29.07072,76.96489"/><polygon points="168.437 339.235 168.437 376.414 165.698 383.85 168.437 339.235"/><polygon points="282.127 339.235 282.127 376.414 279.387 383.85 282.127 339.235"/><path fill="#f94b58" d="M159.83394,405.19751s52.79763-88.02745,92.48438-107.64176c0,0,19.886,6.10456,24.9158,11.68375,0,0-8.16,87.14444-21.72807,111.26555"/><g clip-path="url(#b)"><path fill="#956024" d="M149.30459 287.10936c3.41605 0 3.42171-5.30894 0-5.30894-3.416 0-3.42171 5.30894 0 5.30894zM165.411 287.10936c3.416 0 3.42171-5.30894 0-5.30894-3.41605 0-3.42171 5.30894 0 5.30894zM181.51743 287.10936c3.41605 0 3.4217-5.30894 0-5.30894-3.416 0-3.42171 5.30894 0 5.30894zM197.62384 287.10936c3.41605 0 3.42171-5.30894 0-5.30894-3.41605 0-3.42171 5.30894 0 5.30894zM149.30459 319.32219c3.41605 0 3.42171-5.30894 0-5.30894-3.416 0-3.42171 5.30894 0 5.30894zM165.411 319.32219c3.416 0 3.42171-5.30894 0-5.30894-3.41605 0-3.42171 5.30894 0 5.30894zM181.51743 319.32219c3.41605 0 3.4217-5.30894 0-5.30894-3.416 0-3.42171 5.30894 0 5.30894zM197.62384 319.32219c3.41605 0 3.42171-5.30894 0-5.30894-3.41605 0-3.42171 5.30894 0 5.30894zM158.00206 303.21577c3.41605 0 3.42171-5.30894 0-5.30894-3.41605 0-3.42171 5.30894 0 5.30894zM174.10847 303.21577c3.416 0 3.42171-5.30894 0-5.30894-3.41605 0-3.4217 5.30894 0 5.30894zM190.21489 303.21577c3.41605 0 3.42171-5.30894 0-5.30894-3.416 0-3.42171 5.30894 0 5.30894zM206.32131 303.21577c3.416 0 3.4217-5.30894 0-5.30894-3.41605 0-3.42171 5.30894 0 5.30894zM158.00206 335.42861c3.41605 0 3.42171-5.30894 0-5.30894-3.41605 0-3.42171 5.30894 0 5.30894zM174.10847 335.42861c3.416 0 3.42171-5.30894 0-5.30894-3.41605 0-3.4217 5.30894 0 5.30894zM190.21489 335.42861c3.41605 0 3.42171-5.30894 0-5.30894-3.416 0-3.42171 5.30894 0 5.30894zM206.32131 335.42861c3.416 0 3.4217-5.30894 0-5.30894-3.41605 0-3.42171 5.30894 0 5.30894zM149.30459 351.535c3.41605 0 3.42171-5.30894 0-5.30894-3.416 0-3.42171 5.30894 0 5.30894zM165.411 351.535c3.416 0 3.42171-5.30894 0-5.30894-3.41605 0-3.42171 5.30894 0 5.30894zM181.51743 351.535c3.41605 0 3.4217-5.30894 0-5.30894-3.416 0-3.42171 5.30894 0 5.30894zM197.62384 351.535c3.41605 0 3.42171-5.30894 0-5.30894-3.41605 0-3.42171 5.30894 0 5.30894zM149.30459 383.74786c3.41605 0 3.42171-5.30894 0-5.30894-3.416 0-3.42171 5.30894 0 5.30894zM165.411 383.74786c3.416 0 3.42171-5.30894 0-5.30894-3.41605 0-3.42171 5.30894 0 5.30894zM181.51743 383.74786c3.41605 0 3.4217-5.30894 0-5.30894-3.416 0-3.42171 5.30894 0 5.30894zM197.62384 383.74786c3.41605 0 3.42171-5.30894 0-5.30894-3.41605 0-3.42171 5.30894 0 5.30894zM158.00206 367.64144c3.41605 0 3.42171-5.30894 0-5.30894-3.41605 0-3.42171 5.30894 0 5.30894zM174.10847 367.64144c3.416 0 3.42171-5.30894 0-5.30894-3.41605 0-3.4217 5.30894 0 5.30894zM190.21489 367.64144c3.41605 0 3.42171-5.30894 0-5.30894-3.416 0-3.42171 5.30894 0 5.30894zM206.32131 367.64144c3.416 0 3.4217-5.30894 0-5.30894-3.41605 0-3.42171 5.30894 0 5.30894zM158.00206 399.85427c3.41605 0 3.42171-5.30894 0-5.30894-3.41605 0-3.42171 5.30894 0 5.30894zM174.10847 399.85427c3.416 0 3.42171-5.30894 0-5.30894-3.41605 0-3.4217 5.30894 0 5.30894zM190.21489 399.85427c3.41605 0 3.42171-5.30894 0-5.30894-3.416 0-3.42171 5.30894 0 5.30894zM206.32131 399.85427c3.416 0 3.4217-5.30894 0-5.30894-3.41605 0-3.42171 5.30894 0 5.30894zM213.73026 287.10936c3.41605 0 3.42171-5.30894 0-5.30894-3.416 0-3.42171 5.30894 0 5.30894zM213.73026 319.32219c3.41605 0 3.42171-5.30894 0-5.30894-3.416 0-3.42171 5.30894 0 5.30894zM222.42772 303.21577c3.41605 0 3.42171-5.30894 0-5.30894-3.416 0-3.42171 5.30894 0 5.30894zM222.42772 335.42861c3.41605 0 3.42171-5.30894 0-5.30894-3.416 0-3.42171 5.30894 0 5.30894zM213.73026 351.535c3.41605 0 3.42171-5.30894 0-5.30894-3.416 0-3.42171 5.30894 0 5.30894zM213.73026 383.74786c3.41605 0 3.42171-5.30894 0-5.30894-3.416 0-3.42171 5.30894 0 5.30894zM222.42772 367.64144c3.41605 0 3.42171-5.30894 0-5.30894-3.416 0-3.42171 5.30894 0 5.30894zM222.42772 399.85427c3.41605 0 3.42171-5.30894 0-5.30894-3.416 0-3.42171 5.30894 0 5.30894zM229.83667 287.10936c3.41605 0 3.42171-5.30894 0-5.30894-3.416 0-3.4217 5.30894 0 5.30894zM229.83667 319.32219c3.41605 0 3.42171-5.30894 0-5.30894-3.416 0-3.4217 5.30894 0 5.30894zM238.53414 303.21577c3.416 0 3.42171-5.30894 0-5.30894-3.41605 0-3.42171 5.30894 0 5.30894zM238.53414 335.42861c3.416 0 3.42171-5.30894 0-5.30894-3.41605 0-3.42171 5.30894 0 5.30894zM229.83667 351.535c3.41605 0 3.42171-5.30894 0-5.30894-3.416 0-3.4217 5.30894 0 5.30894zM229.83667 383.74786c3.41605 0 3.42171-5.30894 0-5.30894-3.416 0-3.4217 5.30894 0 5.30894zM238.53414 367.64144c3.416 0 3.42171-5.30894 0-5.30894-3.41605 0-3.42171 5.30894 0 5.30894zM238.53414 399.85427c3.416 0 3.42171-5.30894 0-5.30894-3.41605 0-3.42171 5.30894 0 5.30894zM245.94309 287.10936c3.416 0 3.42171-5.30894 0-5.30894-3.41605 0-3.42171 5.30894 0 5.30894zM245.94309 319.32219c3.416 0 3.42171-5.30894 0-5.30894-3.41605 0-3.42171 5.30894 0 5.30894zM254.64056 303.21577c3.416 0 3.4217-5.30894 0-5.30894-3.416 0-3.42171 5.30894 0 5.30894zM254.64056 335.42861c3.416 0 3.4217-5.30894 0-5.30894-3.416 0-3.42171 5.30894 0 5.30894zM245.94309 351.535c3.416 0 3.42171-5.30894 0-5.30894-3.41605 0-3.42171 5.30894 0 5.30894zM245.94309 383.74786c3.416 0 3.42171-5.30894 0-5.30894-3.41605 0-3.42171 5.30894 0 5.30894zM254.64056 367.64144c3.416 0 3.4217-5.30894 0-5.30894-3.416 0-3.42171 5.30894 0 5.30894zM254.64056 399.85427c3.416 0 3.4217-5.30894 0-5.30894-3.416 0-3.42171 5.30894 0 5.30894zM262.04951 287.10936c3.416 0 3.42171-5.30894 0-5.30894-3.416 0-3.42171 5.30894 0 5.30894zM262.04951 319.32219c3.416 0 3.42171-5.30894 0-5.30894-3.416 0-3.42171 5.30894 0 5.30894zM270.747 303.21577c3.41605 0 3.42171-5.30894 0-5.30894-3.416 0-3.42171 5.30894 0 5.30894zM270.747 335.42861c3.41605 0 3.42171-5.30894 0-5.30894-3.416 0-3.42171 5.30894 0 5.30894zM262.04951 351.535c3.416 0 3.42171-5.30894 0-5.30894-3.416 0-3.42171 5.30894 0 5.30894zM262.04951 383.74786c3.416 0 3.42171-5.30894 0-5.30894-3.416 0-3.42171 5.30894 0 5.30894zM270.747 367.64144c3.41605 0 3.42171-5.30894 0-5.30894-3.416 0-3.42171 5.30894 0 5.30894zM270.747 399.85427c3.41605 0 3.42171-5.30894 0-5.30894-3.416 0-3.42171 5.30894 0 5.30894zM278.15592 287.10936c3.41605 0 3.42171-5.30894 0-5.30894-3.416 0-3.4217 5.30894 0 5.30894zM278.15592 319.32219c3.41605 0 3.42171-5.30894 0-5.30894-3.416 0-3.4217 5.30894 0 5.30894zM286.85339 303.21577c3.416 0 3.42171-5.30894 0-5.30894-3.416 0-3.42171 5.30894 0 5.30894zM286.85339 335.42861c3.416 0 3.42171-5.30894 0-5.30894-3.416 0-3.42171 5.30894 0 5.30894zM278.15592 351.535c3.41605 0 3.42171-5.30894 0-5.30894-3.416 0-3.4217 5.30894 0 5.30894zM278.15592 383.74786c3.41605 0 3.42171-5.30894 0-5.30894-3.416 0-3.4217 5.30894 0 5.30894zM286.85339 367.64144c3.416 0 3.42171-5.30894 0-5.30894-3.416 0-3.42171 5.30894 0 5.30894zM286.85339 399.85427c3.416 0 3.42171-5.30894 0-5.30894-3.416 0-3.42171 5.30894 0 5.30894zM294.26234 287.10936c3.416 0 3.42171-5.30894 0-5.30894-3.416 0-3.42171 5.30894 0 5.30894zM294.26234 319.32219c3.416 0 3.42171-5.30894 0-5.30894-3.416 0-3.42171 5.30894 0 5.30894zM302.9598 303.21577c3.41605 0 3.42171-5.30894 0-5.30894-3.416 0-3.4217 5.30894 0 5.30894zM302.9598 335.42861c3.41605 0 3.42171-5.30894 0-5.30894-3.416 0-3.4217 5.30894 0 5.30894zM294.26234 351.535c3.416 0 3.42171-5.30894 0-5.30894-3.416 0-3.42171 5.30894 0 5.30894zM294.26234 383.74786c3.416 0 3.42171-5.30894 0-5.30894-3.416 0-3.42171 5.30894 0 5.30894zM302.9598 367.64144c3.41605 0 3.42171-5.30894 0-5.30894-3.416 0-3.4217 5.30894 0 5.30894zM302.9598 399.85427c3.41605 0 3.42171-5.30894 0-5.30894-3.416 0-3.4217 5.30894 0 5.30894zM310.36876 287.10936c3.416 0 3.4217-5.30894 0-5.30894-3.416 0-3.42171 5.30894 0 5.30894zM310.36876 319.32219c3.416 0 3.4217-5.30894 0-5.30894-3.416 0-3.42171 5.30894 0 5.30894zM319.06622 303.21577c3.41605 0 3.42171-5.30894 0-5.30894-3.416 0-3.42171 5.30894 0 5.30894zM319.06622 335.42861c3.41605 0 3.42171-5.30894 0-5.30894-3.416 0-3.42171 5.30894 0 5.30894zM310.36876 351.535c3.416 0 3.4217-5.30894 0-5.30894-3.416 0-3.42171 5.30894 0 5.30894zM310.36876 383.74786c3.416 0 3.4217-5.30894 0-5.30894-3.416 0-3.42171 5.30894 0 5.30894zM319.06622 367.64144c3.41605 0 3.42171-5.30894 0-5.30894-3.416 0-3.42171 5.30894 0 5.30894zM319.06622 399.85427c3.41605 0 3.42171-5.30894 0-5.30894-3.416 0-3.42171 5.30894 0 5.30894z"/></g><path d="M225.97955 247.176c-.22229 1.87866-.71075 3.54907-1.01 5.19946a9.18562 9.18562 0 00-.20263 2.35742 2.46841 2.46841 0 001.21264 1.94263 2.15056 2.15056 0 01-1.44964-.33863 2.68135 2.68135 0 01-.977-1.27856 5.4589 5.4589 0 01-.16632-2.97754 9.38684 9.38684 0 01.93823-2.65234A8.17607 8.17607 0 01225.97955 247.176zM218.0082 262.90383s8.2041 11.96688 16.20577.434zM240.66575 275.76775c-3.58308 4.06082-7.111 6.25544-10.42094 7.226 0 0 8.35491.91593 10.42094-1.0555zM210.44713 275.522a25.05617 25.05617 0 0010.53955 7.15408s-9.194 2.23965-10.53955-.89143z"/><path fill="#fffae6" d="M272.26523,415.70657c-11.37167-12.97374-51.4071-114.8071-51.4071-114.8071-1.22908-7.706,5.82536-16.64694,5.67844-18.73433a61.35551,61.35551,0,0,0-1.85485-7.82372c-4.6451-11.07078-1.16085-9.42331-1.16085-9.42331s9.02081,9.176,7.573,18.27271l2.17467-11.7549s-6.331-8.27424-6.20363-13.81461c0,0,.50888-2.1661,1.77622-2.241,0,0,3.16728,3.64559,3.60232,4.16229,0,0-4.17141-7.1656.90553-7.84155l3.57638,3.40328s-.02887-2.64891,2.80376-.28345c0,0,9.69369,8.24419,10.40047,11.753.79124,3.92818-2.6046,35.1034-3.71132,37.78166,0,0,36.32135,62.30374,48.02049,70.87516"/><path d="M272.22888,415.73853a45.45738,45.45738,0,0,1-4.38034-6.54664q-1.97071-3.41235-3.76715-6.92041c-2.42841-4.6582-4.66785-9.40966-6.89688-14.16308-4.42194-9.52515-8.655-19.13477-12.80866-28.77759-4.17742-9.63306-8.1679-19.34473-12.10272-29.07788q-5.90679-14.59789-11.64563-29.2627l-.01062-.0271-.00354-.02465a16.425,16.425,0,0,1,.70905-6.99317,39.4943,39.4943,0,0,1,2.696-6.469l1.57532-3.11231a10.6231,10.6231,0,0,0,.66266-1.58056,3.32969,3.32969,0,0,0-.02552-1.64746,67.24131,67.24131,0,0,0-1.695-6.751l.00549.01514c-.33038-.835-.69525-1.65577-.99737-2.50293-.323-.83887-.60737-1.69287-.874-2.554a14.44576,14.44576,0,0,1-.55554-2.6626,3.14082,3.14082,0,0,1,.13721-1.40942.96774.96774,0,0,1,.55279-.57349,1.14794,1.14794,0,0,1,.7959.052l.02808.01147.02527.02637a34.18117,34.18117,0,0,1,3.22314,3.99243,32.34825,32.34825,0,0,1,2.5979,4.42554,23.79836,23.79836,0,0,1,1.68463,4.86255,16.1246,16.1246,0,0,1,.182,5.16186l-.49384-.085,2.12763-11.76318.05639.23535a45.814,45.814,0,0,1-4.10766-6.54737,24.75731,24.75731,0,0,1-1.52216-3.57714,12.369,12.369,0,0,1-.7041-3.87964l.00024-.04.00947-.03589a5.24015,5.24015,0,0,1,.631-1.51025A1.99544,1.99544,0,0,1,228.81848,255l.183-.01538.12732.14575,3.625,4.15088-.66107.46533a13.08811,13.08811,0,0,1-1.65088-4.62475,3.71022,3.71022,0,0,1,.51276-2.58033,3.45467,3.45467,0,0,1,2.336-1.27783l.20062-.03564.16193.15356,3.58331,3.39551-.76251.332a2.264,2.264,0,0,1,.282-1.10522,1.2578,1.2578,0,0,1,1.16657-.61206,3.629,3.629,0,0,1,1.85333.88452c.97357.78711,1.8385,1.59009,2.741,2.408a70.79871,70.79871,0,0,1,5.12659,5.15429,22.92588,22.92588,0,0,1,2.23523,2.94043l.44861.85181a5.92711,5.92711,0,0,1,.298.96948l.09644.96485.01178.91992c-.00269,2.44189-.14978,4.84643-.322,7.25415-.35114,4.81225-.83692,9.60693-1.37555,14.39673-.27167,2.39477-.56073,4.78759-.88452,7.17822-.16272,1.19556-.33063,2.38989-.52332,3.585-.10358.59814-.18158,1.19312-.31,1.79468l-.17785.90014-.26789.949-.0296-.43482q5.426,9.2439,10.973,18.42676,5.55291,9.17469,11.29087,18.23535c3.83676,6.03174,7.74569,12.01953,11.83548,17.88086,2.04647,2.929,4.11483,5.84449,6.30789,8.66455a47.7864,47.7864,0,0,0,7.21744,7.876l-.05713.07813a47.958,47.958,0,0,1-7.38379-7.77735c-2.24131-2.79223-4.38349-5.66186-6.45728-8.57812-4.15076-5.8313-8.11944-11.78785-12.01605-17.78858q-5.84367-9.00292-11.47037-18.14258-5.649-9.12633-11.08871-18.38012l-.10132-.1731.07165-.262.21607-.79028.17035-.8711c.12262-.57617.20074-1.176.30157-1.76367.1886-1.18164.35407-2.37183.514-3.56152.31867-2.38086.60321-4.76856.87042-7.158.53235-4.77857,1.00122-9.56763,1.3548-14.35865.1817-2.39257.33685-4.79736.3493-7.16967l-.00708-.885-.07751-.832a5.05879,5.05879,0,0,0-.22717-.75147l-.39-.74658a22.09738,22.09738,0,0,0-2.121-2.80859,69.9893,69.9893,0,0,0-5.03381-5.10157c-.87677-.80249-1.777-1.64013-2.6723-2.36938a2.93863,2.93863,0,0,0-1.33338-.69922.32789.32789,0,0,0-.3465.17114,1.42321,1.42321,0,0,0-.15539.627l-.01337,1.04785-.74927-.71607-3.56921-3.4104.36224.11768a2.59455,2.59455,0,0,0-1.73785.90381,2.89792,2.89792,0,0,0-.3775,1.99267,12.33411,12.33411,0,0,0,1.50232,4.30347l1.81781,3.356-2.479-2.89038-3.5794-4.17359.31.13037c-.6861.042-1.2165,1.09107-1.441,1.94458l.00964-.07544a11.69342,11.69342,0,0,0,.6355,3.64649,24.08085,24.08085,0,0,0,1.451,3.49438,45.21724,45.21724,0,0,0,3.98675,6.48389l.0802.10986-.02374.12573-2.22162,11.7461-.4939-.085a15.65028,15.65028,0,0,0-.14642-4.9895,23.35262,23.35262,0,0,0-1.62018-4.76978A31.93845,31.93845,0,0,0,226.544,269.01a33.84776,33.84776,0,0,0-3.15583-3.96143l.053.03785a.79584.79584,0,0,0-.51745-.04053.6069.6069,0,0,0-.33863.37085,2.83813,2.83813,0,0,0-.11633,1.23755,14.13887,14.13887,0,0,0,.52606,2.59424c.25818.85253.53443,1.70068.85041,2.53686.29455.843.65326,1.66382.97674,2.49707l.00433.011.00129.00464c.63067,2.24462,1.28442,4.479,1.72577,6.781a3.65689,3.65689,0,0,1,.03161,1.79736,10.90225,10.90225,0,0,1-.67047,1.64087l-1.55261,3.12964a39.10587,39.10587,0,0,0-2.61792,6.42285,15.9727,15.9727,0,0,0-.64111,6.79053l-.014-.05151q5.84345,14.61768,11.86364,29.16626l12.1377,29.05127c4.08154,9.66821,8.2424,19.30346,12.59143,28.85278q3.26371,7.16089,6.74829,14.21533,1.73515,3.53028,3.63059,6.97705a45.31769,45.31769,0,0,0,4.24105,6.60327Z"/><path fill="#fffae6" d="M159.228,383.85016s38.18169-70.15378,44.72267-91.84236c0,0,1.66717-11.44064-4.15112-17.06775a1.312,1.312,0,0,1-.43659-.96041c.01768-.65707.6164-1.40452,3.83073-.43881,0,0,2.52279,1.221,2.73544,3.426,0,0-.39645-8.45666,1.53405-11.66449,1.571-2.61052,4.80272-7.71473,5.95176-9.52507a1.95094,1.95094,0,0,1,1.703-.90237c.84651.03069,1.66375.58124.8688,2.98335l-2.49975,6.25864,9.702-8.62711a1.63069,1.63069,0,0,1,1.93928-.18123c.67283.44445,1.05,1.50355-.4465,4.004,0,0,3.81976.27784,1.99355,3.96482a26.17533,26.17533,0,0,1-4.33713,6.20584l-.7192,8.01847,6.97224-6.39646a2.13578,2.13578,0,0,1,3.0482.11959,1.44332,1.44332,0,0,1,.28453,1.42426,2.09294,2.09294,0,0,1-.34342.6386l-7.34385,9.8074s-.46751,7.73977-.37765,11.79576c.04009,1.80942-1.25518,8.26918-5.26934,12.01933,0,0-23.51368,103.25542-45.27056,96.57982"/><path d="M159.18555,383.82715c3.99951-7.523,7.88476-15.10571,11.832-22.65454Q176.904,349.831,182.632,338.40967q5.70483-11.432,11.14215-22.9895c1.7923-3.86036,3.59094-7.71851,5.2666-11.62842,1.69873-3.90039,3.25977-7.85571,4.59369-11.87915l-.01056.04761a30.86228,30.86228,0,0,0,.16058-5.81592,23.35643,23.35643,0,0,0-1.03985-5.7107,13.11745,13.11745,0,0,0-2.83106-4.97631c-.15307-.18409-.3211-.3396-.5086-.57886a1.50358,1.50358,0,0,1-.29645-.82422,1.08824,1.08824,0,0,1,.34827-.85962,1.57591,1.57591,0,0,1,.8045-.333,7.9867,7.9867,0,0,1,3.00043.45239l.02.00562.01526.0083a6.59725,6.59725,0,0,1,1.85894,1.4541,3.93664,3.93664,0,0,1,.99024,2.16382l-.43482.031a39.83247,39.83247,0,0,1,.5998-8.90577,12.09416,12.09416,0,0,1,.65149-2.15893,17.96135,17.96135,0,0,1,1.1369-1.936l2.37317-3.76367,2.34546-3.78076c.20709-.31811.36492-.62329.61242-.95215a2.14582,2.14582,0,0,1,.982-.67065,1.98245,1.98245,0,0,1,1.199-.021,1.20965,1.20965,0,0,1,.814.91577,4.49359,4.49359,0,0,1-.29395,2.27954l-.81879,2.06934-1.63775,4.1394-.32245-.22631,7.26141-6.499,1.81537-1.62475a6.16551,6.16551,0,0,1,.9914-.8042,1.90676,1.90676,0,0,1,1.361-.1543,1.55688,1.55688,0,0,1,1.05926.91089,2.33851,2.33851,0,0,1,.06293,1.34766,8.15866,8.15866,0,0,1-.99414,2.30712l-.20862-.40136a3.8817,3.8817,0,0,1,1.66937.54565,2.18223,2.18223,0,0,1,1.042,1.48242,5.41774,5.41774,0,0,1-.96393,3.26612,26.655,26.655,0,0,1-3.87946,5.37158l.09375-.20093-.68237,8.02149-.60687-.29981,5.01928-4.64746,1.25483-1.16187.62744-.58105a2.712,2.712,0,0,1,.8385-.53979,2.38774,2.38774,0,0,1,3.29089,1.59008,2.41711,2.41711,0,0,1-.64551,1.87891l-1.0216,1.37134-2.04425,2.74218-4.0885,5.48414.09088-.24781q-.176,3.13843-.28424,6.28491l-.074,3.14039-.00537,1.56616.01147.78125a8.06959,8.06959,0,0,1-.0437.84472,21.85619,21.85619,0,0,1-1.72571,6.19947,16.56861,16.56861,0,0,1-3.63391,5.34546l.15-.261c-2.12116,9.03931-4.49134,18.00366-7.04016,26.92407q-3.81474,13.381-8.47809,26.5044A210.54269,210.54269,0,0,1,192.725,386.07935a65.445,65.445,0,0,1-7.53192,11.70776,21.54361,21.54361,0,0,1-5.18268,4.65088,8.11854,8.11854,0,0,1-6.70551,1.09814l.02832-.09228a7.95888,7.95888,0,0,0,6.56183-1.19483,21.28045,21.28045,0,0,0,5.03217-4.68335,68.80963,68.80963,0,0,0,7.334-11.72607,209.88443,209.88443,0,0,0,10.56647-25.64966c3.03808-8.74585,5.72266-17.61133,8.27832-26.51123,2.52942-8.90625,4.88318-17.87207,6.98315-26.88232l.03559-.15284.11456-.10839a15.57264,15.57264,0,0,0,3.4212-5.00171,20.92287,20.92287,0,0,0,1.67115-5.89136,7.20406,7.20406,0,0,0,.04223-.72778l-.0083-.79444.01215-1.5852.08789-3.1604q.12066-3.15674.312-6.30689l.00836-.13818.08264-.10986,4.11164-5.4668,2.05584-2.7334,1.02845-1.36621a1.58349,1.58349,0,0,0,.49762-1.23218,1.32939,1.32939,0,0,0-.79871-.939,1.76662,1.76662,0,0,0-1.34631-.01563,1.87557,1.87557,0,0,0-.59284.37647l-.63269.575-1.2655,1.15039-5.06177,4.60107-.695.63159.0879-.93139.756-8.01514.0108-.114.08313-.08716a26.08687,26.08687,0,0,0,3.82324-5.197,4.96593,4.96593,0,0,0,.92884-2.88306c-.13373-.958-1.21851-1.48974-2.1969-1.59521l-.41877-.04541.21-.3562a7.65487,7.65487,0,0,0,.94616-2.14014,1.84729,1.84729,0,0,0-.02874-1.05054,1.05136,1.05136,0,0,0-.72126-.62036,1.413,1.413,0,0,0-1.00543.11011,6.16008,6.16008,0,0,0-.89392.728l-1.82581,1.61279-7.30322,6.45215-.64276.56787.32019-.79419,1.66174-4.12158c.49634-1.36548,1.34259-2.75879,1.127-4.135-.102-.69312-.935-.87525-1.57263-.65967a1.81894,1.81894,0,0,0-.8335.56177c-.20154.26147-.39587.61279-.59412.91455l-2.36828,3.76318-2.34064,3.78a17.96936,17.96936,0,0,0-1.09936,1.90332,11.75839,11.75839,0,0,0-.613,2.0979,39.47448,39.47448,0,0,0-.51929,8.8103l-.43481.031a3.49322,3.49322,0,0,0-.89862-1.90625,6.1676,6.1676,0,0,0-1.7229-1.32739l.03485.01367a7.636,7.636,0,0,0-2.79138-.41358c-.45075.06446-.74488.28663-.716.68213.00727.40479.31684.666.67371,1.06153a13.65759,13.65759,0,0,1,2.9942,5.156,23.82231,23.82231,0,0,1,1.11365,5.84815,31.44154,31.44154,0,0,1-.1222,5.95361l-.0028.02344-.00788.02441c-1.31695,4.07544-2.857,8.061-4.53094,11.98462-1.65173,3.93433-3.42438,7.812-5.19122,11.69263-3.62171,7.719-7.44208,15.33911-11.28852,22.94385q-5.81021,11.38659-11.788,22.68432c-3.96106,7.54468-8.08216,15.00391-12.19763,22.4646Z"/><path d="M205.92912,276.96671l-2.47238,4.89128a29.13973,29.13973,0,0,1,.66838,8.17519l.053.248Z"/><polygon points="213.487 264.117 211.291 266.788 210.718 276.887 209.974 266.288 213.487 264.117"/><polygon points="216.085 275.277 216.465 267.609 224.682 259.313 214.715 267.527 216.085 275.277"/><path d="M199.59888 273.40537s4.68655 2.28427 1.47278 3.00993c0 0-2.67328-1.47167-2.5389-3.131C198.53276 273.28434 198.65 272.87775 199.59888 273.40537zM212.60031 257.06258s2.04417 1.44 3.66279-1.30591a1.42467 1.42467 0 00-.29331-1.29925 1.31321 1.31321 0 00-1.78869.01553A5.7282 5.7282 0 00212.60031 257.06258zM227.60258 271.95245s1.42359 2.22083 4.25413.07306a1.55389 1.55389 0 00.27464-1.41694 1.39123 1.39123 0 00-1.80476-.6611A6.73592 6.73592 0 00227.60258 271.95245zM221.91587 256.62176l1.838-1.70157a1.413 1.413 0 012.13574.26981 1.25321 1.25321 0 01-.22847 1.85691S222.624 259.3879 221.91587 256.62176zM224.5931 259.2467s-1.89644 1.198-1.88558 2.05163.561 1.34305 2.17558.6533 2.11313-2.23032 1.61614-2.75405C225.75106 258.40915 224.5931 259.2467 224.5931 259.2467z"/><polygon points="232.443 259.543 240.214 269.304 238.806 280.009 241.247 268.136 232.443 259.543"/><polygon points="236.925 255.104 245.545 266.053 244.455 274.341 246.637 265.398 236.925 255.104"/><path d="M232.62215 250.80736l2.82925 2.63159s-1.40371 3.35334-3.86942-.89289c0 0-.49046-1.55347.30457-1.89116A.70367.70367 0 01232.62215 250.80736zM228.71533 254.81977l1.96088 2.38658s-.74791 3.301-2.94251-.334c0 0-.72371-2.00366.24726-2.29555A.71.71 0 01228.71533 254.81977zM238.227 253.09086l2.05146 2.058s-.38051 3.13167-2.76849-.06824c0 0-.86431-1.80383.01086-2.15529A.6698.6698 0 01238.227 253.09086z"/></g><path fill="#f94b58" d="M225,388.30127a102.29053,102.29053,0,1,1,102.29053-102.291A102.40663,102.40663,0,0,1,225,388.30127Zm0-199.58106a97.29053,97.29053,0,1,0,97.29053,97.29A97.40085,97.40085,0,0,0,225,188.72021Z"/><path fill="#2d2d70" d="M172.39291 418.94287h-9.78906v4.44629h9.59424v6.74707h-9.59424v9.35938h-6.981V412.1958h16.77zM191.30746 439.49561l-1.16992-3.93848h-9.08691l-1.16992 3.93848h-7.56592l9.00879-27.29981h8.50195l9.00928 27.29981zm-8.46289-9.94434h5.499l-2.76905-9.28223zM213.03061 440.08057a14.23665 14.23665 0 110-28.46973 13.90225 13.90225 0 016.86377 1.75488 13.10973 13.10973 0 014.95312 4.71875l-6.04492 3.47168a5.62031 5.62031 0 00-2.3208-2.28222 7.7227 7.7227 0 00-8.73584 1.209 8.16433 8.16433 0 000 10.72559 7.7227 7.7227 0 008.73584 1.209 5.54727 5.54727 0 002.3208-2.32031l6.04492 3.50976a12.90124 12.90124 0 01-4.93359 4.73828A13.99907 13.99907 0 01213.03061 440.08057zM234.32455 432.94385h10.56934v6.55176H227.3436V412.1958h17.355v6.5127h-10.374v3.7832H243.724v6.43555h-9.39942z"/><path fill="#2e2b70" d="M269.48569,416.771v3.68945h.12988a2.76148,2.76148,0,0,1,2.78613-1.75488h.61524a4.718,4.718,0,0,1,4.0664,2.00293,9.54685,9.54685,0,0,1,1.44141,5.64746v1.88965a9.89111,9.89111,0,0,1-1.44141,5.625,4.64844,4.64844,0,0,1-4.0664,2.02539h-1.19825q-.77783,0-.77832-1.08008v-2.56543q0-1.03418.77832-1.03418h.61524q2.36426,0,2.36523-3.24024v-1.35058q0-3.23877-2.49511-3.23926h-.74512q-2.07276,0-2.07324,2.835v12.19434q0,1.08105-.77735,1.08008h-2.1709q-.74561,0-.74511-1.08008v-4.27442h-.12989a2.76311,2.76311,0,0,1-2.78613,1.75489h-.61621a4.714,4.714,0,0,1-4.06543-2.00293,9.53555,9.53555,0,0,1-1.44238-5.64746V426.356a9.88539,9.88539,0,0,1,1.44238-5.625,4.64672,4.64672,0,0,1,4.06543-2.02539h1.19922q.77783,0,.77734,1.08007v2.56543q0,1.03564-.77734,1.03516h-.61524q-2.36571,0-2.36523,3.23926v1.35058q0,3.24024,2.49414,3.24024h.74512q2.07421,0,2.07422-2.83594V416.771q0-.6299-.38868-.62989H255.6185q-.77784,0-.77735-1.08007v-2.56543q0-1.03419.77735-1.03516h24.07324q.77784,0,.77734,1.03516V415.061q0,1.07958-.77734,1.08007h-9.81738Q269.48618,416.14111,269.48569,416.771Z"/><path fill="#2e2b70" d="M284.67123,411.46045h2.10547q.77784,0,.77735,1.03516V415.061q0,1.07958-.77735,1.08007h-1.749q-.38966,0-.38965.62989v21.68945q0,1.03564-.77734,1.03516h-2.23536q-.77783,0-.77734-1.03516V416.771q0-.6299-.38867-.62989h-1.75q-.77784,0-.77734-1.08007v-2.56543q0-1.03419.77734-1.03516h2.20312v-.17969q-1.10156-1.52929-1.23144-1.73242-.12891-.20216-.583-.90039-.45264-.69726-.71289-1.19238-.939-1.66407-3.207-6.4795a1.8559,1.8559,0,0,1-.19434-.81054q0-.854.61524-.85449h2.624a1.13065,1.13065,0,0,1,1.03711.80957q4.66552,10.80029,4.7627,10.98046A.72206.72206,0,0,0,284.67123,411.46045Z"/><path fill="#2d2d70" d="M144.73227 464.99561v6.05468h-6.05518v18.44532H132.412V471.05029h-6.05469v-6.05468zM166.80014 486.32764a13.10033 13.10033 0 01-18.23486 0 12.92782 12.92782 0 010-18.16407 13.10033 13.10033 0 0118.23486 0 12.92782 12.92782 0 010 18.16407zM152.95785 482.023a6.98249 6.98249 0 10-1.89013-4.77734A6.43954 6.43954 0 00152.95785 482.023zM189.7601 487.67529a11.56506 11.56506 0 01-13.96484 0 7.82354 7.82354 0 01-2.71241-6.22949V464.99561h6.26465v15.85546q0 3.07911 3.43018 3.07911 3.42993 0 3.43017-3.07911V464.99561h6.26465V481.4458A7.82506 7.82506 0 01189.7601 487.67529zM207.90707 490.021a12.777 12.777 0 110-25.55079 12.47882 12.47882 0 016.16016 1.5752 11.75725 11.75725 0 014.44482 4.23535l-5.4248 3.11524a5.04294 5.04294 0 00-2.08252-2.04786 6.92589 6.92589 0 00-7.83984 1.085 7.325 7.325 0 000 9.625 6.9259 6.9259 0 007.83984 1.085 4.97821 4.97821 0 002.08252-2.082l5.4248 3.14941a11.579 11.579 0 01-4.42724 4.25293A12.55971 12.55971 0 01207.90707 490.021zM233.91244 464.99561h6.23047v24.5h-6.23047v-9.415h-6.895v9.415h-6.26513v-24.5h6.26513V474.061h6.895z"/><path fill="#2e2b70" d="M255.37924 481.30518q-1.75048 0-1.75-4.58985a6.07378 6.07378 0 011.11816-3.82519 3.50648 3.50648 0 012.89942-1.43946h4.99023q.38819 0 .38868-.62988V466.771c0-.38965-.1084-.60059-.32422-.63086H252.65756q-.77782 0-.77734-1.0791v-2.56543q0-1.03419.77734-1.03516h16.29688q.77783 0 .77832 1.03516V465.061q0 1.07958-.77832 1.0791h-1.749c-.25976 0-.38867.21093-.38867.63086v21.68945q0 1.03564-.77832 1.03516h-2.23535q-.77784 0-.77734-1.03516V476.80518c0-.41895-.12989-.62989-.38868-.62989h-3.5a3.74616 3.74616 0 00-.93945.08985q-.81006.227-.80957 1.57519l.291 2.43067c0 .69043-.23731 1.03418-.71192 1.03418zM296.37338 466.771v3.68945h.12988a2.7615 2.7615 0 012.78614-1.75488h.61523a4.718 4.718 0 014.06641 2.00293 9.54479 9.54479 0 011.4414 5.64746v1.88965a9.89111 9.89111 0 01-1.4414 5.625 4.6507 4.6507 0 01-4.06641 2.02539h-1.19824q-.77784 0-.77832-1.08008v-2.56543q0-1.03418.77832-1.03516h.61523q2.36427 0 2.36524-3.23926v-1.35058q0-3.24024-2.49512-3.24024h-.74512q-2.07274 0-2.07324 2.835v12.19532q0 1.07958-.77734 1.08008h-2.1709q-.74561 0-.74512-1.08008v-4.27539h-.12988A2.76262 2.76262 0 01289.764 485.896h-.61621a4.71627 4.71627 0 01-4.06543-2.00293 9.53958 9.53958 0 01-1.44239-5.64746V476.356a9.88326 9.88326 0 011.44239-5.625 4.64671 4.64671 0 014.06543-2.02539H290.347q.77784 0 .77735 1.08007v2.56543q0 1.03564-.77735 1.03418h-.61523q-2.36573 0-2.36523 3.24024v1.35058q0 3.23877 2.49414 3.23926h.74511q2.07423 0 2.07422-2.835V466.771c0-.41993-.12988-.63086-.38867-.63086h-9.78516q-.77783 0-.77734-1.0791v-2.56543q0-1.03419.77734-1.03516h24.07325q.77783 0 .77734 1.03516V465.061q0 1.07958-.77734 1.0791h-9.81739C296.50326 466.14014 296.37338 466.35107 296.37338 466.771z"/><path fill="#2e2b70" d="M311.26694,472.71045V466.771c0-.38965-.1084-.60059-.32422-.63086H305.597q-.77783,0-.77734-1.0791v-2.56543q0-1.03419.77734-1.03516h11.37207q.77784,0,.77832,1.03516V465.061q0,1.07958-.77832,1.0791h-1.52246c-.25879,0-.38867.21093-.38867.63086v6.25488a7.93275,7.93275,0,0,1-1.02051,4.27441,3.13481,3.13481,0,0,1-2.7705,1.62012h-.16211l4.01757,8.82031a1.58378,1.58378,0,0,1,.19434.76465q0,.99024-.68066.99024h-2.55957c-.28028,0-.50782-.19434-.67969-.585l-3.69434-8.32519-.93945-1.71v-3.24024a1.513,1.513,0,0,1,.27539-.94433.84318.84318,0,0,1,.69727-.36035h2.39746Q311.26694,474.33057,311.26694,472.71045Z"/><path fill="#2e2b70" d="M319.07455 461.46045h.16211v2.11523h-2.26758q-2.13867-2.78905-3.30468-4.6123a39.73376 39.73376 0 01-2.39746-4.43262l-1.68555-3.55469a1.86952 1.86952 0 01-.19434-.81054q0-.854.61621-.85449h2.624a1.12974 1.12974 0 011.03711.80957q4.66553 10.80029 4.76269 10.98046A.72161.72161 0 00319.07455 461.46045zM323.64291 452.77588v3.23926c0 .6914-.2373 1.03515-.71289 1.03515h-2.624c-.47461 0-.71289-.34375-.71289-1.03515v-3.23926q0-.99024.71289-.99024h2.624Q323.64341 451.78564 323.64291 452.77588z"/></svg>