<svg xmlns="http://www.w3.org/2000/svg" data-name="Layer 1" viewBox="0 0 450 600"><defs><clipPath id="a"><circle cx="225" cy="278.453" r="91.968" fill="none"/></clipPath></defs><rect width="289.218" height="435.083" x="80.391" y="82.458" fill="#fff" rx="12.858"/><path fill="#817abf" d="M369.609,153.37078H80.391V90.3288a7.87042,7.87042,0,0,1,7.87042-7.87042H361.73824A7.87072,7.87072,0,0,1,369.609,90.3291Z"/><path fill="#817abf" d="M356.75049,522.36426H93.249a17.70033,17.70033,0,0,1-17.67968-17.68067V95.31641A17.70033,17.70033,0,0,1,93.249,77.63574H356.75049a17.70043,17.70043,0,0,1,17.68017,17.68067V504.68359A17.70043,17.70043,0,0,1,356.75049,522.36426ZM93.249,87.28027a8.04491,8.04491,0,0,0-8.03613,8.03614V504.68359a8.04491,8.04491,0,0,0,8.03613,8.03614H356.75049a8.04533,8.04533,0,0,0,8.03662-8.03614V95.31641a8.04533,8.04533,0,0,0-8.03662-8.03614Z"/><path fill="#fff" d="M148.50732 129.40625a13.55362 13.55362 0 110-27.10449 13.34339 13.34339 0 016.47852 1.61914 12.266 12.266 0 014.69141 4.41211l-5.1377 2.97851a5.87255 5.87255 0 00-2.458-2.36425 7.59007 7.59007 0 00-3.57422-.83789 7.361 7.361 0 00-5.52832 2.12207 8.6812 8.6812 0 000 11.24414 7.361 7.361 0 005.52832 2.12207 7.55971 7.55971 0 003.59278-.85645 5.78536 5.78536 0 002.43945-2.3457l5.1377 2.97851a11.97848 11.97848 0 01-4.6543 4.41211A13.41359 13.41359 0 01148.50732 129.40625zM182.76025 128.88477l-1.30273-4.09571h-9.68066l-1.30274 4.09571H163.9585l8.86132-26.0625h7.59473l8.86133 26.0625zM173.564 119.2041h6.10645l-3.05273-9.56836zM211.57861 126.98633a11.99 11.99 0 01-14.44629 0 8.136 8.136 0 01-2.8291-6.51563V102.82227h5.957v17.12695q0 3.64893 4.09571 3.64844 4.09423 0 4.0957-3.64844V102.82227h5.957V120.4707A8.13672 8.13672 0 01211.57861 126.98633zM239.91162 102.82227v5.73437h-6.70117v20.32813h-5.957V108.55664h-6.70215v-5.73437zM246.2417 102.82227h5.957v26.0625h-5.957zM282.43018 125.49707a13.755 13.755 0 113.94628-9.64355A13.14192 13.14192 0 01282.43018 125.49707zm-15.02344-4.05859a7.87594 7.87594 0 0010.835 0 8.25041 8.25041 0 000-11.16993 7.876 7.876 0 00-10.835 0 8.25038 8.25038 0 000 11.16993zM307.97021 102.82227h5.957v26.0625h-4.46778l-10.05176-14.14844v14.14844h-5.957v-26.0625h4.46778l10.05175 14.14843z"/><path fill="#2e2b70" d="M177.86279 401.45215v42.248H167.11963V420.94629l-10.26074 16.96H155.773l-10.2002-16.89941V443.7002H134.769v-42.248h10.80371l10.74317 18.0459 10.80371-18.0459zM218.5415 443.7002l-1.81054-6.09571h-14.0625l-1.81055 6.09571h-11.709l13.94238-42.248h13.15723l13.9414 42.248zm-13.09668-15.39063h8.50977l-4.28516-14.36426zM255.59912 444.60547a20.138 20.138 0 01-11.10547-2.83692 14.97478 14.97478 0 01-6.15625-7.665l9.23438-5.3711a8.38645 8.38645 0 008.3291 5.61231q4.94824 0 4.94922-2.83594 0-1.8706-2.83692-3.01758-1.207-.48339-5.31054-1.62988a23.181 23.181 0 01-9.17383-4.73828q-3.38086-3.04687-3.37988-8.4795a11.91688 11.91688 0 014.19433-9.47558 15.45438 15.45438 0 0110.47168-3.62109 17.88687 17.88687 0 019.415 2.47363 15.92482 15.92482 0 016.27734 7.18262l-9.05371 5.31152q-1.99218-4.708-6.57812-4.708a4.66168 4.66168 0 00-2.92774.78516 2.4303 2.4303 0 00-.99609 1.99121 2.78252 2.78252 0 001.47949 2.35351 24.84116 24.84116 0 005.76367 2.2334 49.20413 49.20413 0 014.94922 1.69043 25.42682 25.42682 0 014.10352 2.2627 9.15423 9.15423 0 013.31933 3.80273 12.781 12.781 0 011.08692 5.46192 11.71884 11.71884 0 01-4.40625 9.71679Q262.84131 444.60693 255.59912 444.60547zM318.79053 443.7002H306.71924l-12.13086-18.89063V443.7002H283.78467v-42.248h10.80371v17.74414l11.52734-17.74414H318.187l-13.39844 20.52051zM149.68408 486.7002l-5.53222-9.53418h-4.12012v9.53418h-5.41406V459.23438H145.604a9.10911 9.10911 0 019.14161 9.10253 8.36351 8.36351 0 01-1.45118 4.72852 9.093 9.093 0 01-3.8457 3.27637l6.082 10.3584zm-9.65234-22.4043V472.418H145.604a3.44936 3.44936 0 002.62891-1.19629 4.12 4.12 0 001.09863-2.88477 4.05045 4.05045 0 00-1.09863-2.86425 3.47649 3.47649 0 00-2.62891-1.17676zM164.27979 481.52051H175.855v5.17969H158.86572V459.23438h16.793v5.17968h-11.3789v5.84571h10.39843v5.10058H164.27979zM206.89209 472.9668a13.74619 13.74619 0 01-3.375 9.26074l2.8252 2.94238-3.84473 3.41406-2.98242-3.10058a13.97879 13.97879 0 01-6.90528 1.7666 14.31686 14.31686 0 1114.28223-14.2832zm-14.28223 8.98535a9.638 9.638 0 003.06055-.50977l-4.5127-4.708 3.84571-3.41407 4.82617 5.02246a9.14388 9.14388 0 001.64746-5.376 8.77513 8.77513 0 00-2.5498-6.47364 9.09836 9.09836 0 00-12.63477 0 9.44181 9.44181 0 000 12.90918A8.57863 8.57863 0 00192.60986 481.95215zM221.09619 487.25a10.98257 10.98257 0 01-7.5332-2.58984 8.78835 8.78835 0 01-2.94238-6.94532V459.23438h5.375V477.2832a4.65326 4.65326 0 001.23632 3.41407 6.57872 6.57872 0 007.7295 0 4.65277 4.65277 0 001.23535-3.41407V459.23438h5.415v18.48046a8.78835 8.78835 0 01-2.94239 6.94532A11.04135 11.04135 0 01221.09619 487.25zM236.63428 459.23438h5.41406V486.7002h-5.41406zM262.37256 486.7002l-5.53223-9.53418h-4.12012v9.53418h-5.41406V459.23438h10.98633a9.10911 9.10911 0 019.1416 9.10253 8.3635 8.3635 0 01-1.45117 4.72852 9.093 9.093 0 01-3.8457 3.27637l6.082 10.3584zm-9.65235-22.4043V472.418h5.57227a3.44937 3.44937 0 002.62891-1.19629 4.12 4.12 0 001.09863-2.88477 4.05049 4.05049 0 00-1.09863-2.86425 3.47651 3.47651 0 00-2.62891-1.17676zM276.96924 481.52051h11.57519v5.17969H271.55518V459.23438h16.793v5.17968h-11.3789v5.84571h10.39844v5.10058H276.96924zM303.41455 459.23438a12.51824 12.51824 0 019.43652 3.96289 14.49868 14.49868 0 010 19.54 12.51475 12.51475 0 01-9.43652 3.9629H292.50732V459.23438zm0 22.28613a7.61567 7.61567 0 005.80762-2.373 9.65773 9.65773 0 000-12.36035 7.61915 7.61915 0 00-5.80762-2.373h-5.49316v17.10645z"/><circle cx="225" cy="278.453" r="91.968" fill="#fffae6"/><g clip-path="url(#a)"><path d="M207.19336 235.46851q1.65838 1.88379 3.25568 3.81445c1.05493 1.29517 2.13647 2.56933 3.16949 3.88135l3.10754 3.92944c1.0387 1.30762 2.02918 2.65259 3.04615 3.977l.19391.25244-.21228.2334q-2.44 2.68286-4.93805 5.31323l-.23963.25171-.19195-.27392c-1.02185-1.45752-2.066-2.89869-3.0691-4.37012l-3.01983-4.40625 3.29388 4.20532c1.10144 1.39942 2.16187 2.82861 3.24451 4.2417l-.43128-.02222q2.36207-2.75317 4.79-5.447l-.01831.4856c-1.02966-1.3147-2.08581-2.60864-3.09375-3.94019l-3.03235-3.98755c-1.01361-1.32714-1.9787-2.69189-2.97046-4.03589Q208.60444 237.54408 207.19336 235.46851zM251.36505 235.46851q-1.5129 2.20568-3.08679 4.36377c-1.05927 1.43115-2.09186 2.88281-3.173 4.29687l-3.235 4.249c-1.07538 1.41846-2.1991 2.79956-3.29633 4.20118l-.05657-.52247c1.72454 1.45435 3.44842 2.90943 5.14428 4.3982l-.4364.0625 2.96643-4.21826c1.00794-1.39331 1.999-2.79786 3.02673-4.17774-.88787 1.47388-1.81243 2.9231-2.72 4.38355l-2.78033 4.34326-.17352.271-.26313-.20849c-1.76855-1.40161-3.50909-2.83667-5.2489-4.27271l-.28039-.23144.22375-.29126c1.08447-1.41138 2.14246-2.84351 3.24872-4.238l3.31012-4.19067c1.10052-1.39917 2.24957-2.7605 3.372-4.14258Q249.605 237.48243 251.36505 235.46851zM222.57227 256.68307s7.08723 10.33775 13.99958.37493z"/><path fill="#ffc74a" d="M307.71739,387.64632s-8.07231-77.34037-24.80726-86.46853-30.9343-15.04455-30.9343-15.04455l-2.50725,1.97084a33.54511,33.54511,0,0,1-41.7094-.19719l-2.213-1.77365s-14.19935,5.9164-30.9343,15.04455S149.49874,367.665,149.49874,367.665"/><polygon points="179.044 322.139 179.044 367.378 175.475 376.426 179.044 322.139"/><polygon points="274.262 322.139 274.262 367.378 277.832 376.426 274.262 322.139"/><path d="M207.52772,237.83512s18.69888-9.6481,22.49107-15.89074a11.10034,11.10034,0,0,1,13.05946-4.85833,5.39665,5.39665,0,0,1,3.49769,2.83084c2.02848,5.07119,4.395,14.70647,4.057,17.91823,0,0,2.70464,2.5356,3.21176-12.33992,0,0,.50712-4.057,2.5356-5.24023s-4.73312-7.43776-4.73312-7.43776-.169-3.04272-1.01424-4.395-18.7747-10.04426-27.27178-8.4367c-7.41324,1.4025-16.84764,13.67694-18.70708,15.02926s-3.54984,4.395-1.6904,6.42352,2.36656,10.48047,2.70464,13.01607A4.47271,4.47271,0,0,0,207.52772,237.83512Z"/><path d="M214.0639 235.46851a5.67929 5.67929 0 011.68439-2.21558 5.78426 5.78426 0 012.61206-1.251 4.55359 4.55359 0 012.92493.39234 4.83057 4.83057 0 012.07587 1.89111 14.19265 14.19265 0 00-2.44117-.85425 5.37865 5.37865 0 00-2.30749-.0437A13.7 13.7 0 00214.0639 235.46851zM234.5741 234.0332a6.0769 6.0769 0 012.09454-1.53735 7.35064 7.35064 0 012.55817-.68189 5.82661 5.82661 0 012.67132.4607 4.2643 4.2643 0 011.97315 1.75854 12.18984 12.18984 0 00-2.30713-.71118 10.71677 10.71677 0 00-2.24555-.10278A38.192 38.192 0 00234.5741 234.0332zM219.47321 241.24409c2.71922 0 2.72373-4.226 0-4.226-2.71923 0-2.72374 4.226 0 4.226zM239.19453 241.41313c2.71923 0 2.72373-4.226 0-4.226-2.71923 0-2.72373 4.226 0 4.226zM229.45844 243.09644c-.18952 1.6228-.61207 3.06323-.86945 4.48828a8.23328 8.23328 0 00-.17279 2.03247 2.16285 2.16285 0 001.04224 1.68554 4.45114 4.45114 0 01-.63074-.03686 2.31253 2.31253 0 01-.61859-.26465 2.36244 2.36244 0 01-.841-1.10034 4.86542 4.86542 0 01-.14679-2.57007 8.28287 8.28287 0 01.81012-2.28955A7.03364 7.03364 0 01229.45844 243.09644zM242 266.696c-3.0953 3.508-6.143 5.40385-9.00227 6.24226 0 0 7.2175.79124 9.00227-.9118zM215.89519 267.19736a21.6452 21.6452 0 009.10474 6.18016s-7.94237 1.93475-9.10474-.77008zM228.3126 300.31742c-.21659 0-.431-.00163-.64976-.00516-17.76775-.2867-25.81435-11.34433-26.14834-11.815a2.78281 2.78281 0 014.532-3.2306c.28778.39648 6.88948 9.24177 21.706 9.48064a32.9897 32.9897 0 0023.88925-9.69071 2.78277 2.78277 0 014.19777 3.65426A38.03678 38.03678 0 01228.3126 300.31742z"/><path d="M205.88977 235.46851a11.50744 11.50744 0 00-2.29254 3.28735 5.91752 5.91752 0 00-.45477 3.7854 6.68713 6.68713 0 001.9516 3.22c.47479.437 1.01013.82153 1.52117 1.21875l1.69581 1.00732.22631.13453.0575.26245a69.79485 69.79485 0 003.03393 10.02929c.62513 1.63208 1.36121 3.21363 2.13044 4.77271a37.46366 37.46366 0 002.67761 4.45044l.133.19141-.004.2041c-.03723 1.927-.02356 3.792-.10254 5.76977a14.43189 14.43189 0 01-1.66907 5.67114 13.05881 13.05881 0 01-3.8305 4.418 11.94517 11.94517 0 01-5.29548 2.24219 12.66649 12.66649 0 004.96137-2.66382 13.69083 13.69083 0 003.36481-4.40259 13.42672 13.42672 0 001.28064-5.33129c.0249-1.84522-.03656-3.80591-.0506-5.70337l.129.39526a40.49086 40.49086 0 01-5.01141-9.51855c-.62952-1.67481-1.20013-3.36988-1.67-5.09278a53.47614 53.47614 0 01-1.19715-5.2312l.28357.397-1.74493-1.16089c-.53564-.45776-1.08649-.8999-1.57971-1.40429a7.50262 7.50262 0 01-2.00165-3.74048 6.36034 6.36034 0 01.8103-4.09522A10.35984 10.35984 0 01205.88977 235.46851zM251.63745 235.46851a10.35989 10.35989 0 012.64734 3.11254 6.36109 6.36109 0 01.8103 4.09522 7.50262 7.50262 0 01-2.00165 3.74048c-.49322.50439-1.04406.94653-1.57977 1.40429l-1.74487 1.16089.28357-.397a53.459 53.459 0 01-1.19721 5.2312c-.46985 1.7229-1.04046 3.418-1.66992 5.09278a40.49048 40.49048 0 01-5.01141 9.51855l.1289-.39526c-.014 1.89746-.07544 3.85815-.05059 5.70337a13.42663 13.42663 0 001.2807 5.33129 13.68981 13.68981 0 003.3648 4.40259 12.66614 12.66614 0 004.96137 2.66382 11.94509 11.94509 0 01-5.29547-2.24219 13.05873 13.05873 0 01-3.83051-4.418A14.43222 14.43222 0 01241.064 273.802c-.079-1.97778-.06536-3.84277-.1026-5.76977l-.0039-.2041.13293-.19141a37.46507 37.46507 0 002.67762-4.45044c.76928-1.55908 1.50531-3.14063 2.13049-4.77271a69.80246 69.80246 0 003.03393-10.02929l.05744-.26245.22638-.13453 1.6958-1.00732c.51105-.39722 1.04639-.78174 1.52118-1.21875a6.6872 6.6872 0 001.9516-3.22 5.91752 5.91752 0 00-.45478-3.7854A11.50765 11.50765 0 00251.63745 235.46851z"/><path fill="#817abf" d="M244.65756,260.67043c0,7.43974-6.98135,13.47084-15.59327,13.47084s-14.153-6.17184-15.59326-13.47084c-2.17256-11.01038,6.98134-13.47083,15.59326-13.47083S244.65756,248.70926,244.65756,260.67043Z"/><path fill="#fff" d="M221.61908,254.03931a11.17707,11.17707,0,0,1,2.9046-2.47242,8.9543,8.9543,0,0,1,3.67389-1.29077,5.93535,5.93535,0,0,1,3.8183.91651,5.47825,5.47825,0,0,1,.79242.58008l.68994.68627a12.32478,12.32478,0,0,1,1.07587,1.58033,10.58491,10.58491,0,0,0-2.87378-2.28736,6.16753,6.16753,0,0,0-3.42548-.645,10.87711,10.87711,0,0,0-3.44958,1.02344,13.4936,13.4936,0,0,0-1.62995.88037A18.74216,18.74216,0,0,0,221.61908,254.03931Z"/></g><path fill="#817abf" d="M225,372.57813a94.12452,94.12452,0,1,1,94.124-94.125A94.23158,94.23158,0,0,1,225,372.57813Zm0-183.93653a89.812,89.812,0,1,0,89.81152,89.81153A89.91338,89.91338,0,0,0,225,188.6416Z"/><path fill="#fffae6" d="M150.757,344.38011s9.632,4.02792,23.81727,3.15229c0,0,8.40609-.52538,10.15736-7.53046,0,0,7.00508-1.9264,5.42894-10.85787,0,0,5.60406-2.45178,5.25381-14.18529,0,0,7.00508-.17513,5.60406-9.80711,0,0-1.75127-3.32741-9.1066-4.37817,0,0-5.5165,0-7.00508-.43782s-3.94036,1.05076-4.203,2.014c0,0-12.08376-.613-14.71066-7.53046,0,0-.85132-2.06747.99319-6.25309a23.74054,23.74054,0,0,0,2.1021-9.86886c-.05976-4.58314-1.07217-10.47246-5.10925-14.788,0,0-4.11549-4.64087-4.64087,5.07868s-.70051,9.632-3.32741,14.448-2.10153,5.77919-4.02792,8.49366-5.86676,9.19417-7.09264,10.15737-7.553,16.15068-10.24493,21.45305C128.86612,334.92326,150.757,344.38011,150.757,344.38011Z"/><path d="M150.77838,344.32983a48.5517,48.5517,0,0,0,9.095,2.334,58.49791,58.49791,0,0,0,9.35889.7937c3.12018-.05542,6.32861.08057,9.17889-1.15723a10.75334,10.75334,0,0,0,3.79248-2.48608,8.68915,8.68915,0,0,0,2.12183-3.91382l.05566-.22168.23957-.08032a7.75945,7.75945,0,0,0,2.68023-1.58862,7.65189,7.65189,0,0,0,1.8498-2.51734,9.20308,9.20308,0,0,0,.723-3.06372c.05572-.52759-.00489-1.06665.00061-1.59888l-.1966-1.60034-.045-.36645.33136-.16822a5.693,5.693,0,0,0,1.41266-1.09057,9.4716,9.4716,0,0,0,1.17218-1.46558,13.013,13.013,0,0,0,1.54925-3.47925,21.55732,21.55732,0,0,0,.74152-3.79248l.13342-1.94238.02057-1.95312.00427-.40723.406-.02612a5.71876,5.71876,0,0,0,2.78357-.96,5.5909,5.5909,0,0,0,1.9231-2.26465,8.787,8.787,0,0,0,.74157-2.97779c.00659-.52173.02606-1.04492.015-1.56836l-.13928-1.57324.0307.09424a6.4541,6.4541,0,0,0-1.72223-1.73511A11.66577,11.66577,0,0,0,196.82,302.322a17.38261,17.38261,0,0,0-2.41742-.83667l-1.25208-.2876-1.26782-.21972.02905.002c-2.004-.02612-4.00189-.05957-6.00744-.28247q-.3762-.044-.755-.11987a3.79158,3.79158,0,0,0-.70819-.136,3.51385,3.51385,0,0,0-1.394.24634,5.54623,5.54623,0,0,0-1.279.68164,2.43667,2.43667,0,0,0-.89844,1.02515l-.04553.13623-.12927-.00953a27.88585,27.88585,0,0,1-9.12153-2.145,12.85531,12.85531,0,0,1-3.92956-2.62988l-.42395-.42358c-.12879-.15259-.24072-.32031-.36176-.48a5.398,5.398,0,0,1-.65667-1.00537,10.77606,10.77606,0,0,1-.51691-1.1128,5.19349,5.19349,0,0,1-.157-1.22192,11.98671,11.98671,0,0,1,1.01507-4.64429,27.24947,27.24947,0,0,0,1.50489-4.36865,22.71418,22.71418,0,0,0,.65161-4.54492,29.19723,29.19723,0,0,0-.24036-4.595,21.42982,21.42982,0,0,0-2.91064-8.60132,17.93078,17.93078,0,0,0-1.34021-1.82788,5.0607,5.0607,0,0,0-1.5694-1.41431,1.11088,1.11088,0,0,0-1.50379.22827,4.60763,4.60763,0,0,0-.82232,1.89478,24.97305,24.97305,0,0,0-.50421,4.53418c-.085,1.55737-.166,3.1145-.30634,4.68139a18.423,18.423,0,0,1-.91174,4.7168,36.84112,36.84112,0,0,1-2.12012,4.24658,33.19946,33.19946,0,0,0-1.93567,4.16236c-.27582.71509-.52765,1.46216-.87091,2.20678a12.51892,12.51892,0,0,1-1.23334,2.10328c-1.76178,2.5271-3.40069,5.18994-5.19519,7.75878-.45648.64332-.90539,1.28174-1.44079,1.90967a4.54737,4.54737,0,0,1-.4607.4773.77249.77249,0,0,0-.16833.18579l-.12109.14746c-.19074.31079-.3866.61328-.56379.95874-.72107,1.34521-1.407,2.74414-2.07232,4.14575-1.33326,2.80664-2.62177,5.6416-3.92517,8.47071l-1.99378,4.22949-1.02844,2.10376-.53272,1.04516-.46142,1.02979a7.9405,7.9405,0,0,0-.33472,4.43872,11.44056,11.44056,0,0,0,1.86353,4.15088,26.79555,26.79555,0,0,0,6.70013,6.36938A52.43542,52.43542,0,0,0,150.77838,344.32983Zm-.04278.10059a52.55667,52.55667,0,0,1-8.15735-4.55957,29.03046,29.03046,0,0,1-6.8927-6.31836,11.874,11.874,0,0,1-2.04108-4.26367,8.55671,8.55671,0,0,1,.23376-4.75659l.46235-1.11451.4989-1.05029.964-2.1206,1.8772-4.27271c1.25573-2.84912,2.49694-5.70532,3.78912-8.54663.65277-1.41919,1.29468-2.83911,2.04809-4.23657.17749-.34863.40082-.70239.6189-1.0542a5.35907,5.35907,0,0,1,.477-.54517,3.58767,3.58767,0,0,0,.34619-.365c.47394-.5581.92292-1.19482,1.36475-1.82251,1.76593-2.542,3.386-5.19214,5.17871-7.77954a14.86765,14.86765,0,0,0,1.95758-4.062,34.37632,34.37632,0,0,1,1.98834-4.30738,38.3938,38.3938,0,0,0,2.07746-4.09058,17.37839,17.37839,0,0,0,.8778-4.42309c.14844-1.5337.2406-3.08667.33619-4.63794a25.872,25.872,0,0,1,.56744-4.729l.15472-.594.23114-.59009a2.52536,2.52536,0,0,1,.28778-.5813,2.57009,2.57009,0,0,1,.39435-.55566,2.05524,2.05524,0,0,1,.56513-.47022c.11413-.06177.22717-.12646.34533-.17749l.38807-.08032a2.37927,2.37927,0,0,1,1.41412.28516,5.99,5.99,0,0,1,1.87817,1.68066,18.44112,18.44112,0,0,1,1.39087,1.95679,22.30453,22.30453,0,0,1,2.90357,9.00317,29.93481,29.93481,0,0,1,.174,4.72754,23.42081,23.42081,0,0,1-.74317,4.676,28.13643,28.13643,0,0,1-1.59924,4.4309,11.44687,11.44687,0,0,0-1.02051,4.408,4.68747,4.68747,0,0,0,.12561,1.09033c.10175.313.31073.67066.45978,1.00464a4.94832,4.94832,0,0,0,.60638.9502c.11219.15161.2146.31079.33448.4563l.39862.40527a12.38842,12.38842,0,0,0,3.76092,2.57178,27.51649,27.51649,0,0,0,8.95392,2.20581l-.17456.12622a2.69757,2.69757,0,0,1,1.03742-1.20068,5.88618,5.88618,0,0,1,1.35211-.73462,3.85345,3.85345,0,0,1,1.53405-.27954,4.13322,4.13322,0,0,1,.76166.1372c.23719.04492.47974.082.72528.10865,1.96875.20336,3.97382.22192,5.96344.23168h.01722l.0122.0022,1.29059.21289,1.27893.283a18.92492,18.92492,0,0,1,2.49732.81323,12.18261,12.18261,0,0,1,2.33606,1.238,6.85355,6.85355,0,0,1,1.93408,1.89868l.02472.03882.0061.05591.17706,1.62427c.02314.54541.01465,1.09521.01715,1.64331a9.43611,9.43611,0,0,1-.743,3.2373,6.34241,6.34241,0,0,1-2.13293,2.60645,6.47707,6.47707,0,0,1-3.20227,1.15869l.41009-.43335.01819,2.00415c-.02112.66846-.0708,1.33789-.11127,2.00659a22.47385,22.47385,0,0,1-.75085,3.967,13.94274,13.94274,0,0,1-1.63886,3.73291,10.41288,10.41288,0,0,1-1.28521,1.62622,6.44651,6.44651,0,0,1-1.70984,1.31006l.28619-.53442c.07251.5686.1499,1.137.2027,1.70776-.00934.57739.045,1.15357-.02057,1.73071a10.13211,10.13211,0,0,1-.84308,3.377,8.67957,8.67957,0,0,1-5.13977,4.53125l.295-.302a9.2663,9.2663,0,0,1-2.415,4.22,11.41385,11.41385,0,0,1-4.09156,2.5393,14.03486,14.03486,0,0,1-4.681.93726c-1.57519.06567-3.15106.063-4.72516.02173a69.391,69.391,0,0,1-9.384-.96656A48.67873,48.67873,0,0,1,150.7356,344.43042Z"/><path d="M158.723 273.67651a4.38831 4.38831 0 001.1886-1.16967 7.76328 7.76328 0 00.86835-1.60352 11.16261 11.16261 0 00.551-1.78857 16.83477 16.83477 0 00.28394-1.87818 16.98122 16.98122 0 01-.01312 1.91724 11.57264 11.57264 0 01-.30133 1.9187 8.43338 8.43338 0 01-.68854 1.86255 5.1607 5.1607 0 01-1.3111 1.67114zM180.747 302.17236a53.91424 53.91424 0 006.10235 1.10035 48.81008 48.81008 0 006.20087.39038 48.92886 48.92886 0 01-6.2207-.209 54.19059 54.19059 0 01-6.169-.92724zM188.4093 318.28613a10.19652 10.19652 0 013.04395-2.64306 8.0042 8.0042 0 011.90637-.78492 7.73915 7.73915 0 012.07751-.26342l-.04553.72827a7.10835 7.10835 0 00-1.91308.06933 7.54062 7.54062 0 00-1.86078.57642A10.01791 10.01791 0 00188.4093 318.28613zM185.43213 329.40674a13.4558 13.4558 0 012.33789-.59253 7.65244 7.65244 0 012.4826-.02319l-.18414.70605a7.1323 7.1323 0 00-2.26965-.31934A13.29044 13.29044 0 00185.43213 329.40674zM184.38068 339.9021a5.86158 5.86158 0 00.58081-2.08936 4.4805 4.4805 0 01.165 1.12647 8.20654 8.20654 0 01-.044 1.1626z"/></svg>