<svg xmlns="http://www.w3.org/2000/svg" data-name="Layer 1" viewBox="0 0 450 600"><defs><clipPath id="a"><circle cx="225" cy="239.327" r="71.762" fill="none"/></clipPath></defs><rect width="289.218" height="435.083" x="80.391" y="82.458" fill="#f9c746" rx="12.858"/><path fill="#817abf" d="M356.75071,82.45839H93.24925A12.85812,12.85812,0,0,0,80.39109,95.31648v60H369.60887v-60A12.858,12.858,0,0,0,356.75071,82.45839Z"/><path fill="#2e2b70" d="M154.93457 367.65723l-4.77051.001-7.50195-10.52734.00195 10.52832-4.13965.001-.0039-22.47071h4.13965l.002 9.91895 7.19824-9.9209h4.76953l-7.76758 10.915zM161.23242 363.419l8.85059-.002.001 4.23731-12.99023.00293-.00391-22.47071 12.83985-.00195.001 4.23731-8.70019.001.001 4.7832 7.95019-.001v4.17285l-7.95019.001zM177.25293 363.416l8.85059-.001.001 4.2373-12.99023.002-.00391-22.47071 12.83985-.00195.001 4.23731-8.70019.002.001 4.7832 7.9502-.00195V358.375l-7.9502.002zM196.96 345.17969a6.75118 6.75118 0 015.09961 2.18261 7.97454 7.97454 0 01.00195 10.72071 6.75086 6.75086 0 01-5.09863 2.18457h-3.69043l.001 7.38281-4.13965.001-.00391-22.46973zm.00195 10.94629a2.80273 2.80273 0 002.18946-.9795 3.83443 3.83443 0 00-.001-4.86328 2.82524 2.82524 0 00-2.18945-.96191h-3.69043l.001 6.80566zM226.50977 345.1748l4.11035-.001.0039 22.4707-4.11035.001-.00195-9.30957-7.79981.001.002 9.30957-4.13965.001-.00391-22.4707 4.13965-.001.00195 8.92383 7.79981-.001zM248.14355 367.6416l-1.26074-4.04492-8.37011.002-1.25977 4.04492H232.7832l7.34668-22.4707 5.12989-.001 7.38378 22.46875zm-8.3125-8.18457l5.76075-.001L242.71 350.27637zM266.94922 345.168l4.14062-.001.00391 22.47071h-3.15039l-9.00195-13.73731.00195 13.73926-4.13965.001-.00391-22.47071h3.14942l9.00195 13.70508zM283.44922 345.165a9.28082 9.28082 0 017.21582 3.24121 12.47914 12.47914 0 01.002 15.98535 9.27667 9.27667 0 01-7.21386 3.24414l-8.33985.001-.0039-22.46973zm.00293 18.2334a5.64206 5.64206 0 004.44043-1.94336 8.32879 8.32879 0 00-.002-10.11133 5.64354 5.64354 0 00-4.44043-1.94141l-4.2002.001.002 13.99512zM303.043 368.08105a8.92017 8.92017 0 01-5.25-1.49121 7.91157 7.91157 0 01-3.001-4.06054l3.54-2.21485a4.7298 4.7298 0 004.83008 3.4336 3.95987 3.95987 0 002.5498-.67481 2.11843 2.11843 0 00.80957-1.70117 2.09435 2.09435 0 00-.99023-1.8457 14.71529 14.71529 0 00-3.54-1.42774 20.89276 20.89276 0 01-2.38574-.89843 10.13864 10.13864 0 01-1.94922-1.20313 4.84359 4.84359 0 01-1.48535-1.91016 6.61455 6.61455 0 01-.51074-2.69628 6.20506 6.20506 0 012.02343-4.86329 7.05516 7.05516 0 014.875-1.81445A7.7109 7.7109 0 01307.044 346.044a8.797 8.797 0 013.01562 3.707l-3.47949 2.15136a4.20014 4.20014 0 00-4.02051-2.88867 3.02493 3.02493 0 00-2.02441.627 2.02964 2.02964 0 00-.73536 1.62109 2.08869 2.08869 0 00.8252 1.7168 11.1366 11.1366 0 003.166 1.42871q.95946.31933 1.45507.49707.49512.17577 1.34961.54492a7.95375 7.95375 0 011.32032.69043 10.535 10.535 0 011.06445.86621 4.37357 4.37357 0 01.915 1.12305 6.53654 6.53654 0 01.54 1.39648 6.64874 6.64874 0 01.22656 1.78125 6.20645 6.20645 0 01-2.11426 4.94434A8.11491 8.11491 0 01303.043 368.08105zM175.87988 411.14258a9.83881 9.83881 0 01-7.67968-3.4082 13.40414 13.40414 0 01-.00293-17.002 9.84253 9.84253 0 017.67871-3.41113 9.67408 9.67408 0 015.16992 1.4668 10.4279 10.4279 0 013.73047 3.94824l-4.55176 2.90527a4.47378 4.47378 0 00-1.74805-1.9082 4.92608 4.92608 0 00-2.59961-.70117 5.04882 5.04882 0 00-3.97851 1.71386 7.40864 7.40864 0 00.001 8.97364 5.05461 5.05461 0 003.9795 1.71289 4.91793 4.91793 0 002.59961-.70215 4.43819 4.43819 0 001.74707-1.94238l4.55371 2.93652a10.26162 10.26162 0 01-3.71582 3.96484A9.70992 9.70992 0 01175.87988 411.14258zM195.90918 405.00488l7.07812-.001.001 5.6455-12.335.002-.00391-22.84278 5.25684-.001zM214.14648 405.165l7.96-.00195.001 5.48242-13.21679.00293-.00391-22.84278 13.06933-.00293.001 5.44922-7.8125.002.001 3.165 7.07812-.001.001 5.38379-7.07813.002zM241.43262 410.64258l-.88086-3.2959-6.84375.001-.88086 3.29589-5.69727.001 6.78028-22.84375 6.40234-.001 6.78809 22.8418zm-6.374-8.32031l4.14063-.001-2.08594-7.76563zM263.9248 387.7959l5.22754-.001.00391 22.84278-4.05273.001-7.25684-11.48535.002 11.48633-5.25683.001-.00391-22.84278 4.082-.001 7.25684 11.48535zM282.459 404.957l-2.46484 10.24707-3.93555.001L277.085 404.958zM116.57617 451.9668a8.94414 8.94414 0 01-11.71875.002 7.67607 7.67607 0 01-2.27637-5.80762l-.00292-15.33789 5.25683-.001.002 14.78222a2.87794 2.87794 0 005.75586-.001l-.002-14.78223 5.25781-.001.00293 15.33789A7.6863 7.6863 0 01116.57617 451.9668zM133.18457 454.15039a9.05561 9.05561 0 01-5.4043-1.5332 7.99425 7.99425 0 01-2.99707-4.14356l4.49317-2.90527a4.10826 4.10826 0 004.05371 3.03418q2.40821 0 2.4082-1.53418 0-1.01075-1.38086-1.63086-.58887-.26075-2.585-.88086a10.936 10.936 0 01-4.46387-2.56055 6.20383 6.20383 0 01-1.6455-4.585 6.77576 6.77576 0 012.04-5.124 7.07222 7.07222 0 015.0957-1.959 8.04026 8.04026 0 014.58105 1.33789 8.39332 8.39332 0 013.05567 3.88281l-4.40528 2.87207q-.96972-2.54591-3.20117-2.54492a2.1078 2.1078 0 00-1.4248.4248 1.3683 1.3683 0 00-.48438 1.07715 1.53326 1.53326 0 00.71973 1.27246 11.45994 11.45994 0 002.80469 1.207 22.18271 22.18271 0 012.40918.91309 12.03734 12.03734 0 011.99707 1.22363 4.83147 4.83147 0 011.61523 2.05469 7.57659 7.57659 0 01.5293 2.95312 6.64861 6.64861 0 01-2.14258 5.25489A8.25166 8.25166 0 01133.18457 454.15039zM152.15625 448.1748l7.96-.001.001 5.48242-13.2168.002-.00391-22.84277 13.06934-.00195.001 5.44922-7.8125.001v3.166l7.07812-.001.001 5.38379-7.07813.001zM184.58105 454.1416a9.04881 9.04881 0 01-5.40429-1.5332 7.99419 7.99419 0 01-2.99707-4.14356l4.49316-2.90527a4.10827 4.10827 0 004.05371 3.03418q2.40821 0 2.40821-1.53418 0-1.01075-1.38086-1.63086-.58887-.26075-2.585-.88086a10.93588 10.93588 0 01-4.46387-2.56055 6.20383 6.20383 0 01-1.64551-4.585 6.77576 6.77576 0 012.04-5.124 7.07625 7.07625 0 015.0957-1.959 8.04037 8.04037 0 014.58106 1.33789A8.39324 8.39324 0 01191.832 435.54l-4.40527 2.87207q-.96974-2.54591-3.20117-2.54492a2.10787 2.10787 0 00-1.42481.4248 1.36834 1.36834 0 00-.48437 1.07715 1.53324 1.53324 0 00.71972 1.27246 11.46031 11.46031 0 002.80469 1.207 22.18191 22.18191 0 012.40918.91309 12.03693 12.03693 0 011.99707 1.22363 4.8284 4.8284 0 011.61523 2.05567 7.56809 7.56809 0 01.5293 2.95214 6.64856 6.64856 0 01-2.14258 5.25489A8.25159 8.25159 0 01184.58105 454.1416zM210.69043 453.64746l-.88184-3.2959-6.84375.002-.87988 3.29589-5.69726.001 6.78027-22.84375 6.40234-.002 6.78809 22.84179zm-6.375-8.32031h4.14062l-2.08593-7.7666zM233.18359 430.80078l5.22754-.001.00391 22.84278-4.05274.001-7.25683-11.48535.00195 11.48633-5.25683.001-.00391-22.84278h4.082l7.25684 11.48438zM245.665 430.79883l5.25684-.001.0039 22.84278-5.25683.001zM272.24414 430.79492l.001 5.64453-5.08106.001.00293 17.19727-5.25683.001-.00293-17.19726-5.08106.001-.001-5.6455zM278.14746 430.794l5.25684-.001.0039 22.84277-5.25683.001zM296.7998 447.9873l7.48926-.001.001 5.64551-14.30371.00195-.001-4.50293 7.25293-12.69531-7.10742.001-.001-5.6455 13.9209-.002.001 4.50293zM315.80078 448.14746l7.96-.001.001 5.48243-13.2168.00195-.0039-22.84277 13.06933-.002.001 5.44922-7.8125.001v3.165l7.07812-.001.001 5.38477-7.07813.001zM340.97168 453.626l-3.584-7.375-1.87989.001.001 7.375H330.252l-.0039-22.84277 8.22363-.001a6.98792 6.98792 0 015.27148 2.23438 7.87315 7.87315 0 012.13086 5.66113 7.69324 7.69324 0 01-.93945 3.76953 7.29355 7.29355 0 01-2.55469 2.72461l4.23145 8.45215zm-5.46582-17.458l.001 5.123h2.9082a1.90624 1.90624 0 001.58594-.68555 3.11831 3.11831 0 00-.001-3.7207 1.99557 1.99557 0 00-1.58594-.7168zM147.79785 477.57324l-8.40039.002.001 5.57714 8.16015-.001.001 4.43554-8.16016.001.001 9.07227h-4.13965l-.0039-23.51953 12.54-.002zM162.46973 496.65625l-4.23047-8.165-3.15039.001.001 8.165-4.13964.001-.00391-23.5205 8.39941-.001a6.39793 6.39793 0 014.95118 2.2832 7.9928 7.9928 0 012.041 5.51074 7.78115 7.78115 0 01-1.10937 4.04883 7.22362 7.22362 0 01-2.93946 2.80567l4.65137 8.87011zm-7.38282-19.18457l.001 6.95508 4.25977-.001a2.52563 2.52563 0 002.01074-1.02539 3.77 3.77 0 00.83984-2.46875 3.71359 3.71359 0 00-.84082-2.45312 2.54045 2.54045 0 00-2.01074-1.00782zM173.62988 492.21875l8.85059-.001v4.43457l-12.99024.002-.0039-23.51953 12.83984-.002.001 4.43457-8.7002.002.001 5.00586 7.9502-.001.001 4.36816-7.95019.001zM206.209 484.88867a12.64183 12.64183 0 01-2.57812 7.92969l2.16016 2.51953-2.93848 2.92383-2.28125-2.65332a9.80919 9.80919 0 01-5.28027 1.51172 9.97869 9.97869 0 01-7.71-3.543 13.45086 13.45086 0 01-.00292-17.3711 10.17468 10.17468 0 0115.43554-.00292A12.50471 12.50471 0 01206.209 484.88867zM195.291 492.585a6.62863 6.62863 0 002.33984-.4375l-3.45117-4.03125 2.93945-2.92383 3.69141 4.29981a8.49291 8.49291 0 001.25879-4.60254 8.00915 8.00915 0 00-1.95118-5.54395 6.43288 6.43288 0 00-9.66015.001 8.808 8.808 0 00.00195 11.05469A6.21941 6.21941 0 00195.291 492.585zM217.07129 497.11719a7.86549 7.86549 0 01-5.76074-2.2168 7.9712 7.9712 0 01-2.251-5.94629l-.00293-15.82617 4.11035-.001.00293 15.45606a4.27434 4.27434 0 00.94531 2.92383 4.60011 4.60011 0 005.91016-.001 4.27567 4.27567 0 00.94434-2.92383l-.00293-15.456 4.14062-.001.00293 15.82617a7.67157 7.67157 0 01-8.03906 8.166zM233.09082 492.209l8.85059-.002v4.43555l-12.99024.00195-.0039-23.51953 12.83984-.00293.001 4.43555-8.7002.001.001 5.00684 7.95019-.00195.001 4.36816-7.9502.00195zM257.11621 473.12012l4.14063-.001.0039 23.51953-3.15039.001-9.00195-14.37891.002 14.38086H244.9707l-.0039-23.51953 3.14941-.001 9.00293 14.34571zM279.166 473.11621l.001 4.43457-5.66992.001.00293 19.085-4.13965.001-.00293-19.085-5.64062.001-.001-4.43457zM285.74023 492.2002l8.00977-.002v4.43555l-12.14941.002-.00391-23.52051h4.13965zM310.09668 473.11035L302.89941 487.459l.001 9.17286-4.11035.001-.001-9.17285-7.17285-14.3457 4.67969-.001 4.5625 9.81055 4.55762-9.8125zM312.5 496.22754a2.34949 2.34949 0 01-3.60059 0 3.0835 3.0835 0 010-4.03125 2.34861 2.34861 0 013.60059-.001 3.08481 3.08481 0 010 4.03223z"/><circle cx="225" cy="239.327" r="71.762" fill="#fff9e7"/><g clip-path="url(#a)"><path fill="#ef4d59" d="M171.92121,148.96581s18.81688,9.40326,31.71978,20.5645a27.12733,27.12733,0,0,1,5.93583,7.26305,35.28514,35.28514,0,0,1,2.78108,6.13158,28.10237,28.10237,0,0,0,4.72461,8.96167,46.4833,46.4833,0,0,0,7.87872,7.82905s3.32734,4.17327,4.11687,5.52677,4.06048,3.27094,5.414,3.38373,5.30118,4.17327,6.20351,4.62443,1.46628.78954,1.46628.78954,4.06048,13.04617,14.21168,10.97834a3.43788,3.43788,0,0,0,2.81978-2.519s2.54912,1.31567,4.0666-.96776a1.6341,1.6341,0,0,0-.48216-2.257c-2.01385-1.32742-6.04663-4.123-6.96817-5.79851-1.2407-2.25583-5.0756-8.00817-6.88026-15.79076,0,0-.45116-10.48957-1.97384-13.70412s-9.30527-11.16632-10.32039-12.35063-5.24479-6.93665-9.64364-9.47445-16.5803-14.71924-16.5803-14.71924"/><path d="M230.09326,187.647a32.27476,32.27476,0,0,0,1.67578,4.11933,29.95339,29.95339,0,0,0,2.18457,3.81433,28.59661,28.59661,0,0,0,2.68848,3.47235,43.618,43.618,0,0,0,3.15137,3.1441,17.21851,17.21851,0,0,1-3.67481-2.63025,18.83667,18.83667,0,0,1-2.94726-3.46588,19.47477,19.47477,0,0,1-2.07422-4.04748A15.294,15.294,0,0,1,230.09326,187.647Z"/><path d="M242.16211 214.04011c-.77393-2.00623-1.40869-4.05664-1.99463-6.12231a62.85609 62.85609 0 01-1.45752-6.286c-.188-1.06495-.26318-2.172-.46435-3.15217a8.71787 8.71787 0 00-1.09668-2.8388 5.64348 5.64348 0 00-2.17432-2.0929 4.54669 4.54669 0 00-3.02979-.50952 4.4657 4.4657 0 013.22559.09241 6.17722 6.17722 0 012.57715 2.10443 8.4478 8.4478 0 011.36621 3.04828c.25244 1.11224.32129 2.15082.52246 3.19134.34961 2.09253.80762 4.17749 1.23047 6.27173C241.30371 209.83857 241.76123 211.929 242.16211 214.04011zM248.9292 197.68544c.15478 2.35284.43213 4.6817.79639 6.992.39257 2.30554.8413 4.59735 1.44336 6.85034l.4624 1.685a10.81121 10.81121 0 002.53613 4.34894c.78174.80157 1.74316 1.55517 2.5874 2.36627a29.81536 29.81536 0 012.43848 2.57147c-1.77881-1.571-3.66992-2.87994-5.53125-4.42065a10.26818 10.26818 0 01-2.21582-2.89716 10.50817 10.50817 0 01-.69385-1.70257l-.49219-1.71229a45.8241 45.8241 0 01-1.24853-6.99688A37.13638 37.13638 0 01248.9292 197.68544z"/><path fill="#ef4d59" d="M148.31161,257.00576s26.702,6.85985,43.62062,17.01105a48.56724,48.56724,0,0,0,40.6048-2.707,101.75717,101.75717,0,0,1,12.689-5.58316c4.90642-1.52268.84594-5.75235-.84593-5.92153s-12.35063,3.55292-12.85819,3.89129c0,0-17.08785-1.52268-20.47159.16919,0,0-7.275-1.18431-12.01225-9.13608s-14.71924-9.13608-16.74948-9.64364-33.977-15.13281-33.977-15.13281"/><path d="M189.2251 265.38832a11.30885 11.30885 0 013.69336-.15851 18.59886 18.59886 0 013.646.7489 26.89149 26.89149 0 013.47657 1.34747c.56347.26245 1.11035.55835 1.66748.83673l1.60839.94464-.04931-.02691c2.479 1.09 5.01269 2.09472 7.57617 2.9638 1.28516.42572 2.56689.85743 3.87012 1.1908a14.21934 14.21934 0 003.90332.56287c.61328-.03382 1.2583-.1886 1.43408-.59742a1.23974 1.23974 0 00.09082-.74963c-.05127-.29907-.147-.61774-.21631-.92816a8.4275 8.4275 0 00-2.10058-3.28491 21.72743 21.72743 0 00-6.77491-4.37238 21.14034 21.14034 0 013.77881 1.59717 15.76938 15.76938 0 013.38867 2.37268 9.06886 9.06886 0 012.40869 3.44769c.09717.34961.21436.68305.292 1.0506a1.96116 1.96116 0 01-.15332 1.23914 1.59828 1.59828 0 01-.42285.527 2.56319 2.56319 0 01-.55079.30579 3.95965 3.95965 0 01-1.12011.22522 14.93226 14.93226 0 01-4.17383-.52869c-1.34131-.33429-2.66309-.72-3.95606-1.18121-2.58886-.91955-5.11474-1.96332-7.61181-3.104l-.02246-.01038-.02735-.01672-1.54931-.96216c-.53077-.29413-1.05371-.6073-1.59278-.88739a26.26437 26.26437 0 00-3.33789-1.46295 22.4069 22.4069 0 00-3.52148-.95142A12.5528 12.5528 0 00189.2251 265.38832zM237.7251 261.49024a10.00879 10.00879 0 012.522-.17254 9.32035 9.32035 0 012.51025.46448 6.0001 6.0001 0 012.20166 1.33862 4.34477 4.34477 0 011.11622 2.27429 5.45905 5.45905 0 00-1.36573-2.01251 6.25637 6.25637 0 00-2.10644-1.15711 10.70211 10.70211 0 00-2.38916-.54943A22.241 22.241 0 00237.7251 261.49024z"/><path d="M216.08984,266.4557a60.6787,60.6787,0,0,1,8.49512-.4646l-.17139.0329a57.722,57.722,0,0,1,7.1084-2.32758,57.68908,57.68908,0,0,1-6.76513,3.19086l-.07959.03271-.09229.00025A60.68774,60.68774,0,0,1,216.08984,266.4557Z"/></g><path fill="#ef4d59" d="M225,313.26953a73.94287,73.94287,0,1,1,73.94336-73.94336A74.02717,74.02717,0,0,1,225,313.26953Zm0-143.52441a69.58154,69.58154,0,1,0,69.582,69.58105A69.6606,69.6606,0,0,0,225,169.74512Z"/><rect width="7.706" height="3.69" x="256.51" y="230.987" fill="#817abf"/><rect width="7.706" height="10.854" x="256.51" y="238.259" fill="#817abf"/><rect width="36.143" height="57.579" x="242.292" y="261.486" fill="#817abf" rx="2.487"/><path d="M235.28613 226.88978l.05518 5.10376c.07324.82721-.167 1.81262.52148 2.27356a1.51976 1.51976 0 001.11621.22839l1.27637-.03192a7.917 7.917 0 001.21045-.06891 1.1258 1.1258 0 00.73486-.6737 3.91185 3.91185 0 00.0625-1.1662 1.67956 1.67956 0 011.84717-1.87116l1.27588.00757 2.55176.0152c6.80517.1438 13.61035.249 20.41553.09314a10.465 10.465 0 001.228-.04785 1.143 1.143 0 00.78369-.67212 1.21987 1.21987 0 00.083-.53174l-.01025-.63794-.02149-1.27594-.01025-.638a1.21623 1.21623 0 00-.0918-.51312 1.07751 1.07751 0 00-.7373-.61035 1.12257 1.12257 0 00-.24414-.0282l-.31787.00189-.63819.00421-1.27588.0083q-5.10351.04624-10.20752.02252-5.10351.00074-10.20751-.13354l-5.104-.12427-2.55176-.03222a1.747 1.747 0 00-1.19287.24066A1.32146 1.32146 0 00235.28613 226.88978zm-.06787 0a1.40225 1.40225 0 01.56494-1.13226 1.84651 1.84651 0 011.24707-.28253l2.55176-.03223 5.104-.12427q5.10351-.14044 10.20751-.13354 5.10352-.02893 10.20752.02252l1.27588.00836.63819.00415.31982.00226a1.73965 1.73965 0 01.38721.05035 1.64667 1.64667 0 011.13086.98737 1.81056 1.81056 0 01.11474.736l-.01074.638-.021 1.27594-.01075.63794a1.69982 1.69982 0 01-.1416.7135 1.58016 1.58016 0 01-1.11181.894 9.99867 9.99867 0 01-1.31836.01917c-6.80518-.15588-13.61036-.05066-20.41553.09314l-2.55176.0152-1.27588.00763a1.18629 1.18629 0 00-.96142.3023c-.565.47388-.14844 1.31342-.45411 2.32349a1.58878 1.58878 0 01-1.106.95392 2.57678 2.57678 0 01-.6958.03668l-.6377-.01593L236.979 234.859a3.92854 3.92854 0 01-.66845-.04559 1.53584 1.53584 0 01-.63428-.31043 1.50219 1.50219 0 01-.54346-1.23352l.03028-1.27594zM255.67627 234.64332c2.417.001 4.83447-.38544 7.252-.24835l1.813.09344a1.67331 1.67331 0 011.62793.88837 1.9507 1.9507 0 01.14307.93646 4.85892 4.85892 0 01-.02686.931 1.54191 1.54191 0 01-1.43457 1.20038c-2.41748.12872-4.83447.17444-7.25195.17609-.60449-.01416-1.2085-.0083-1.813-.03882a2.16159 2.16159 0 01-1.00781-.19782 1.53074 1.53074 0 01-.71485-.7774 1.89544 1.89544 0 01-.10009-.98376 5.14605 5.14605 0 01.10254-.92524A1.47679 1.47679 0 01255.67627 234.64332zm0 .06787a1.25355 1.25355 0 00-1.227 1.03009 5.11179 5.11179 0 00.02637.88166 1.47391 1.47391 0 00.187.7843 1.17391 1.17391 0 00.55664.46588 1.59284 1.59284 0 00.7666.06286c.60449-.03051 1.2085-.02465 1.813-.03875 2.41748.00158 4.83447.0473 7.25195.176a1.18367 1.18367 0 001.20264-.88415 4.88939 4.88939 0 00.04931-.87586 1.5124 1.5124 0 00-.14355-.83154 1.19882 1.19882 0 00-.59033-.548 1.70181 1.70181 0 00-.82764-.06763l-1.813.09344C260.51074 235.09663 258.09326 234.71015 255.67627 234.71119zM250.95117 256.0829c-.0581-1.26014-.13183-2.57331-.17236-3.91706l-.03272-1.00934a5.27091 5.27091 0 01.01807-1.06054 1.65455 1.65455 0 011.72314-1.26258c2.62549-.05908 5.251.00287 7.876.09162 2.62549.10077 5.251.09772 7.876.04016a1.55475 1.55475 0 011.666 1.14435c.10205.741.05518 1.33612.08985 2.01135l.07666 3.93793.00635.31463-.32618.00537C263.4165 256.484 256.9873 256.31813 250.95117 256.0829zm.04785-.048c6.48145-.23523 12.57032-.40112 18.75293-.2959l-.31982.31977.07617-3.93793c.001-.6347.064-1.36108.01416-1.92047a1.208 1.208 0 00-1.2832-.94037c-2.625-.05756-5.25049-.06061-7.876.04016-2.625.08881-5.25049.1507-7.876.09161a1.11335 1.11335 0 00-1.22558.82233c-.07471.53107-.05469 1.2431-.09033 1.862z"/><path d="M248.78027,261.50971c-.05468-1.31854-.14306-2.70666-.168-4.129a1.57891,1.57891,0,0,1,1.49024-1.5669l2.05957-.02807c2.73389-.0376,5.46728-.0434,8.20117.05438,2.73389.08179,5.46777.14557,8.20166.09839l2.05615-.033a1.53561,1.53561,0,0,1,1.50147,1.47485l.08935,4.10523.00635.2843-.2959.00506c-3.88769.06678-7.80322.07245-11.68945.02546l-5.78223-.11847Zm.04786-.048,5.88916-.17224,5.77636-.11841c3.82031-.04706,7.61035-.04138,11.42871.02539l-.28906.28913.08643-4.0962a1.17958,1.17958,0,0,0-1.10987-1.17211l-2.04492-.038c-2.73389-.04718-5.46777.0166-8.20166.09839-2.73389.09778-5.46728.092-8.20117.05444l-2.0415-.02313a1.13594,1.13594,0,0,0-1.1211,1.08032C248.96875,258.70069,248.88477,260.04646,248.82813,261.46174Z"/><path fill="#817abf" d="M235.67748,244.17413l2.261-5.91525,2.26135,5.91525a2.42075,2.42075,0,1,1-4.52236,0Z"/><polygon points="271.597 288.579 262.059 288.579 262.059 279.042 258.668 279.042 258.668 288.579 249.13 288.579 249.13 291.971 258.668 291.971 258.668 301.509 262.059 301.509 262.059 291.971 271.597 291.971 271.597 288.579"/><path fill="#fff" d="M160.3457 128.5a8.4392 8.4392 0 01-10.17285 0 5.72739 5.72739 0 01-1.99219-4.58789V111.48438H152.375v12.06054q0 2.56934 2.88477 2.56934 2.8828 0 2.88378-2.56934V111.48438h4.19434v12.42773A5.72736 5.72736 0 01160.3457 128.5zM174.39941 130.20508a8.41828 8.41828 0 01-4.68066-1.21973 6.63925 6.63925 0 01-2.66113-3.31738l3.61816-2.09668a3.89487 3.89487 0 003.85449 2.543q2.49024 0 2.49024-1.49414a1.41182 1.41182 0 00-.79981-1.27246 14.71927 14.71927 0 00-3.00195-1.06055 13.56805 13.56805 0 01-2.01855-.709 8.41627 8.41627 0 01-1.69141-1.03516 4.1525 4.1525 0 01-1.25781-1.61231 5.41067 5.41067 0 01-.43262-2.22851 5.02025 5.02025 0 011.82227-4.06348 6.55649 6.55649 0 014.33886-1.52148 7.45553 7.45553 0 013.98535 1.0625 7.28533 7.28533 0 012.72657 3.08008l-3.53907 2.07128a4.09724 4.09724 0 00-1.23242-1.58593 3.2124 3.2124 0 00-1.94043-.53809 2.29811 2.29811 0 00-1.45508.40625 1.22185 1.22185 0 00-.51171.98438 1.46106 1.46106 0 00.64257 1.17968 9.21171 9.21171 0 002.66114 1.10059q1.10156.34131 1.7041.55078a12.2383 12.2383 0 011.53418.69434 5.055 5.055 0 011.416 1.02343 5.155 5.155 0 01.86524 1.416 5.46709 5.46709 0 01-1.50781 6.13477A7.6614 7.6614 0 01174.39941 130.20508zM189.999 125.7998h7.34082v4.03809H185.80371V111.48438H197.209v4.0371h-7.21v3.042h6.55371v3.98535H189.999zM217.92188 130.20508a8.41829 8.41829 0 01-4.68067-1.21973 6.63925 6.63925 0 01-2.66113-3.31738l3.61816-2.09668a3.89487 3.89487 0 003.85449 2.543q2.49024 0 2.49024-1.49414a1.41182 1.41182 0 00-.79981-1.27246 14.71927 14.71927 0 00-3.00195-1.06055 13.56805 13.56805 0 01-2.01855-.709 8.41627 8.41627 0 01-1.69141-1.03516 4.15259 4.15259 0 01-1.25781-1.61231 5.41084 5.41084 0 01-.43262-2.22851 5.02028 5.02028 0 011.82227-4.06348 6.55649 6.55649 0 014.33886-1.52148 7.45553 7.45553 0 013.98535 1.0625 7.28526 7.28526 0 012.72657 3.08008l-3.53907 2.07128a4.09724 4.09724 0 00-1.23242-1.58593 3.2124 3.2124 0 00-1.94043-.53809 2.29808 2.29808 0 00-1.45507.40625 1.22183 1.22183 0 00-.51172.98438 1.46106 1.46106 0 00.64257 1.17968 9.21184 9.21184 0 002.66114 1.10059q1.10156.34131 1.7041.55078a12.2383 12.2383 0 011.53418.69434 5.05471 5.05471 0 011.416 1.02343 5.155 5.155 0 01.86524 1.416 5.46709 5.46709 0 01-1.50781 6.13477A7.66139 7.66139 0 01217.92188 130.20508zM240.8623 129.83789l-.918-2.88476h-6.81641l-.918 2.88476h-4.58789l6.24023-18.35351h5.34864l6.23926 18.35351zm-6.47558-6.81738h4.2998l-2.15039-6.73828zM259.87012 111.48438h4.19531v18.35351H260.919l-7.07813-9.96289v9.96289h-4.19531V111.48438H252.792l7.07813 9.96289zM269.834 111.48438h4.19532v18.35351H269.834zM292.11914 111.48438v4.0371h-4.71875v14.31641h-4.19531V115.52148h-4.71973v-4.0371zM296.57617 111.48438h4.19531v18.35351h-4.19531zM311.31055 125.7998h7.1582v4.03809h-12.585v-3.25195l7.02637-11.06446h-6.89551v-4.0371h12.32226v3.251zM327.51465 125.7998h7.34082v4.03809H323.31934V111.48438h11.40527v4.0371h-7.21v3.042h6.55371v3.98535h-6.55371zM349.48535 129.83789l-3.46094-6.03125h-1.99218v6.03125h-4.19532V111.48438h7.34082a6.26842 6.26842 0 016.293 6.293 5.583 5.583 0 01-.93066 3.10645 6.388 6.388 0 01-2.45215 2.21582l3.90723 6.73828zm-5.45312-14.4209v4.71973h3.1455a1.926 1.926 0 001.48145-.68164 2.59206 2.59206 0 000-3.35547 1.927 1.927 0 00-1.48145-.68262z"/><path fill="#f9c746" d="M132.6463,139.61037H99.25461a6.26351,6.26351,0,0,1-5.42506-9.39542l16.69584-28.91774a6.26627,6.26627,0,0,1,10.85012,0l16.69585,28.91774a6.266,6.266,0,0,1-5.42506,9.39542"/><path fill="#5f66ae" d="M115.95026 127.17707a2.07222 2.07222 0 11-2.07222 2.07222 2.073 2.073 0 012.07222-2.07222M115.95026 123.03264a2.073 2.073 0 01-2.07222-2.07221v-8.28887a2.07222 2.07222 0 014.14443 0v8.28887a2.073 2.073 0 01-2.07221 2.07221"/></svg>