<svg xmlns="http://www.w3.org/2000/svg" data-name="Layer 1" viewBox="0 0 450 600"><defs><clipPath id="a"><ellipse cx="224.903" cy="311" fill="none" rx="106.542" ry="106.639"/></clipPath></defs><rect width="289.218" height="435.083" x="80.391" y="82.458" fill="#ffc74a" rx="12.858"/><path fill="#5b2d07" d="M80.44457,453.30909h289v53.18653a11,11,0,0,1-11,11h-267a11,11,0,0,1-11-11Z"/><ellipse cx="224.903" cy="311" fill="#fffae6" rx="106.542" ry="106.639"/><g clip-path="url(#a)"><path fill="#ffc74a" d="M94.3642,243.85574s51.00456,36.10239,70.44829,40.89724c0,0,21.75428-4.79485,23.276-5.0769a42.94393,42.94393,0,0,1,28.54666,6.2051s11.58077,2.82049,16.653,1.6923,9.533,17.31356-19.0758,12.65474l-5.15306-1.0907s.55824,3.10255,12.67534,11.56405c0,0,14.935,16.35889,18.31656,20.30759s21.41628,34.97418,6.763,29.61524c0,0,7.60841,15.23069-.2818,18.05119S234.979,371.535,234.979,371.535s-2.97,13.90981-12.05224,2.34576c0,0-4.29176,14.1025-13.30914,0S188.08853,343.515,188.08853,343.515L70.41178,276.29148"/><path d="M206.51786 302.80414a92.2041 92.2041 0 01-9.14874 5.19213 85.80581 85.80581 0 01-9.69916 4.126 51.45608 51.45608 0 01-5.08032 1.46216 28.554 28.554 0 01-5.24017.79785 15.40263 15.40263 0 01-5.27991-.55322 7.38524 7.38524 0 01-4.16071-3.12744 7.45809 7.45809 0 004.26892 2.759 15.04137 15.04137 0 005.13025.32056 42.5019 42.5019 0 0010.10755-2.39869 99.90941 99.90941 0 009.69519-3.92724C200.28782 306.00189 203.42057 304.4433 206.51786 302.80414zM206.51786 312.95794a44.082 44.082 0 00-5.884 8.25684 52.202 52.202 0 00-4.12384 9.23267 55.16717 55.16717 0 00-2.40167 9.82739c-.34156 1.66089-.4065 3.35644-.59809 5.041-.15924 1.68824-.13434 3.38672-.24652 5.08863-.06531-1.69654-.16675-3.40308-.1369-5.10767.1145-1.7.11328-3.41626.385-5.10571.10809-.84741.20856-1.69776.34692-2.54151l.5365-2.50952a25.13244 25.13244 0 01.63464-2.48632c.25019-.81812.43744-1.65723.73993-2.459a48.30292 48.30292 0 014.34723-9.28393A35.53158 35.53158 0 01206.51786 312.95794zM216.63523 327.602l14.91651 10.9978.08032.05933.04663.11328a61.964 61.964 0 002.918 6.03662 64.466 64.466 0 003.51928 5.69458 48.69769 48.69769 0 004.19581 5.15112 30.33733 30.33733 0 005.02575 4.17407l-1.04638 1.59107a32.059 32.059 0 01-5.17188-4.666 50.11765 50.11765 0 01-4.11548-5.50439 65.57224 65.57224 0 01-3.34411-5.95239 62.69723 62.69723 0 01-2.70691-6.25611l.12671.17212z"/><polygon points="234.147 371.997 218.06 341.096 235.811 371.072 234.147 371.997"/><polygon points="222.104 374.36 209.059 350.055 223.75 373.402 222.104 374.36"/><path fill="#956024" d="M290.96821,359.11264V264.62029a13.30579,13.30579,0,0,0-13.29973-13.31184H251.22925a13.30576,13.30576,0,0,0-13.2997,13.31182v12.78852h15.95208V267.27506h21.1345v96.93922a9.317,9.317,0,0,0,9.31275,9.32123h62.97563V359.11264Z"/><path fill="#956024" d="M259.25526,252.99424V245.733a7.1576,7.1576,0,0,1-3.22494-2.42052s-3.5651,1.0122-5.41242,1.72894a12.03052,12.03052,0,0,1-6.7148.72781,4.97158,4.97158,0,0,1-1.8955-8.72166c2.29539-1.88,6.39961-2.85676,13.33178,2.00018,0,0,2.85665-6.34483,8.42643-4.98281a7.39343,7.39343,0,0,1,4.10743,2.79851l.68751.91641s6.65628-6.97506,12.05665-3.89246a5.66422,5.66422,0,0,1,2.58546,6.67629c-.95014,2.7995-4.22187,5.39983-14.64211.90458,0,0-1.01463,3.57315-4.1239,3.91894l.281,8.37648"/><path d="M255.98714 243.28363a5.95376 5.95376 0 01-.86368-2.59341 7.94521 7.94521 0 00-.745 3.06631zM268.55 237.77263a6.92306 6.92306 0 010 2.07473s1.43635-2.184 1.21849-3.19553zM232.64109 273.84588a107.36419 107.36419 0 0111.83631-1.28344 106.12705 106.12705 0 0111.90515-.11841 106.19239 106.19239 0 01-11.83631 1.28345A107.42329 107.42329 0 01232.64109 273.84588zM230.57517 278.414c4.61206-.79688 9.25-1.24072 13.89417-1.59839 4.64673-.32251 9.29993-.5564 13.97912-.43457-4.61193.79956-9.24987 1.24341-13.89416 1.59839C239.90733 278.2995 235.25413 278.53314 230.57517 278.414z"/><path fill="#817abf" d="M217.95193,418.12624c-1.6625-14.38522-1.90562-61.29129.01-68.66863,1.47537-5.68194,3.01852-8.92891,3.17487-15.32795.21534-8.81448-2.52163-10.47376-2.80132-21.12266-.17583-6.69455-.25244-12.52559,3.36156-17.758,1.75246-2.53726,2.9934-2.93672,7.657-7.47706a105.70972,105.70972,0,0,0,9.01712-9.92655l13.524-.98632c1.3695,2.41269,4.007,6.67313,6.67,11.19326,8.28532,14.0629,9.11443,14.44315,10.83184,18.31879,4.551,10.27014,4.17476,19.89,3.92186,26.35659-.44712,11.43315-3.20707,13.70253-3.73512,23.92656-.53692,10.396,13.80838,54.2966,12.09529,68.51515"/><path d="M246.08152 298.49432a61.41088 61.41088 0 019.71411 13.60718 47.82257 47.82257 0 015.01258 15.92529 51.98856 51.98856 0 01-.32044 8.38916 77.81426 77.81426 0 01-1.35022 8.27588c-.5625 2.73731-1.29956 5.42871-1.92285 8.13208a32.06526 32.06526 0 00-1.07349 8.22022l-.07763.0061a22.57559 22.57559 0 01-.0459-4.19531c.13989-1.39331.324-2.78711.60132-4.156.53088-2.74585 1.16516-5.45508 1.73291-8.17187.54382-2.72168 1.05505-5.44727 1.40881-8.19873a59.09605 59.09605 0 00.62219-8.27442 29.293 29.293 0 00-1.63928-8.12036 46.82642 46.82642 0 00-3.51721-7.52881 103.53041 103.53041 0 00-9.20276-13.8584zM230.61326 307.22015a121.25993 121.25993 0 00-.86353 13.97315 67.32576 67.32576 0 00.20374 7.00073c.19409 2.33935.70789 4.60449 1.09888 6.93506a15.62266 15.62266 0 01.24694 1.75024c.06263.58594.13038 1.17285.1742 1.76123.027 1.17749.12329 2.35913.056 3.53711a47.83454 47.83454 0 01-.6471 7.03784 58.01428 58.01428 0 01-3.89257 13.52832l-.07239-.02881a96.224 96.224 0 003.17187-13.62426 55.08694 55.08694 0 00.54078-13.9043c-.14148-1.15186-.27442-2.31738-.47449-3.47607-.20142-1.15674-.29175-2.32813-.47022-3.488-.24621-2.33252-.50171-4.6709-.58069-7.02344a55.87237 55.87237 0 011.43226-13.99438zM244.55052 326.55511a59.3879 59.3879 0 01.65808 11.21729c-.09107 1.874-.27381 3.74145-.4187 5.60766l-.42237 5.60254a68.82125 68.82125 0 01-1.798 11.11011 50.066 50.066 0 01-4.02918 10.50391l-.07055-.03272a97.83669 97.83669 0 003.29455-10.67407c.87342-3.614 1.61621-7.26392 2.17981-10.95679.15186-.92138.26038-1.84912.35877-2.77783.1112-.92749.192-1.85815.218-2.79248.12159-1.86426.05274-3.73657.03968-5.60083-.00257-3.73023-.01319-7.45508-.08753-11.19849z"/><polygon points="275.016 267.275 278.884 267.275 275.016 277.613 275.016 267.275"/><polygon points="253.882 267.275 258.06 267.275 253.882 264.621 253.882 267.275"/><polygon points="290.968 359.113 290.968 362.729 297.721 359.113 290.968 359.113"/><path fill="#f94b58" d="M87.08358,316.40077,144.6698,331.6803s13.72727,4.9031,28.96314-11.07185a27.91789,27.91789,0,0,1,13.37772-4.48417c7.91807-.52419,6.83-3.48357,10.16113-4.06545s17.55124,3.51934,20.57545,2.99107,15.10624-1.77982,7.64116,9.54514c0,0-7.91418,7.10871-21.93019,3.83076l-5.332,5.51241,19.50111,11.76813s45.15925,4.70934,46.61265,13.04485c0,0,.46218,5.93184-4.583,6.52682,0,0,15.84,5.53614,11.11166,11.22941s-14.99026,2.6185-14.99026,2.6185,6.7762,7.692,1.50185,8.61336a27.41236,27.41236,0,0,1-11.65909,2.03661s-1.70908,11.17844-13.43678,8.0734c0,0-19.91183.84242-32.33766-1.50908-12.40623-2.34779-30.81873-14.37217-50.22295-25.5846,0,0-56.84644-9.39618-79.21194-17.085"/><path d="M219.26536 360.02215l40.44214 4.86768a.39148.39148 0 11-.09363.77734l-.00745-.001zM214.12351 374.28167c6.99756.25367 13.991.66407 20.97058 1.2771q5.23572.44972 10.45057 1.1565a71.71824 71.71824 0 0110.35131 2.03711.39162.39162 0 01-.22082.75146l-.00525-.00146-.00916-.00293a71.13777 71.13777 0 00-10.20239-2.20337q-5.1784-.80531-10.40246-1.34766C228.09751 375.20648 221.11472 374.66571 214.12351 374.28167zM209.14073 385.07757q9.16167.84229 18.3125 1.81079c3.05017.32666 6.09887.667 9.14465 1.04834a87.41594 87.41594 0 019.14209 1.46607.39112.39112 0 01-.18421.76025l-.0061-.00146-.04736-.0127a88.19025 88.19025 0 00-8.9834-1.63012c-3.0315-.44532-6.07068-.85035-9.11157-1.24146Q218.28447 386.10358 209.14073 385.07757zM257.63669 353.69145s-3.81086 8.24474 4.89081 10.28878S266.80884 353.79739 257.63669 353.69145zM266.65038 368.5554s-11.77348.39874.77453 10.50738a4.67506 4.67506 0 007.46316-2.37695C275.50356 374.248 274.08627 371.25067 266.65038 368.5554z"/><path d="M253.46089 378.48615s-8.99415 4.481 1.92794 10.19034a4.59788 4.59788 0 006.5621-2.72675C262.6156 383.56895 261.3164 380.64776 253.46089 378.48615zM238.95474 388.55916s-7.88854 4.91442 3.71035 8.89809a4.87041 4.87041 0 005.99383-2.382C249.78639 392.73294 248.89951 389.78736 238.95474 388.55916zM214.73163 314.88078s.31559 6.01939 13.01756 3.21092C227.74919 318.0917 240.56131 313.82963 214.73163 314.88078z"/><polygon points="197.988 333.748 193.725 337.737 206.296 338.761 197.988 333.748"/><path fill="#817abf" d="M219.2655 278.414a11.438 11.438 0 00-2.35186 2.66309 17.02636 17.02636 0 00-1.57913 3.07153 20.34281 20.34281 0 00-.94591 3.25147c-.1244.54248-.18392 1.11059-.27807 1.65234L213.952 290.714l-.00829.08716a2.64416 2.64416 0 11-5.26425-.5039 2.70225 2.70225 0 01.25319-.90235c.29124-.60205.57126-1.19946.87176-1.78491.33417-.57813.63029-1.15918.99275-1.71265a23.63276 23.63276 0 012.34455-3.13745 18.98887 18.98887 0 012.84067-2.58716A12.06049 12.06049 0 01219.2655 278.414zM203.78351 316.77605a11.46154 11.46154 0 00-2.35186 2.66333 17.08943 17.08943 0 00-1.57913 3.07154 20.44912 20.44912 0 00-.94591 3.25122c-.12391.54272-.18392 1.11059-.27758 1.65234l-.15855 1.66187-.00878.08716a2.64391 2.64391 0 11-5.26376-.50391 2.70968 2.70968 0 01.2527-.90234c.29173-.6023.57175-1.19947.87225-1.78516.33417-.57813.6298-1.15894.99275-1.7124a23.63291 23.63291 0 012.34454-3.13745 18.965 18.965 0 012.84068-2.58716A12.06578 12.06578 0 01203.78351 316.77605zM271.64991 293.48382a20.28863 20.28863 0 013.50852 2.251 19.61655 19.61655 0 013.07581 3.03466 15.20626 15.20626 0 012.29381 3.95752 14.41966 14.41966 0 01.93226 4.791 2.63012 2.63012 0 11-5.16863-.55811l.01512-.05322a9.806 9.806 0 00.4332-3.28369 11.86132 11.86132 0 00-.74834-3.54639 17.66049 17.66049 0 00-1.784-3.45825A19.66263 19.66263 0 00271.64991 293.48382zM276.04434 337.18255a20.26917 20.26917 0 011.68353 3.81567 19.63157 19.63157 0 01.8903 4.23 15.21771 15.21771 0 01-.27075 4.56714 14.40111 14.40111 0 01-1.86549 4.50977 2.6307 2.6307 0 11-4.00124-3.32178l.042-.03589a9.78354 9.78354 0 002.17234-2.49853 11.86213 11.86213 0 001.33277-3.37012 17.63784 17.63784 0 00.42-3.86939A19.64948 19.64948 0 00276.04434 337.18255zM215.99309 336.25457a8.25947 8.25947 0 00-1.52888 3.33569 10.863 10.863 0 00-.17318 3.50464 14.50528 14.50528 0 00.80786 3.34229c.19952.53711.45076 1.06469.66541 1.58349l.80785 1.52442.05318.1001a2.64341 2.64341 0 11-4.66958 2.479 2.7101 2.7101 0 01-.281-.86035l-.30148-2.08472c-.042-.71289-.10733-1.40649-.11464-2.10962a17.70483 17.70483 0 01.44588-4.18188 12.80025 12.80025 0 011.56644-3.80689A8.881 8.881 0 01215.99309 336.25457zM236.47492 351.87615a8.25945 8.25945 0 00-1.52888 3.3357 10.86265 10.86265 0 00-.17269 3.50463 14.50031 14.50031 0 00.80785 3.34205c.199.53735.45028 1.06494.66493 1.58349l.80785 1.52466.05318.1001a2.64341 2.64341 0 11-4.66958 2.479 2.70864 2.70864 0 01-.2805-.86035l-.30149-2.08472c-.042-.71289-.10732-1.40649-.11513-2.10962a17.67883 17.67883 0 01.44638-4.18188 12.809 12.809 0 011.566-3.80689A8.88618 8.88618 0 01236.47492 351.87615zM252.33645 378.06316a6.25783 6.25783 0 00.91518-.75293c.31661-.29492.621-.61181.91957-.93969a15.85352 15.85352 0 001.61913-2.14258 12.69381 12.69381 0 001.21472-2.47217 11.51793 11.51793 0 00.62833-2.80054 12.19329 12.19329 0 01.66053 2.94776 14.61993 14.61993 0 01-.04 3.14038 19.13485 19.13485 0 01-.64248 3.14917c-.15465.5188-.32539 1.03711-.52492 1.552a11.6763 11.6763 0 01-.73321 1.60791l-.25417.45288a2.753 2.753 0 11-4.8008-2.696A2.78012 2.78012 0 01252.33645 378.06316z"/></g><path fill="#fff" d="M224.90281,420.00213a109.002,109.002,0,1,1,108.90527-109.002A109.07651,109.07651,0,0,1,224.90281,420.00213Zm0-213.27734A104.27543,104.27543,0,1,0,329.08152,311.00018,104.34549,104.34549,0,0,0,224.90281,206.72479Z"/><path fill="#fffae6" d="M171.34812,502.8q0,1.20117-1.09277,1.20117h-4.10742a1.23426,1.23426,0,0,1-1.0918-.74317l-5.92773-10.582-1.50782-2.17383V486.384a1.65658,1.65658,0,0,1,.44141-1.20117,1.48853,1.48853,0,0,1,1.11816-.458h3.84766q1.82081,0,1.82031-2.05859v-7.55078q0-.79981-.624-.80079h-8.47656q-1.248,0-1.248-1.42968v-3.20313q0-1.31543,1.248-1.3164H187.728q1.248,0,1.248,1.3164v3.25977q0,1.37256-1.248,1.373h-2.8086q-.624,0-.62305.80079v27.57031q0,1.3169-1.248,1.31543h-3.58789q-1.248,0-1.24805-1.31543V491.47479q0-.80127-.625-.80078H164.64011l6.39649,11.09668A2.20718,2.20718,0,0,1,171.34812,502.8Zm-1.19629-18.0752h7.43555q.624,0,.625-.80078v-8.80859q0-.79981-.625-.80079h-6.03125q-.624,0-.624.80079v5.66308q0,2.80225-.78028,3.71777Z"/><path fill="#fffae6" d="M195.57957,504.00116h-3.58789q-1.248,0-1.24805-1.31543V475.11542q0-.79981-.62305-.80079H187.312q-1.248,0-1.24805-1.373v-3.25977q0-1.31543,1.24805-1.3164h12.94824q1.24659,0,1.24707,1.3164v3.25977q0,1.37256-1.24707,1.373h-2.80762q-.624,0-.625.80079v27.57031Q196.82761,504.00263,195.57957,504.00116Z"/><path fill="#fffae6" d="M223.71238,475.11542v27.51367q0,1.37256-1.24805,1.37207h-3.64062q-1.19678,0-1.19531-1.37207v-4.91992h-.209a3.86855,3.86855,0,0,1-1.82031,1.60156,6.71058,6.71058,0,0,1-2.96289.62988h-1.56055a8.45135,8.45135,0,0,1-6.55176-2.5459q-2.33936-2.54443-2.34082-7.17871v-2.68848a10.664,10.664,0,0,1,2.31446-7.14941,8.22265,8.22265,0,0,1,6.52636-2.57422h2.86036q1.248,0,1.248,1.373v3.25976q0,1.3169-1.248,1.31543H212.1157q-3.79541,0-3.7959,4.11914v2.002a4.74158,4.74158,0,0,0,.85742,3.08886,3.49612,3.49612,0,0,0,2.834,1.0293h1.56055a3.6093,3.6093,0,0,0,3.09375-1.28711,5.25025,5.25025,0,0,0,.96289-3.23144V475.11542q0-.79981-.625-.80079H199.84324q-1.248,0-1.24805-1.373v-3.25977q0-1.31543,1.24805-1.3164H227.144q1.248,0,1.248,1.3164v3.25977q0,1.37256-1.248,1.373h-2.80859Q223.7114,474.31463,223.71238,475.11542Z"/><path fill="#fffae6" d="M237.75144,474.31463h-.88476q-1.61133,0-1.61133,2.05957v2.459q0,2.00391,1.87109,2.002h3.32813q1.248,0,1.248,1.373v3.26074q0,1.31543-1.248,1.31543h-3.32813a1.74171,1.74171,0,0,0-1.35156.57227,2.29391,2.29391,0,0,0-.51953,1.60156v1.31543a4.165,4.165,0,0,0,.59766,2.63086,2.92922,2.92922,0,0,0,2.26171.68652h2.86036q5.14892-.05566,5.14746-5.09082V475.11542q0-.79981-.623-.80079h-1.87305q-1.248,0-1.248-1.373v-3.25977q0-1.31543,1.248-1.3164h12.0127q1.248,0,1.248,1.3164v3.25977q0,1.37256-1.248,1.373h-2.80762q-.624,0-.625.80079v27.57031q0,1.3169-1.24805,1.31543h-3.58789q-1.248,0-1.248-1.31543v-5.60547h-.207q-1.14552,2.57373-4.47266,2.57422h-4.31641a7.41845,7.41845,0,0,1-5.82324-2.25977q-2.02881-2.25879-2.02832-6.49219v-1.77343q0-3.88917,2.80859-4.97657V483.924q-2.80956-1.02978-2.80859-4.63281v-2.34571a2.584,2.584,0,0,1,1.24805-2.40234v-.22852H226.727q-1.248,0-1.24805-1.42968v-3.20313q0-1.31543,1.24805-1.3164h11.02441q1.19532,0,1.19532,1.3164v3.25977Q238.94676,474.31415,237.75144,474.31463Z"/><path fill="#fffae6" d="M263.4907,504.00116h-3.58789q-1.248,0-1.248-1.31543V475.11542q0-.79981-.624-.80079h-2.80859q-1.24806,0-1.24805-1.373v-3.25977q0-1.31543,1.24805-1.3164h12.94921q1.24659,0,1.24708,1.3164v3.25977q0,1.37256-1.24708,1.373h-2.80859q-.624,0-.624.80079v27.57031Q264.73875,504.00263,263.4907,504.00116Z"/><path fill="#fffae6" d="M272.12254,493.591q-2.80811,0-2.8086-5.834a6.64651,6.64651,0,0,1,1.79492-4.86231,6.22752,6.22752,0,0,1,4.65333-1.83008H283.771q.624,0,.62305-.80078v-5.14843q0-.74268-.51953-.80079H267.75437q-1.248,0-1.248-1.373v-3.25977q0-1.31543,1.248-1.3164h26.15625q1.24659,0,1.24707,1.3164v3.25977q0,1.37256-1.24707,1.373H291.103q-.624,0-.625.80079v27.57031q0,1.3169-1.248,1.31543h-3.58789q-1.248,0-1.248-1.31543V487.87127q0-.80127-.62305-.80078h-5.61718a7.50519,7.50519,0,0,0-1.50782.11426q-1.30077.28712-1.2998,2.00195l.46777,3.08887q0,1.31689-1.14355,1.31543Z"/><path fill="#5b2d07" d="M113.86375,139.47577h18.98437a.64261.64261,0,0,1,.73047.72265V141.926q0,.76318-.73047.7627h-2.373c-.26856,0-.40137.16113-.40137.48242v20.52148c0,.53614-.23145.80274-.69434.80274h-1.9707c-.43848,0-.65723-.2666-.65723-.80274V159.717H126.605q-.876,1.686-3.46777,1.68652h-1.49708a5.54051,5.54051,0,0,1-4.29-1.68652,6.67989,6.67989,0,0,1-1.55176-4.69922V151.966a6.91978,6.91978,0,0,1,1.55176-4.69922,5.46869,5.46869,0,0,1,4.29-1.68652h2.26368q.69286,0,.69336.76269v1.64649q0,.72363-.69336.72363h-1.93555a3.2911,3.2911,0,0,0-1.60645.36133l6.31641,6.58594a7.13954,7.13954,0,0,0,.07324-.80274V143.17108c0-.32129-.13476-.48242-.40136-.48242H113.86375q-.69288,0-.69336-.7627v-1.72754Q113.17039,139.47626,113.86375,139.47577Zm8.06836,18.835h1.67968a3.154,3.154,0,0,0,2.11719-.68262l-6.6084-6.90723a5.014,5.014,0,0,0-.1455,1.3252v2.93164Q118.97508,158.31171,121.93211,158.31073Z"/><path fill="#5b2d07" d="M138.105,164.4953h-1.93457q-.69433,0-.69434-.7627V143.17108q0-.48193-.40136-.48242h-2.37305q-.7295,0-.72949-.7627v-1.72754a.64191.64191,0,0,1,.72949-.72265h8.87207a.64191.64191,0,0,1,.72949.72265V141.926q0,.76318-.72949.7627h-2.37305c-.26855,0-.40137.16113-.40137.48242V163.7326C138.79929,164.24139,138.56687,164.4953,138.105,164.4953Z"/><path fill="#5b2d07" d="M148.29051 148.83319v-5.66211c0-.29492-.12207-.45508-.36524-.48242h-6.53516q-.69286 0-.69335-.7627v-1.72754q0-.72216.69335-.72265h12.70508c.46192 0 .69434.24121.69434.72265V141.926c0 .50879-.23242.7627-.69434.7627h-2.08105q-.40137 0-.40137.48242v5.86328a5.793 5.793 0 01-1.18652 3.85547 3.9238 3.9238 0 01-3.15821 1.40527h-.69335l5.25683 8.95508a.97652.97652 0 01.18262.52246q0 .72363-.62012.72266h-2.1543a.77143.77143 0 01-.69336-.48145l-4.89257-8.39355-.91211-1.3252V152.006q0-.88331.83886-.88379h2.7754Q148.28953 151.12225 148.29051 148.83319zM163.36863 153.2912h-7.22852q-.62109 0-.62109-.72266V150.801q0-.72216.62109-.72265h7.22852q.61964 0 .62012.72265v1.76758Q163.98875 153.29072 163.36863 153.2912zM165.41258 139.47577h18.98535a.64191.64191 0 01.72949.72265V141.926q0 .76318-.72949.7627h-2.37305q-.40283 0-.40234.48242v20.52148c0 .53614-.23145.80274-.69336.80274H178.9575c-.4375 0-.65723-.2666-.65723-.80274V159.717h-.14551q-.876 1.686-3.46875 1.68652h-1.49707a5.53834 5.53834 0 01-4.28906-1.68652 6.67989 6.67989 0 01-1.55176-4.69922V151.966a6.91007 6.91007 0 011.55176-4.69922 5.46794 5.46794 0 014.28906-1.68652h2.26367c.46192 0 .69434.25488.69434.76269v1.64649c0 .48242-.23242.72363-.69434.72363H173.518a3.28583 3.28583 0 00-1.60644.36133l6.31543 6.58594a7.13954 7.13954 0 00.07324-.80274V143.17108q0-.48193-.40137-.48242H165.41258q-.69288 0-.69336-.7627v-1.72754Q164.71922 139.47626 165.41258 139.47577zm8.06836 18.835h1.67968a3.15222 3.15222 0 002.11719-.68262l-6.60742-6.90723a5.00894 5.00894 0 00-.14649 1.3252v2.93164Q170.5239 158.31171 173.48094 158.31073z"/><path fill="#5b2d07" d="M189.65379,164.4953h-1.93457q-.69434,0-.69434-.7627V143.17108q0-.48193-.40137-.48242h-2.373q-.7295,0-.7295-.7627v-1.72754a.64191.64191,0,0,1,.7295-.72265h8.87207a.64191.64191,0,0,1,.72949.72265V141.926q0,.76318-.72949.7627h-2.373c-.26855,0-.40137.16113-.40137.48242V163.7326C190.34812,164.24139,190.1157,164.4953,189.65379,164.4953Z"/><path fill="#5b2d07" d="M199.83933 148.83319v-5.66211c0-.29492-.12207-.45508-.36523-.48242h-6.53516q-.69286 0-.69336-.7627v-1.72754q0-.72216.69336-.72265H205.644c.46192 0 .69434.24121.69434.72265V141.926c0 .50879-.23242.7627-.69434.7627H203.563q-.40137 0-.40137.48242v5.86328a5.793 5.793 0 01-1.18652 3.85547 3.9238 3.9238 0 01-3.15821 1.40527h-.69336l5.25684 8.95508a.97652.97652 0 01.18262.52246q0 .72363-.62012.72266h-2.1543a.77142.77142 0 01-.69336-.48145l-4.89258-8.39355-.9121-1.3252V152.006q0-.88331.83886-.88379h2.77539Q199.83837 151.12225 199.83933 148.83319zM213.49754 137.092q-1.15284 0-1.15235-1.21387v-3.0625q0-1.21435 1.15235-1.21484h22.79882q1.15431 0 1.15235 1.21484v3.0625q0 1.21436-1.15235 1.21387H233.9448c-.38281 0-.57617.24707-.57617.73926v4.541q0 2.90478-2.832 2.9043h-6.62305a2.372 2.372 0 00-1.65625.47461 2.27616 2.27616 0 00-.5039 1.69043 2.45 2.45 0 00.48046 1.71582 2.04054 2.04054 0 001.53516.501h4.60742a5.88169 5.88169 0 014.20117 1.42579 5.25 5.25 0 011.51172 4.01269v1.84863q0 1.21435-1.15234 1.21387h-3.02344q-1.15137 0-1.15234-1.21387v-.73925a1.88421 1.88421 0 00-.35938-1.32032 1.66925 1.66925 0 00-1.22461-.36914H224.105a2.28018 2.28018 0 00-2.08789.8711 5.47064 5.47064 0 00-.59961 2.71875v.37011a3.127 3.127 0 00.96 2.69239 6.99835 6.99835 0 003.74316.68652h6.14453q1.15137 0 1.15235 1.21387v2.69336q0 1.21289-1.15235 1.21386h-6.76757q-5.13721 0-7.416-2.085-2.28077-2.08593-2.28027-6.3623v-.58106q0-4.645 2.73633-5.91406v-.21094q-2.44776-1.21436-2.44825-4.96289 0-3.74853 1.72852-5.28027a7.37368 7.37368 0 015.03906-1.53125h4.32031q.624 0 .62305-.73926v-1.47851q0-.68556-.47851-.73926z"/><path fill="#5b2d07" d="M243.54441 164.4953h-3.31152q-1.15284 0-1.15235-1.21387V137.83124q0-.73829-.57617-.73926h-2.59179q-1.15137 0-1.15235-1.2666v-3.00977q0-1.21435 1.15235-1.21484h11.95214q1.15137 0 1.15235 1.21484v3.00977q0 1.26708-1.15235 1.2666h-2.59179q-.57568 0-.57617.73926v25.45019Q244.69676 164.49579 243.54441 164.4953zM268.50535 157.47284H268.313q-1.53663 2.79932-5.47168 2.79883h-3.36035a10.06708 10.06708 0 01-4.51172-.9502 7.45 7.45 0 01-2.97657-2.53516 11.75717 11.75717 0 01-2.06347-6.81054v-4.91016q0-1.26855 1.15136-1.26758h5.66407q3.312 0 3.3125-2.58691v-3.0625a1.48951 1.48951 0 00-.48047-1.13574 1.82329 1.82329 0 00-1.2959-.44825q-1.72706 0-1.72754 1.584v2.16406q0 1.26855-1.05664 1.26758h-3.07129q-1.05615 0-1.05664-1.26758v-2.90332a5.64754 5.64754 0 011.91992-4.40918 7.17648 7.17648 0 014.96875-1.71582 7.71356 7.71356 0 015.08789 1.68945 6.20585 6.20585 0 012.04 5.06934v3.53711q0 7.70947-8.208 7.709h-1.53613v.68653a5.71469 5.71469 0 001.00781 3.66894q1.00782 1.24219 3.60059 1.24121h2.63965a4.93591 4.93591 0 004.248-1.84765 6.99562 6.99562 0 001.36816-4.27735V134.02948a2.62037 2.62037 0 01.57519-1.74219 1.96067 1.96067 0 011.585-.68652h6.57519q1.15284 0 1.15234 1.21484v3.00977q0 1.26708-1.15234 1.2666h-2.54394q-.57568 0-.57618.73926v25.45019q0 1.21436-1.15136 1.21387h-3.3125q-1.15137 0-1.15137-1.21387zM295.647 142.68866h-.69336q-1.752 0-1.75293 2.209v1.60645q0 2.12841 1.93555 2.12793h2.33691q.69288 0 .69336.76367v1.7666q0 .72363-.69336.72266h-2.33691q-1.93506 0-1.93555 2.249V155.339a3.27623 3.27623 0 00.585 2.209 2.50741 2.50741 0 001.93457.64258h2.70215q3.64893-.03955 3.65039-3.81543v-11.2041q0-.48193-.40137-.48242h-1.89843q-.731 0-.73047-.7627v-1.72754a.64222.64222 0 01.73047-.72265h8.43359q.69288 0 .69336.72265V141.926q0 .76318-.69336.7627h-2.41016q-.40135 0-.40136.48242V163.7326q0 .76319-.69336.7627h-1.93555q-.69287 0-.69336-.7627v-4.09668h-.14648a3.2094 3.2094 0 01-3.28516 1.84766h-3.39551a5.10431 5.10431 0 01-3.9248-1.50586 6.09414 6.09414 0 01-1.40527-4.31738V154.215q0-2.97216 2.11718-3.77539v-.16113q-2.11816-.80274-2.11718-3.5332v-1.56641a2.44219 2.44219 0 011.05859-2.3291v-.16113h-3.21289q-.69288 0-.69336-.80274v-1.6875q0-.72216.69336-.72265H295.647c.46191 0 .69434.24121.69434.72265V141.926C296.34129 142.43475 296.10886 142.68866 295.647 142.68866z"/><path fill="#5b2d07" d="M314.3032,139.47577h2.5918a.64261.64261,0,0,1,.73047.72265V141.926q0,.76318-.73047.7627h-2.373c-.26855,0-.40137.16113-.40137.48242V163.7326q0,.76319-.69433.7627h-1.93457q-.69433,0-.69336-.7627V143.17108c0-.32129-.13477-.48242-.40235-.48242h-2.373q-.72949,0-.72949-.7627v-1.72754a.64191.64191,0,0,1,.72949-.72265h2.81152v-.16016a48.87173,48.87173,0,0,1-4.27148-5.82324l-2.00782-3.333a.96952.96952,0,0,1-.18261-.60254c0-.40234.18261-.60254.54785-.60254H307.147a1.10933,1.10933,0,0,1,.98633.60254l5.2207,9.23633A1.0777,1.0777,0,0,0,314.3032,139.47577Z"/><path fill="#5b2d07" d="M316.7114 139.47577h19.42286q.69286 0 .69335.76367V141.966q0 .72217-.69335.72266h-1.78907q-.438 0-.43847.48242v4.377a6.4304 6.4304 0 01-1.4961 4.63867 5.62234 5.62234 0 01-4.23535 1.5459h-1.35058q-.69435 0-.69434-.76269v-1.68653q0-.76318.69434-.76367h.9121a3.23078 3.23078 0 002.19043-.64258 3.00582 3.00582 0 00.73047-2.3291v-4.377q0-.48193-.4375-.48242h-7.00976q-.40284 0-.40235.48242V156.0617q0 3.936 3.94336 3.93555h5.29395q.69286 0 .69336.76367v1.7666q0 .76318-.69336.80372h-5.95117a6.06008 6.06008 0 01-4.81934-2.00879 7.53215 7.53215 0 01-1.752-5.13965V143.17108q0-.48193-.43848-.48242h-2.373q-.69287 0-.69336-.72266v-1.72656Q316.018 139.47625 316.7114 139.47577zM333.90769 131.72479v2.8916q0 .92432-.80371.92383h-2.957q-.80274 0-.80273-.92383v-2.8916q0-.88184.80273-.88281h2.957Q333.90818 130.842 333.90769 131.72479z"/></svg>